%TF.GenerationSoftware,KiCad,Pcbnew,(5.1.6-0-10_14)*%
%TF.CreationDate,2020-10-29T20:17:36+08:00*%
%TF.ProjectId,QuadoFly,51756164-6f46-46c7-992e-6b696361645f,rev?*%
%TF.SameCoordinates,Original*%
%TF.FileFunction,Paste,Bot*%
%TF.FilePolarity,Positive*%
%FSLAX46Y46*%
G04 Gerber Fmt 4.6, Leading zero omitted, Abs format (unit mm)*
G04 Created by KiCad (PCBNEW (5.1.6-0-10_14)) date 2020-10-29 20:17:36*
%MOMM*%
%LPD*%
G01*
G04 APERTURE LIST*
%ADD10R,0.400000X3.000000*%
G04 APERTURE END LIST*
D10*
%TO.C,J13*%
X116350000Y-106500000D03*
X117050000Y-106500000D03*
X117750000Y-106500000D03*
X118450000Y-106500000D03*
X119150000Y-106500000D03*
X119850000Y-106500000D03*
X120550000Y-106500000D03*
X121250000Y-106500000D03*
X121950000Y-106500000D03*
X122650000Y-106500000D03*
X123350000Y-106500000D03*
X124050000Y-106500000D03*
X124750000Y-106500000D03*
X125450000Y-106500000D03*
X126150000Y-106500000D03*
X126850000Y-106500000D03*
X127550000Y-106500000D03*
X128250000Y-106500000D03*
X128950000Y-106500000D03*
X129650000Y-106500000D03*
X130350000Y-106500000D03*
X131050000Y-106500000D03*
X131750000Y-106500000D03*
X132450000Y-106500000D03*
X133150000Y-106500000D03*
X133850000Y-106500000D03*
X134550000Y-106500000D03*
X135250000Y-106500000D03*
X135950000Y-106500000D03*
X136650000Y-106500000D03*
%TD*%
%TO.C,R14*%
G36*
G01*
X129162500Y-111050000D02*
X129637500Y-111050000D01*
G75*
G02*
X129875000Y-111287500I0J-237500D01*
G01*
X129875000Y-111862500D01*
G75*
G02*
X129637500Y-112100000I-237500J0D01*
G01*
X129162500Y-112100000D01*
G75*
G02*
X128925000Y-111862500I0J237500D01*
G01*
X128925000Y-111287500D01*
G75*
G02*
X129162500Y-111050000I237500J0D01*
G01*
G37*
G36*
G01*
X129162500Y-109300000D02*
X129637500Y-109300000D01*
G75*
G02*
X129875000Y-109537500I0J-237500D01*
G01*
X129875000Y-110112500D01*
G75*
G02*
X129637500Y-110350000I-237500J0D01*
G01*
X129162500Y-110350000D01*
G75*
G02*
X128925000Y-110112500I0J237500D01*
G01*
X128925000Y-109537500D01*
G75*
G02*
X129162500Y-109300000I237500J0D01*
G01*
G37*
%TD*%
%TO.C,R13*%
G36*
G01*
X131737500Y-110350000D02*
X131262500Y-110350000D01*
G75*
G02*
X131025000Y-110112500I0J237500D01*
G01*
X131025000Y-109537500D01*
G75*
G02*
X131262500Y-109300000I237500J0D01*
G01*
X131737500Y-109300000D01*
G75*
G02*
X131975000Y-109537500I0J-237500D01*
G01*
X131975000Y-110112500D01*
G75*
G02*
X131737500Y-110350000I-237500J0D01*
G01*
G37*
G36*
G01*
X131737500Y-112100000D02*
X131262500Y-112100000D01*
G75*
G02*
X131025000Y-111862500I0J237500D01*
G01*
X131025000Y-111287500D01*
G75*
G02*
X131262500Y-111050000I237500J0D01*
G01*
X131737500Y-111050000D01*
G75*
G02*
X131975000Y-111287500I0J-237500D01*
G01*
X131975000Y-111862500D01*
G75*
G02*
X131737500Y-112100000I-237500J0D01*
G01*
G37*
%TD*%
%TO.C,R12*%
G36*
G01*
X120537500Y-110350000D02*
X120062500Y-110350000D01*
G75*
G02*
X119825000Y-110112500I0J237500D01*
G01*
X119825000Y-109537500D01*
G75*
G02*
X120062500Y-109300000I237500J0D01*
G01*
X120537500Y-109300000D01*
G75*
G02*
X120775000Y-109537500I0J-237500D01*
G01*
X120775000Y-110112500D01*
G75*
G02*
X120537500Y-110350000I-237500J0D01*
G01*
G37*
G36*
G01*
X120537500Y-112100000D02*
X120062500Y-112100000D01*
G75*
G02*
X119825000Y-111862500I0J237500D01*
G01*
X119825000Y-111287500D01*
G75*
G02*
X120062500Y-111050000I237500J0D01*
G01*
X120537500Y-111050000D01*
G75*
G02*
X120775000Y-111287500I0J-237500D01*
G01*
X120775000Y-111862500D01*
G75*
G02*
X120537500Y-112100000I-237500J0D01*
G01*
G37*
%TD*%
%TO.C,R11*%
G36*
G01*
X123812500Y-111050000D02*
X124287500Y-111050000D01*
G75*
G02*
X124525000Y-111287500I0J-237500D01*
G01*
X124525000Y-111862500D01*
G75*
G02*
X124287500Y-112100000I-237500J0D01*
G01*
X123812500Y-112100000D01*
G75*
G02*
X123575000Y-111862500I0J237500D01*
G01*
X123575000Y-111287500D01*
G75*
G02*
X123812500Y-111050000I237500J0D01*
G01*
G37*
G36*
G01*
X123812500Y-109300000D02*
X124287500Y-109300000D01*
G75*
G02*
X124525000Y-109537500I0J-237500D01*
G01*
X124525000Y-110112500D01*
G75*
G02*
X124287500Y-110350000I-237500J0D01*
G01*
X123812500Y-110350000D01*
G75*
G02*
X123575000Y-110112500I0J237500D01*
G01*
X123575000Y-109537500D01*
G75*
G02*
X123812500Y-109300000I237500J0D01*
G01*
G37*
%TD*%
%TO.C,C29*%
G36*
G01*
X118687500Y-110350000D02*
X118212500Y-110350000D01*
G75*
G02*
X117975000Y-110112500I0J237500D01*
G01*
X117975000Y-109537500D01*
G75*
G02*
X118212500Y-109300000I237500J0D01*
G01*
X118687500Y-109300000D01*
G75*
G02*
X118925000Y-109537500I0J-237500D01*
G01*
X118925000Y-110112500D01*
G75*
G02*
X118687500Y-110350000I-237500J0D01*
G01*
G37*
G36*
G01*
X118687500Y-112100000D02*
X118212500Y-112100000D01*
G75*
G02*
X117975000Y-111862500I0J237500D01*
G01*
X117975000Y-111287500D01*
G75*
G02*
X118212500Y-111050000I237500J0D01*
G01*
X118687500Y-111050000D01*
G75*
G02*
X118925000Y-111287500I0J-237500D01*
G01*
X118925000Y-111862500D01*
G75*
G02*
X118687500Y-112100000I-237500J0D01*
G01*
G37*
%TD*%
%TO.C,C28*%
G36*
G01*
X116787500Y-110350000D02*
X116312500Y-110350000D01*
G75*
G02*
X116075000Y-110112500I0J237500D01*
G01*
X116075000Y-109537500D01*
G75*
G02*
X116312500Y-109300000I237500J0D01*
G01*
X116787500Y-109300000D01*
G75*
G02*
X117025000Y-109537500I0J-237500D01*
G01*
X117025000Y-110112500D01*
G75*
G02*
X116787500Y-110350000I-237500J0D01*
G01*
G37*
G36*
G01*
X116787500Y-112100000D02*
X116312500Y-112100000D01*
G75*
G02*
X116075000Y-111862500I0J237500D01*
G01*
X116075000Y-111287500D01*
G75*
G02*
X116312500Y-111050000I237500J0D01*
G01*
X116787500Y-111050000D01*
G75*
G02*
X117025000Y-111287500I0J-237500D01*
G01*
X117025000Y-111862500D01*
G75*
G02*
X116787500Y-112100000I-237500J0D01*
G01*
G37*
%TD*%
%TO.C,C27*%
G36*
G01*
X134737500Y-110350000D02*
X134262500Y-110350000D01*
G75*
G02*
X134025000Y-110112500I0J237500D01*
G01*
X134025000Y-109537500D01*
G75*
G02*
X134262500Y-109300000I237500J0D01*
G01*
X134737500Y-109300000D01*
G75*
G02*
X134975000Y-109537500I0J-237500D01*
G01*
X134975000Y-110112500D01*
G75*
G02*
X134737500Y-110350000I-237500J0D01*
G01*
G37*
G36*
G01*
X134737500Y-112100000D02*
X134262500Y-112100000D01*
G75*
G02*
X134025000Y-111862500I0J237500D01*
G01*
X134025000Y-111287500D01*
G75*
G02*
X134262500Y-111050000I237500J0D01*
G01*
X134737500Y-111050000D01*
G75*
G02*
X134975000Y-111287500I0J-237500D01*
G01*
X134975000Y-111862500D01*
G75*
G02*
X134737500Y-112100000I-237500J0D01*
G01*
G37*
%TD*%
%TO.C,C26*%
G36*
G01*
X136262500Y-111050000D02*
X136737500Y-111050000D01*
G75*
G02*
X136975000Y-111287500I0J-237500D01*
G01*
X136975000Y-111862500D01*
G75*
G02*
X136737500Y-112100000I-237500J0D01*
G01*
X136262500Y-112100000D01*
G75*
G02*
X136025000Y-111862500I0J237500D01*
G01*
X136025000Y-111287500D01*
G75*
G02*
X136262500Y-111050000I237500J0D01*
G01*
G37*
G36*
G01*
X136262500Y-109300000D02*
X136737500Y-109300000D01*
G75*
G02*
X136975000Y-109537500I0J-237500D01*
G01*
X136975000Y-110112500D01*
G75*
G02*
X136737500Y-110350000I-237500J0D01*
G01*
X136262500Y-110350000D01*
G75*
G02*
X136025000Y-110112500I0J237500D01*
G01*
X136025000Y-109537500D01*
G75*
G02*
X136262500Y-109300000I237500J0D01*
G01*
G37*
%TD*%
M02*
