%TF.GenerationSoftware,KiCad,Pcbnew,(5.1.6-0-10_14)*%
%TF.CreationDate,2020-10-29T20:17:36+08:00*%
%TF.ProjectId,QuadoFly,51756164-6f46-46c7-992e-6b696361645f,rev?*%
%TF.SameCoordinates,Original*%
%TF.FileFunction,Soldermask,Top*%
%TF.FilePolarity,Negative*%
%FSLAX46Y46*%
G04 Gerber Fmt 4.6, Leading zero omitted, Abs format (unit mm)*
G04 Created by KiCad (PCBNEW (5.1.6-0-10_14)) date 2020-10-29 20:17:36*
%MOMM*%
%LPD*%
G01*
G04 APERTURE LIST*
%ADD10O,1.450000X1.450000*%
%ADD11R,1.450000X1.450000*%
%ADD12R,1.800000X2.500000*%
%ADD13R,1.500000X0.800000*%
%ADD14R,0.800000X1.500000*%
%ADD15R,2.510000X3.400000*%
%ADD16R,2.390000X3.100000*%
%ADD17R,1.000000X1.800000*%
%ADD18R,2.800000X2.300000*%
%ADD19R,0.400000X1.250000*%
%ADD20C,0.750000*%
%ADD21O,1.100000X1.700000*%
%ADD22O,1.100000X2.200000*%
G04 APERTURE END LIST*
D10*
%TO.C,J10*%
X101500000Y-143500000D03*
X101500000Y-141500000D03*
X101500000Y-139500000D03*
D11*
X101500000Y-137500000D03*
%TD*%
D10*
%TO.C,J9*%
X138500000Y-143500000D03*
X138500000Y-141500000D03*
X138500000Y-139500000D03*
D11*
X138500000Y-137500000D03*
%TD*%
D10*
%TO.C,J3*%
X101500000Y-129250000D03*
D11*
X101500000Y-127250000D03*
%TD*%
D10*
%TO.C,J2*%
X101500000Y-122100000D03*
D11*
X101500000Y-124100000D03*
%TD*%
D10*
%TO.C,J7*%
X101500000Y-134333332D03*
D11*
X101500000Y-132333332D03*
%TD*%
D12*
%TO.C,Y1*%
X119444666Y-119950000D03*
X123144666Y-119950000D03*
%TD*%
D13*
%TO.C,U7*%
X100900000Y-108650000D03*
X100900000Y-107370000D03*
X100900000Y-106090000D03*
D14*
X109100000Y-110150000D03*
X107820000Y-110150000D03*
X106540000Y-110150000D03*
X105260000Y-110150000D03*
X103980000Y-110150000D03*
D13*
X110900000Y-108650000D03*
X110900000Y-107370000D03*
X110900000Y-106090000D03*
X110900000Y-104810000D03*
X110900000Y-103530000D03*
X110900000Y-102250000D03*
D14*
X102700000Y-110150000D03*
D13*
X100900000Y-104810000D03*
X110900000Y-100970000D03*
%TD*%
%TO.C,U6*%
G36*
G01*
X108975000Y-113000000D02*
X108975000Y-112800000D01*
G75*
G02*
X109075000Y-112700000I100000J0D01*
G01*
X109825000Y-112700000D01*
G75*
G02*
X109925000Y-112800000I0J-100000D01*
G01*
X109925000Y-113000000D01*
G75*
G02*
X109825000Y-113100000I-100000J0D01*
G01*
X109075000Y-113100000D01*
G75*
G02*
X108975000Y-113000000I0J100000D01*
G01*
G37*
G36*
G01*
X108975000Y-113500000D02*
X108975000Y-113300000D01*
G75*
G02*
X109075000Y-113200000I100000J0D01*
G01*
X109825000Y-113200000D01*
G75*
G02*
X109925000Y-113300000I0J-100000D01*
G01*
X109925000Y-113500000D01*
G75*
G02*
X109825000Y-113600000I-100000J0D01*
G01*
X109075000Y-113600000D01*
G75*
G02*
X108975000Y-113500000I0J100000D01*
G01*
G37*
G36*
G01*
X108975000Y-114000000D02*
X108975000Y-113800000D01*
G75*
G02*
X109075000Y-113700000I100000J0D01*
G01*
X109825000Y-113700000D01*
G75*
G02*
X109925000Y-113800000I0J-100000D01*
G01*
X109925000Y-114000000D01*
G75*
G02*
X109825000Y-114100000I-100000J0D01*
G01*
X109075000Y-114100000D01*
G75*
G02*
X108975000Y-114000000I0J100000D01*
G01*
G37*
G36*
G01*
X108975000Y-114500000D02*
X108975000Y-114300000D01*
G75*
G02*
X109075000Y-114200000I100000J0D01*
G01*
X109825000Y-114200000D01*
G75*
G02*
X109925000Y-114300000I0J-100000D01*
G01*
X109925000Y-114500000D01*
G75*
G02*
X109825000Y-114600000I-100000J0D01*
G01*
X109075000Y-114600000D01*
G75*
G02*
X108975000Y-114500000I0J100000D01*
G01*
G37*
G36*
G01*
X108975000Y-115000000D02*
X108975000Y-114800000D01*
G75*
G02*
X109075000Y-114700000I100000J0D01*
G01*
X109825000Y-114700000D01*
G75*
G02*
X109925000Y-114800000I0J-100000D01*
G01*
X109925000Y-115000000D01*
G75*
G02*
X109825000Y-115100000I-100000J0D01*
G01*
X109075000Y-115100000D01*
G75*
G02*
X108975000Y-115000000I0J100000D01*
G01*
G37*
G36*
G01*
X108975000Y-115500000D02*
X108975000Y-115300000D01*
G75*
G02*
X109075000Y-115200000I100000J0D01*
G01*
X109825000Y-115200000D01*
G75*
G02*
X109925000Y-115300000I0J-100000D01*
G01*
X109925000Y-115500000D01*
G75*
G02*
X109825000Y-115600000I-100000J0D01*
G01*
X109075000Y-115600000D01*
G75*
G02*
X108975000Y-115500000I0J100000D01*
G01*
G37*
G36*
G01*
X108650000Y-115625000D02*
X108850000Y-115625000D01*
G75*
G02*
X108950000Y-115725000I0J-100000D01*
G01*
X108950000Y-116475000D01*
G75*
G02*
X108850000Y-116575000I-100000J0D01*
G01*
X108650000Y-116575000D01*
G75*
G02*
X108550000Y-116475000I0J100000D01*
G01*
X108550000Y-115725000D01*
G75*
G02*
X108650000Y-115625000I100000J0D01*
G01*
G37*
G36*
G01*
X108150000Y-115625000D02*
X108350000Y-115625000D01*
G75*
G02*
X108450000Y-115725000I0J-100000D01*
G01*
X108450000Y-116475000D01*
G75*
G02*
X108350000Y-116575000I-100000J0D01*
G01*
X108150000Y-116575000D01*
G75*
G02*
X108050000Y-116475000I0J100000D01*
G01*
X108050000Y-115725000D01*
G75*
G02*
X108150000Y-115625000I100000J0D01*
G01*
G37*
G36*
G01*
X107650000Y-115625000D02*
X107850000Y-115625000D01*
G75*
G02*
X107950000Y-115725000I0J-100000D01*
G01*
X107950000Y-116475000D01*
G75*
G02*
X107850000Y-116575000I-100000J0D01*
G01*
X107650000Y-116575000D01*
G75*
G02*
X107550000Y-116475000I0J100000D01*
G01*
X107550000Y-115725000D01*
G75*
G02*
X107650000Y-115625000I100000J0D01*
G01*
G37*
G36*
G01*
X107150000Y-115625000D02*
X107350000Y-115625000D01*
G75*
G02*
X107450000Y-115725000I0J-100000D01*
G01*
X107450000Y-116475000D01*
G75*
G02*
X107350000Y-116575000I-100000J0D01*
G01*
X107150000Y-116575000D01*
G75*
G02*
X107050000Y-116475000I0J100000D01*
G01*
X107050000Y-115725000D01*
G75*
G02*
X107150000Y-115625000I100000J0D01*
G01*
G37*
G36*
G01*
X106650000Y-115625000D02*
X106850000Y-115625000D01*
G75*
G02*
X106950000Y-115725000I0J-100000D01*
G01*
X106950000Y-116475000D01*
G75*
G02*
X106850000Y-116575000I-100000J0D01*
G01*
X106650000Y-116575000D01*
G75*
G02*
X106550000Y-116475000I0J100000D01*
G01*
X106550000Y-115725000D01*
G75*
G02*
X106650000Y-115625000I100000J0D01*
G01*
G37*
G36*
G01*
X106150000Y-115625000D02*
X106350000Y-115625000D01*
G75*
G02*
X106450000Y-115725000I0J-100000D01*
G01*
X106450000Y-116475000D01*
G75*
G02*
X106350000Y-116575000I-100000J0D01*
G01*
X106150000Y-116575000D01*
G75*
G02*
X106050000Y-116475000I0J100000D01*
G01*
X106050000Y-115725000D01*
G75*
G02*
X106150000Y-115625000I100000J0D01*
G01*
G37*
G36*
G01*
X105075000Y-115500000D02*
X105075000Y-115300000D01*
G75*
G02*
X105175000Y-115200000I100000J0D01*
G01*
X105925000Y-115200000D01*
G75*
G02*
X106025000Y-115300000I0J-100000D01*
G01*
X106025000Y-115500000D01*
G75*
G02*
X105925000Y-115600000I-100000J0D01*
G01*
X105175000Y-115600000D01*
G75*
G02*
X105075000Y-115500000I0J100000D01*
G01*
G37*
G36*
G01*
X105075000Y-115000000D02*
X105075000Y-114800000D01*
G75*
G02*
X105175000Y-114700000I100000J0D01*
G01*
X105925000Y-114700000D01*
G75*
G02*
X106025000Y-114800000I0J-100000D01*
G01*
X106025000Y-115000000D01*
G75*
G02*
X105925000Y-115100000I-100000J0D01*
G01*
X105175000Y-115100000D01*
G75*
G02*
X105075000Y-115000000I0J100000D01*
G01*
G37*
G36*
G01*
X105075000Y-114500000D02*
X105075000Y-114300000D01*
G75*
G02*
X105175000Y-114200000I100000J0D01*
G01*
X105925000Y-114200000D01*
G75*
G02*
X106025000Y-114300000I0J-100000D01*
G01*
X106025000Y-114500000D01*
G75*
G02*
X105925000Y-114600000I-100000J0D01*
G01*
X105175000Y-114600000D01*
G75*
G02*
X105075000Y-114500000I0J100000D01*
G01*
G37*
G36*
G01*
X105075000Y-114000000D02*
X105075000Y-113800000D01*
G75*
G02*
X105175000Y-113700000I100000J0D01*
G01*
X105925000Y-113700000D01*
G75*
G02*
X106025000Y-113800000I0J-100000D01*
G01*
X106025000Y-114000000D01*
G75*
G02*
X105925000Y-114100000I-100000J0D01*
G01*
X105175000Y-114100000D01*
G75*
G02*
X105075000Y-114000000I0J100000D01*
G01*
G37*
G36*
G01*
X105075000Y-113500000D02*
X105075000Y-113300000D01*
G75*
G02*
X105175000Y-113200000I100000J0D01*
G01*
X105925000Y-113200000D01*
G75*
G02*
X106025000Y-113300000I0J-100000D01*
G01*
X106025000Y-113500000D01*
G75*
G02*
X105925000Y-113600000I-100000J0D01*
G01*
X105175000Y-113600000D01*
G75*
G02*
X105075000Y-113500000I0J100000D01*
G01*
G37*
G36*
G01*
X105075000Y-113000000D02*
X105075000Y-112800000D01*
G75*
G02*
X105175000Y-112700000I100000J0D01*
G01*
X105925000Y-112700000D01*
G75*
G02*
X106025000Y-112800000I0J-100000D01*
G01*
X106025000Y-113000000D01*
G75*
G02*
X105925000Y-113100000I-100000J0D01*
G01*
X105175000Y-113100000D01*
G75*
G02*
X105075000Y-113000000I0J100000D01*
G01*
G37*
G36*
G01*
X106150000Y-111725000D02*
X106350000Y-111725000D01*
G75*
G02*
X106450000Y-111825000I0J-100000D01*
G01*
X106450000Y-112575000D01*
G75*
G02*
X106350000Y-112675000I-100000J0D01*
G01*
X106150000Y-112675000D01*
G75*
G02*
X106050000Y-112575000I0J100000D01*
G01*
X106050000Y-111825000D01*
G75*
G02*
X106150000Y-111725000I100000J0D01*
G01*
G37*
G36*
G01*
X106650000Y-111725000D02*
X106850000Y-111725000D01*
G75*
G02*
X106950000Y-111825000I0J-100000D01*
G01*
X106950000Y-112575000D01*
G75*
G02*
X106850000Y-112675000I-100000J0D01*
G01*
X106650000Y-112675000D01*
G75*
G02*
X106550000Y-112575000I0J100000D01*
G01*
X106550000Y-111825000D01*
G75*
G02*
X106650000Y-111725000I100000J0D01*
G01*
G37*
G36*
G01*
X107150000Y-111725000D02*
X107350000Y-111725000D01*
G75*
G02*
X107450000Y-111825000I0J-100000D01*
G01*
X107450000Y-112575000D01*
G75*
G02*
X107350000Y-112675000I-100000J0D01*
G01*
X107150000Y-112675000D01*
G75*
G02*
X107050000Y-112575000I0J100000D01*
G01*
X107050000Y-111825000D01*
G75*
G02*
X107150000Y-111725000I100000J0D01*
G01*
G37*
G36*
G01*
X107650000Y-111725000D02*
X107850000Y-111725000D01*
G75*
G02*
X107950000Y-111825000I0J-100000D01*
G01*
X107950000Y-112575000D01*
G75*
G02*
X107850000Y-112675000I-100000J0D01*
G01*
X107650000Y-112675000D01*
G75*
G02*
X107550000Y-112575000I0J100000D01*
G01*
X107550000Y-111825000D01*
G75*
G02*
X107650000Y-111725000I100000J0D01*
G01*
G37*
G36*
G01*
X108150000Y-111725000D02*
X108350000Y-111725000D01*
G75*
G02*
X108450000Y-111825000I0J-100000D01*
G01*
X108450000Y-112575000D01*
G75*
G02*
X108350000Y-112675000I-100000J0D01*
G01*
X108150000Y-112675000D01*
G75*
G02*
X108050000Y-112575000I0J100000D01*
G01*
X108050000Y-111825000D01*
G75*
G02*
X108150000Y-111725000I100000J0D01*
G01*
G37*
G36*
G01*
X108650000Y-111725000D02*
X108850000Y-111725000D01*
G75*
G02*
X108950000Y-111825000I0J-100000D01*
G01*
X108950000Y-112575000D01*
G75*
G02*
X108850000Y-112675000I-100000J0D01*
G01*
X108650000Y-112675000D01*
G75*
G02*
X108550000Y-112575000I0J100000D01*
G01*
X108550000Y-111825000D01*
G75*
G02*
X108650000Y-111725000I100000J0D01*
G01*
G37*
%TD*%
D15*
%TO.C,U5*%
X107500000Y-129500000D03*
G36*
G01*
X108950000Y-127770000D02*
X108950000Y-127420000D01*
G75*
G02*
X109125000Y-127245000I175000J0D01*
G01*
X110825000Y-127245000D01*
G75*
G02*
X111000000Y-127420000I0J-175000D01*
G01*
X111000000Y-127770000D01*
G75*
G02*
X110825000Y-127945000I-175000J0D01*
G01*
X109125000Y-127945000D01*
G75*
G02*
X108950000Y-127770000I0J175000D01*
G01*
G37*
G36*
G01*
X108950000Y-129040000D02*
X108950000Y-128690000D01*
G75*
G02*
X109125000Y-128515000I175000J0D01*
G01*
X110825000Y-128515000D01*
G75*
G02*
X111000000Y-128690000I0J-175000D01*
G01*
X111000000Y-129040000D01*
G75*
G02*
X110825000Y-129215000I-175000J0D01*
G01*
X109125000Y-129215000D01*
G75*
G02*
X108950000Y-129040000I0J175000D01*
G01*
G37*
G36*
G01*
X108950000Y-130310000D02*
X108950000Y-129960000D01*
G75*
G02*
X109125000Y-129785000I175000J0D01*
G01*
X110825000Y-129785000D01*
G75*
G02*
X111000000Y-129960000I0J-175000D01*
G01*
X111000000Y-130310000D01*
G75*
G02*
X110825000Y-130485000I-175000J0D01*
G01*
X109125000Y-130485000D01*
G75*
G02*
X108950000Y-130310000I0J175000D01*
G01*
G37*
G36*
G01*
X108950000Y-131580000D02*
X108950000Y-131230000D01*
G75*
G02*
X109125000Y-131055000I175000J0D01*
G01*
X110825000Y-131055000D01*
G75*
G02*
X111000000Y-131230000I0J-175000D01*
G01*
X111000000Y-131580000D01*
G75*
G02*
X110825000Y-131755000I-175000J0D01*
G01*
X109125000Y-131755000D01*
G75*
G02*
X108950000Y-131580000I0J175000D01*
G01*
G37*
G36*
G01*
X104000000Y-131580000D02*
X104000000Y-131230000D01*
G75*
G02*
X104175000Y-131055000I175000J0D01*
G01*
X105875000Y-131055000D01*
G75*
G02*
X106050000Y-131230000I0J-175000D01*
G01*
X106050000Y-131580000D01*
G75*
G02*
X105875000Y-131755000I-175000J0D01*
G01*
X104175000Y-131755000D01*
G75*
G02*
X104000000Y-131580000I0J175000D01*
G01*
G37*
G36*
G01*
X104000000Y-130310000D02*
X104000000Y-129960000D01*
G75*
G02*
X104175000Y-129785000I175000J0D01*
G01*
X105875000Y-129785000D01*
G75*
G02*
X106050000Y-129960000I0J-175000D01*
G01*
X106050000Y-130310000D01*
G75*
G02*
X105875000Y-130485000I-175000J0D01*
G01*
X104175000Y-130485000D01*
G75*
G02*
X104000000Y-130310000I0J175000D01*
G01*
G37*
G36*
G01*
X104000000Y-129040000D02*
X104000000Y-128690000D01*
G75*
G02*
X104175000Y-128515000I175000J0D01*
G01*
X105875000Y-128515000D01*
G75*
G02*
X106050000Y-128690000I0J-175000D01*
G01*
X106050000Y-129040000D01*
G75*
G02*
X105875000Y-129215000I-175000J0D01*
G01*
X104175000Y-129215000D01*
G75*
G02*
X104000000Y-129040000I0J175000D01*
G01*
G37*
G36*
G01*
X104000000Y-127770000D02*
X104000000Y-127420000D01*
G75*
G02*
X104175000Y-127245000I175000J0D01*
G01*
X105875000Y-127245000D01*
G75*
G02*
X106050000Y-127420000I0J-175000D01*
G01*
X106050000Y-127770000D01*
G75*
G02*
X105875000Y-127945000I-175000J0D01*
G01*
X104175000Y-127945000D01*
G75*
G02*
X104000000Y-127770000I0J175000D01*
G01*
G37*
%TD*%
%TO.C,U4*%
G36*
G01*
X123475000Y-124700000D02*
X124850000Y-124700000D01*
G75*
G02*
X124950000Y-124800000I0J-100000D01*
G01*
X124950000Y-125000000D01*
G75*
G02*
X124850000Y-125100000I-100000J0D01*
G01*
X123475000Y-125100000D01*
G75*
G02*
X123375000Y-125000000I0J100000D01*
G01*
X123375000Y-124800000D01*
G75*
G02*
X123475000Y-124700000I100000J0D01*
G01*
G37*
G36*
G01*
X123475000Y-125200000D02*
X124850000Y-125200000D01*
G75*
G02*
X124950000Y-125300000I0J-100000D01*
G01*
X124950000Y-125500000D01*
G75*
G02*
X124850000Y-125600000I-100000J0D01*
G01*
X123475000Y-125600000D01*
G75*
G02*
X123375000Y-125500000I0J100000D01*
G01*
X123375000Y-125300000D01*
G75*
G02*
X123475000Y-125200000I100000J0D01*
G01*
G37*
G36*
G01*
X123475000Y-125700000D02*
X124850000Y-125700000D01*
G75*
G02*
X124950000Y-125800000I0J-100000D01*
G01*
X124950000Y-126000000D01*
G75*
G02*
X124850000Y-126100000I-100000J0D01*
G01*
X123475000Y-126100000D01*
G75*
G02*
X123375000Y-126000000I0J100000D01*
G01*
X123375000Y-125800000D01*
G75*
G02*
X123475000Y-125700000I100000J0D01*
G01*
G37*
G36*
G01*
X123475000Y-126200000D02*
X124850000Y-126200000D01*
G75*
G02*
X124950000Y-126300000I0J-100000D01*
G01*
X124950000Y-126500000D01*
G75*
G02*
X124850000Y-126600000I-100000J0D01*
G01*
X123475000Y-126600000D01*
G75*
G02*
X123375000Y-126500000I0J100000D01*
G01*
X123375000Y-126300000D01*
G75*
G02*
X123475000Y-126200000I100000J0D01*
G01*
G37*
G36*
G01*
X123475000Y-126700000D02*
X124850000Y-126700000D01*
G75*
G02*
X124950000Y-126800000I0J-100000D01*
G01*
X124950000Y-127000000D01*
G75*
G02*
X124850000Y-127100000I-100000J0D01*
G01*
X123475000Y-127100000D01*
G75*
G02*
X123375000Y-127000000I0J100000D01*
G01*
X123375000Y-126800000D01*
G75*
G02*
X123475000Y-126700000I100000J0D01*
G01*
G37*
G36*
G01*
X123475000Y-127200000D02*
X124850000Y-127200000D01*
G75*
G02*
X124950000Y-127300000I0J-100000D01*
G01*
X124950000Y-127500000D01*
G75*
G02*
X124850000Y-127600000I-100000J0D01*
G01*
X123475000Y-127600000D01*
G75*
G02*
X123375000Y-127500000I0J100000D01*
G01*
X123375000Y-127300000D01*
G75*
G02*
X123475000Y-127200000I100000J0D01*
G01*
G37*
G36*
G01*
X123475000Y-127700000D02*
X124850000Y-127700000D01*
G75*
G02*
X124950000Y-127800000I0J-100000D01*
G01*
X124950000Y-128000000D01*
G75*
G02*
X124850000Y-128100000I-100000J0D01*
G01*
X123475000Y-128100000D01*
G75*
G02*
X123375000Y-128000000I0J100000D01*
G01*
X123375000Y-127800000D01*
G75*
G02*
X123475000Y-127700000I100000J0D01*
G01*
G37*
G36*
G01*
X123475000Y-128200000D02*
X124850000Y-128200000D01*
G75*
G02*
X124950000Y-128300000I0J-100000D01*
G01*
X124950000Y-128500000D01*
G75*
G02*
X124850000Y-128600000I-100000J0D01*
G01*
X123475000Y-128600000D01*
G75*
G02*
X123375000Y-128500000I0J100000D01*
G01*
X123375000Y-128300000D01*
G75*
G02*
X123475000Y-128200000I100000J0D01*
G01*
G37*
G36*
G01*
X123475000Y-128700000D02*
X124850000Y-128700000D01*
G75*
G02*
X124950000Y-128800000I0J-100000D01*
G01*
X124950000Y-129000000D01*
G75*
G02*
X124850000Y-129100000I-100000J0D01*
G01*
X123475000Y-129100000D01*
G75*
G02*
X123375000Y-129000000I0J100000D01*
G01*
X123375000Y-128800000D01*
G75*
G02*
X123475000Y-128700000I100000J0D01*
G01*
G37*
G36*
G01*
X123475000Y-129200000D02*
X124850000Y-129200000D01*
G75*
G02*
X124950000Y-129300000I0J-100000D01*
G01*
X124950000Y-129500000D01*
G75*
G02*
X124850000Y-129600000I-100000J0D01*
G01*
X123475000Y-129600000D01*
G75*
G02*
X123375000Y-129500000I0J100000D01*
G01*
X123375000Y-129300000D01*
G75*
G02*
X123475000Y-129200000I100000J0D01*
G01*
G37*
G36*
G01*
X123475000Y-129700000D02*
X124850000Y-129700000D01*
G75*
G02*
X124950000Y-129800000I0J-100000D01*
G01*
X124950000Y-130000000D01*
G75*
G02*
X124850000Y-130100000I-100000J0D01*
G01*
X123475000Y-130100000D01*
G75*
G02*
X123375000Y-130000000I0J100000D01*
G01*
X123375000Y-129800000D01*
G75*
G02*
X123475000Y-129700000I100000J0D01*
G01*
G37*
G36*
G01*
X123475000Y-130200000D02*
X124850000Y-130200000D01*
G75*
G02*
X124950000Y-130300000I0J-100000D01*
G01*
X124950000Y-130500000D01*
G75*
G02*
X124850000Y-130600000I-100000J0D01*
G01*
X123475000Y-130600000D01*
G75*
G02*
X123375000Y-130500000I0J100000D01*
G01*
X123375000Y-130300000D01*
G75*
G02*
X123475000Y-130200000I100000J0D01*
G01*
G37*
G36*
G01*
X122650000Y-131025000D02*
X122850000Y-131025000D01*
G75*
G02*
X122950000Y-131125000I0J-100000D01*
G01*
X122950000Y-132500000D01*
G75*
G02*
X122850000Y-132600000I-100000J0D01*
G01*
X122650000Y-132600000D01*
G75*
G02*
X122550000Y-132500000I0J100000D01*
G01*
X122550000Y-131125000D01*
G75*
G02*
X122650000Y-131025000I100000J0D01*
G01*
G37*
G36*
G01*
X122150000Y-131025000D02*
X122350000Y-131025000D01*
G75*
G02*
X122450000Y-131125000I0J-100000D01*
G01*
X122450000Y-132500000D01*
G75*
G02*
X122350000Y-132600000I-100000J0D01*
G01*
X122150000Y-132600000D01*
G75*
G02*
X122050000Y-132500000I0J100000D01*
G01*
X122050000Y-131125000D01*
G75*
G02*
X122150000Y-131025000I100000J0D01*
G01*
G37*
G36*
G01*
X121650000Y-131025000D02*
X121850000Y-131025000D01*
G75*
G02*
X121950000Y-131125000I0J-100000D01*
G01*
X121950000Y-132500000D01*
G75*
G02*
X121850000Y-132600000I-100000J0D01*
G01*
X121650000Y-132600000D01*
G75*
G02*
X121550000Y-132500000I0J100000D01*
G01*
X121550000Y-131125000D01*
G75*
G02*
X121650000Y-131025000I100000J0D01*
G01*
G37*
G36*
G01*
X121150000Y-131025000D02*
X121350000Y-131025000D01*
G75*
G02*
X121450000Y-131125000I0J-100000D01*
G01*
X121450000Y-132500000D01*
G75*
G02*
X121350000Y-132600000I-100000J0D01*
G01*
X121150000Y-132600000D01*
G75*
G02*
X121050000Y-132500000I0J100000D01*
G01*
X121050000Y-131125000D01*
G75*
G02*
X121150000Y-131025000I100000J0D01*
G01*
G37*
G36*
G01*
X120650000Y-131025000D02*
X120850000Y-131025000D01*
G75*
G02*
X120950000Y-131125000I0J-100000D01*
G01*
X120950000Y-132500000D01*
G75*
G02*
X120850000Y-132600000I-100000J0D01*
G01*
X120650000Y-132600000D01*
G75*
G02*
X120550000Y-132500000I0J100000D01*
G01*
X120550000Y-131125000D01*
G75*
G02*
X120650000Y-131025000I100000J0D01*
G01*
G37*
G36*
G01*
X120150000Y-131025000D02*
X120350000Y-131025000D01*
G75*
G02*
X120450000Y-131125000I0J-100000D01*
G01*
X120450000Y-132500000D01*
G75*
G02*
X120350000Y-132600000I-100000J0D01*
G01*
X120150000Y-132600000D01*
G75*
G02*
X120050000Y-132500000I0J100000D01*
G01*
X120050000Y-131125000D01*
G75*
G02*
X120150000Y-131025000I100000J0D01*
G01*
G37*
G36*
G01*
X119650000Y-131025000D02*
X119850000Y-131025000D01*
G75*
G02*
X119950000Y-131125000I0J-100000D01*
G01*
X119950000Y-132500000D01*
G75*
G02*
X119850000Y-132600000I-100000J0D01*
G01*
X119650000Y-132600000D01*
G75*
G02*
X119550000Y-132500000I0J100000D01*
G01*
X119550000Y-131125000D01*
G75*
G02*
X119650000Y-131025000I100000J0D01*
G01*
G37*
G36*
G01*
X119150000Y-131025000D02*
X119350000Y-131025000D01*
G75*
G02*
X119450000Y-131125000I0J-100000D01*
G01*
X119450000Y-132500000D01*
G75*
G02*
X119350000Y-132600000I-100000J0D01*
G01*
X119150000Y-132600000D01*
G75*
G02*
X119050000Y-132500000I0J100000D01*
G01*
X119050000Y-131125000D01*
G75*
G02*
X119150000Y-131025000I100000J0D01*
G01*
G37*
G36*
G01*
X118650000Y-131025000D02*
X118850000Y-131025000D01*
G75*
G02*
X118950000Y-131125000I0J-100000D01*
G01*
X118950000Y-132500000D01*
G75*
G02*
X118850000Y-132600000I-100000J0D01*
G01*
X118650000Y-132600000D01*
G75*
G02*
X118550000Y-132500000I0J100000D01*
G01*
X118550000Y-131125000D01*
G75*
G02*
X118650000Y-131025000I100000J0D01*
G01*
G37*
G36*
G01*
X118150000Y-131025000D02*
X118350000Y-131025000D01*
G75*
G02*
X118450000Y-131125000I0J-100000D01*
G01*
X118450000Y-132500000D01*
G75*
G02*
X118350000Y-132600000I-100000J0D01*
G01*
X118150000Y-132600000D01*
G75*
G02*
X118050000Y-132500000I0J100000D01*
G01*
X118050000Y-131125000D01*
G75*
G02*
X118150000Y-131025000I100000J0D01*
G01*
G37*
G36*
G01*
X117650000Y-131025000D02*
X117850000Y-131025000D01*
G75*
G02*
X117950000Y-131125000I0J-100000D01*
G01*
X117950000Y-132500000D01*
G75*
G02*
X117850000Y-132600000I-100000J0D01*
G01*
X117650000Y-132600000D01*
G75*
G02*
X117550000Y-132500000I0J100000D01*
G01*
X117550000Y-131125000D01*
G75*
G02*
X117650000Y-131025000I100000J0D01*
G01*
G37*
G36*
G01*
X117150000Y-131025000D02*
X117350000Y-131025000D01*
G75*
G02*
X117450000Y-131125000I0J-100000D01*
G01*
X117450000Y-132500000D01*
G75*
G02*
X117350000Y-132600000I-100000J0D01*
G01*
X117150000Y-132600000D01*
G75*
G02*
X117050000Y-132500000I0J100000D01*
G01*
X117050000Y-131125000D01*
G75*
G02*
X117150000Y-131025000I100000J0D01*
G01*
G37*
G36*
G01*
X115150000Y-130200000D02*
X116525000Y-130200000D01*
G75*
G02*
X116625000Y-130300000I0J-100000D01*
G01*
X116625000Y-130500000D01*
G75*
G02*
X116525000Y-130600000I-100000J0D01*
G01*
X115150000Y-130600000D01*
G75*
G02*
X115050000Y-130500000I0J100000D01*
G01*
X115050000Y-130300000D01*
G75*
G02*
X115150000Y-130200000I100000J0D01*
G01*
G37*
G36*
G01*
X115150000Y-129700000D02*
X116525000Y-129700000D01*
G75*
G02*
X116625000Y-129800000I0J-100000D01*
G01*
X116625000Y-130000000D01*
G75*
G02*
X116525000Y-130100000I-100000J0D01*
G01*
X115150000Y-130100000D01*
G75*
G02*
X115050000Y-130000000I0J100000D01*
G01*
X115050000Y-129800000D01*
G75*
G02*
X115150000Y-129700000I100000J0D01*
G01*
G37*
G36*
G01*
X115150000Y-129200000D02*
X116525000Y-129200000D01*
G75*
G02*
X116625000Y-129300000I0J-100000D01*
G01*
X116625000Y-129500000D01*
G75*
G02*
X116525000Y-129600000I-100000J0D01*
G01*
X115150000Y-129600000D01*
G75*
G02*
X115050000Y-129500000I0J100000D01*
G01*
X115050000Y-129300000D01*
G75*
G02*
X115150000Y-129200000I100000J0D01*
G01*
G37*
G36*
G01*
X115150000Y-128700000D02*
X116525000Y-128700000D01*
G75*
G02*
X116625000Y-128800000I0J-100000D01*
G01*
X116625000Y-129000000D01*
G75*
G02*
X116525000Y-129100000I-100000J0D01*
G01*
X115150000Y-129100000D01*
G75*
G02*
X115050000Y-129000000I0J100000D01*
G01*
X115050000Y-128800000D01*
G75*
G02*
X115150000Y-128700000I100000J0D01*
G01*
G37*
G36*
G01*
X115150000Y-128200000D02*
X116525000Y-128200000D01*
G75*
G02*
X116625000Y-128300000I0J-100000D01*
G01*
X116625000Y-128500000D01*
G75*
G02*
X116525000Y-128600000I-100000J0D01*
G01*
X115150000Y-128600000D01*
G75*
G02*
X115050000Y-128500000I0J100000D01*
G01*
X115050000Y-128300000D01*
G75*
G02*
X115150000Y-128200000I100000J0D01*
G01*
G37*
G36*
G01*
X115150000Y-127700000D02*
X116525000Y-127700000D01*
G75*
G02*
X116625000Y-127800000I0J-100000D01*
G01*
X116625000Y-128000000D01*
G75*
G02*
X116525000Y-128100000I-100000J0D01*
G01*
X115150000Y-128100000D01*
G75*
G02*
X115050000Y-128000000I0J100000D01*
G01*
X115050000Y-127800000D01*
G75*
G02*
X115150000Y-127700000I100000J0D01*
G01*
G37*
G36*
G01*
X115150000Y-127200000D02*
X116525000Y-127200000D01*
G75*
G02*
X116625000Y-127300000I0J-100000D01*
G01*
X116625000Y-127500000D01*
G75*
G02*
X116525000Y-127600000I-100000J0D01*
G01*
X115150000Y-127600000D01*
G75*
G02*
X115050000Y-127500000I0J100000D01*
G01*
X115050000Y-127300000D01*
G75*
G02*
X115150000Y-127200000I100000J0D01*
G01*
G37*
G36*
G01*
X115150000Y-126700000D02*
X116525000Y-126700000D01*
G75*
G02*
X116625000Y-126800000I0J-100000D01*
G01*
X116625000Y-127000000D01*
G75*
G02*
X116525000Y-127100000I-100000J0D01*
G01*
X115150000Y-127100000D01*
G75*
G02*
X115050000Y-127000000I0J100000D01*
G01*
X115050000Y-126800000D01*
G75*
G02*
X115150000Y-126700000I100000J0D01*
G01*
G37*
G36*
G01*
X115150000Y-126200000D02*
X116525000Y-126200000D01*
G75*
G02*
X116625000Y-126300000I0J-100000D01*
G01*
X116625000Y-126500000D01*
G75*
G02*
X116525000Y-126600000I-100000J0D01*
G01*
X115150000Y-126600000D01*
G75*
G02*
X115050000Y-126500000I0J100000D01*
G01*
X115050000Y-126300000D01*
G75*
G02*
X115150000Y-126200000I100000J0D01*
G01*
G37*
G36*
G01*
X115150000Y-125700000D02*
X116525000Y-125700000D01*
G75*
G02*
X116625000Y-125800000I0J-100000D01*
G01*
X116625000Y-126000000D01*
G75*
G02*
X116525000Y-126100000I-100000J0D01*
G01*
X115150000Y-126100000D01*
G75*
G02*
X115050000Y-126000000I0J100000D01*
G01*
X115050000Y-125800000D01*
G75*
G02*
X115150000Y-125700000I100000J0D01*
G01*
G37*
G36*
G01*
X115150000Y-125200000D02*
X116525000Y-125200000D01*
G75*
G02*
X116625000Y-125300000I0J-100000D01*
G01*
X116625000Y-125500000D01*
G75*
G02*
X116525000Y-125600000I-100000J0D01*
G01*
X115150000Y-125600000D01*
G75*
G02*
X115050000Y-125500000I0J100000D01*
G01*
X115050000Y-125300000D01*
G75*
G02*
X115150000Y-125200000I100000J0D01*
G01*
G37*
G36*
G01*
X115150000Y-124700000D02*
X116525000Y-124700000D01*
G75*
G02*
X116625000Y-124800000I0J-100000D01*
G01*
X116625000Y-125000000D01*
G75*
G02*
X116525000Y-125100000I-100000J0D01*
G01*
X115150000Y-125100000D01*
G75*
G02*
X115050000Y-125000000I0J100000D01*
G01*
X115050000Y-124800000D01*
G75*
G02*
X115150000Y-124700000I100000J0D01*
G01*
G37*
G36*
G01*
X117150000Y-122700000D02*
X117350000Y-122700000D01*
G75*
G02*
X117450000Y-122800000I0J-100000D01*
G01*
X117450000Y-124175000D01*
G75*
G02*
X117350000Y-124275000I-100000J0D01*
G01*
X117150000Y-124275000D01*
G75*
G02*
X117050000Y-124175000I0J100000D01*
G01*
X117050000Y-122800000D01*
G75*
G02*
X117150000Y-122700000I100000J0D01*
G01*
G37*
G36*
G01*
X117650000Y-122700000D02*
X117850000Y-122700000D01*
G75*
G02*
X117950000Y-122800000I0J-100000D01*
G01*
X117950000Y-124175000D01*
G75*
G02*
X117850000Y-124275000I-100000J0D01*
G01*
X117650000Y-124275000D01*
G75*
G02*
X117550000Y-124175000I0J100000D01*
G01*
X117550000Y-122800000D01*
G75*
G02*
X117650000Y-122700000I100000J0D01*
G01*
G37*
G36*
G01*
X118150000Y-122700000D02*
X118350000Y-122700000D01*
G75*
G02*
X118450000Y-122800000I0J-100000D01*
G01*
X118450000Y-124175000D01*
G75*
G02*
X118350000Y-124275000I-100000J0D01*
G01*
X118150000Y-124275000D01*
G75*
G02*
X118050000Y-124175000I0J100000D01*
G01*
X118050000Y-122800000D01*
G75*
G02*
X118150000Y-122700000I100000J0D01*
G01*
G37*
G36*
G01*
X118650000Y-122700000D02*
X118850000Y-122700000D01*
G75*
G02*
X118950000Y-122800000I0J-100000D01*
G01*
X118950000Y-124175000D01*
G75*
G02*
X118850000Y-124275000I-100000J0D01*
G01*
X118650000Y-124275000D01*
G75*
G02*
X118550000Y-124175000I0J100000D01*
G01*
X118550000Y-122800000D01*
G75*
G02*
X118650000Y-122700000I100000J0D01*
G01*
G37*
G36*
G01*
X119150000Y-122700000D02*
X119350000Y-122700000D01*
G75*
G02*
X119450000Y-122800000I0J-100000D01*
G01*
X119450000Y-124175000D01*
G75*
G02*
X119350000Y-124275000I-100000J0D01*
G01*
X119150000Y-124275000D01*
G75*
G02*
X119050000Y-124175000I0J100000D01*
G01*
X119050000Y-122800000D01*
G75*
G02*
X119150000Y-122700000I100000J0D01*
G01*
G37*
G36*
G01*
X119650000Y-122700000D02*
X119850000Y-122700000D01*
G75*
G02*
X119950000Y-122800000I0J-100000D01*
G01*
X119950000Y-124175000D01*
G75*
G02*
X119850000Y-124275000I-100000J0D01*
G01*
X119650000Y-124275000D01*
G75*
G02*
X119550000Y-124175000I0J100000D01*
G01*
X119550000Y-122800000D01*
G75*
G02*
X119650000Y-122700000I100000J0D01*
G01*
G37*
G36*
G01*
X120150000Y-122700000D02*
X120350000Y-122700000D01*
G75*
G02*
X120450000Y-122800000I0J-100000D01*
G01*
X120450000Y-124175000D01*
G75*
G02*
X120350000Y-124275000I-100000J0D01*
G01*
X120150000Y-124275000D01*
G75*
G02*
X120050000Y-124175000I0J100000D01*
G01*
X120050000Y-122800000D01*
G75*
G02*
X120150000Y-122700000I100000J0D01*
G01*
G37*
G36*
G01*
X120650000Y-122700000D02*
X120850000Y-122700000D01*
G75*
G02*
X120950000Y-122800000I0J-100000D01*
G01*
X120950000Y-124175000D01*
G75*
G02*
X120850000Y-124275000I-100000J0D01*
G01*
X120650000Y-124275000D01*
G75*
G02*
X120550000Y-124175000I0J100000D01*
G01*
X120550000Y-122800000D01*
G75*
G02*
X120650000Y-122700000I100000J0D01*
G01*
G37*
G36*
G01*
X121150000Y-122700000D02*
X121350000Y-122700000D01*
G75*
G02*
X121450000Y-122800000I0J-100000D01*
G01*
X121450000Y-124175000D01*
G75*
G02*
X121350000Y-124275000I-100000J0D01*
G01*
X121150000Y-124275000D01*
G75*
G02*
X121050000Y-124175000I0J100000D01*
G01*
X121050000Y-122800000D01*
G75*
G02*
X121150000Y-122700000I100000J0D01*
G01*
G37*
G36*
G01*
X121650000Y-122700000D02*
X121850000Y-122700000D01*
G75*
G02*
X121950000Y-122800000I0J-100000D01*
G01*
X121950000Y-124175000D01*
G75*
G02*
X121850000Y-124275000I-100000J0D01*
G01*
X121650000Y-124275000D01*
G75*
G02*
X121550000Y-124175000I0J100000D01*
G01*
X121550000Y-122800000D01*
G75*
G02*
X121650000Y-122700000I100000J0D01*
G01*
G37*
G36*
G01*
X122150000Y-122700000D02*
X122350000Y-122700000D01*
G75*
G02*
X122450000Y-122800000I0J-100000D01*
G01*
X122450000Y-124175000D01*
G75*
G02*
X122350000Y-124275000I-100000J0D01*
G01*
X122150000Y-124275000D01*
G75*
G02*
X122050000Y-124175000I0J100000D01*
G01*
X122050000Y-122800000D01*
G75*
G02*
X122150000Y-122700000I100000J0D01*
G01*
G37*
G36*
G01*
X122650000Y-122700000D02*
X122850000Y-122700000D01*
G75*
G02*
X122950000Y-122800000I0J-100000D01*
G01*
X122950000Y-124175000D01*
G75*
G02*
X122850000Y-124275000I-100000J0D01*
G01*
X122650000Y-124275000D01*
G75*
G02*
X122550000Y-124175000I0J100000D01*
G01*
X122550000Y-122800000D01*
G75*
G02*
X122650000Y-122700000I100000J0D01*
G01*
G37*
%TD*%
%TO.C,U3*%
G36*
G01*
X130425000Y-123650000D02*
X130425000Y-123900000D01*
G75*
G02*
X130300000Y-124025000I-125000J0D01*
G01*
X128975000Y-124025000D01*
G75*
G02*
X128850000Y-123900000I0J125000D01*
G01*
X128850000Y-123650000D01*
G75*
G02*
X128975000Y-123525000I125000J0D01*
G01*
X130300000Y-123525000D01*
G75*
G02*
X130425000Y-123650000I0J-125000D01*
G01*
G37*
G36*
G01*
X130425000Y-123000000D02*
X130425000Y-123250000D01*
G75*
G02*
X130300000Y-123375000I-125000J0D01*
G01*
X128975000Y-123375000D01*
G75*
G02*
X128850000Y-123250000I0J125000D01*
G01*
X128850000Y-123000000D01*
G75*
G02*
X128975000Y-122875000I125000J0D01*
G01*
X130300000Y-122875000D01*
G75*
G02*
X130425000Y-123000000I0J-125000D01*
G01*
G37*
G36*
G01*
X130425000Y-122350000D02*
X130425000Y-122600000D01*
G75*
G02*
X130300000Y-122725000I-125000J0D01*
G01*
X128975000Y-122725000D01*
G75*
G02*
X128850000Y-122600000I0J125000D01*
G01*
X128850000Y-122350000D01*
G75*
G02*
X128975000Y-122225000I125000J0D01*
G01*
X130300000Y-122225000D01*
G75*
G02*
X130425000Y-122350000I0J-125000D01*
G01*
G37*
G36*
G01*
X130425000Y-121700000D02*
X130425000Y-121950000D01*
G75*
G02*
X130300000Y-122075000I-125000J0D01*
G01*
X128975000Y-122075000D01*
G75*
G02*
X128850000Y-121950000I0J125000D01*
G01*
X128850000Y-121700000D01*
G75*
G02*
X128975000Y-121575000I125000J0D01*
G01*
X130300000Y-121575000D01*
G75*
G02*
X130425000Y-121700000I0J-125000D01*
G01*
G37*
G36*
G01*
X130425000Y-121050000D02*
X130425000Y-121300000D01*
G75*
G02*
X130300000Y-121425000I-125000J0D01*
G01*
X128975000Y-121425000D01*
G75*
G02*
X128850000Y-121300000I0J125000D01*
G01*
X128850000Y-121050000D01*
G75*
G02*
X128975000Y-120925000I125000J0D01*
G01*
X130300000Y-120925000D01*
G75*
G02*
X130425000Y-121050000I0J-125000D01*
G01*
G37*
G36*
G01*
X130425000Y-120400000D02*
X130425000Y-120650000D01*
G75*
G02*
X130300000Y-120775000I-125000J0D01*
G01*
X128975000Y-120775000D01*
G75*
G02*
X128850000Y-120650000I0J125000D01*
G01*
X128850000Y-120400000D01*
G75*
G02*
X128975000Y-120275000I125000J0D01*
G01*
X130300000Y-120275000D01*
G75*
G02*
X130425000Y-120400000I0J-125000D01*
G01*
G37*
G36*
G01*
X130425000Y-119750000D02*
X130425000Y-120000000D01*
G75*
G02*
X130300000Y-120125000I-125000J0D01*
G01*
X128975000Y-120125000D01*
G75*
G02*
X128850000Y-120000000I0J125000D01*
G01*
X128850000Y-119750000D01*
G75*
G02*
X128975000Y-119625000I125000J0D01*
G01*
X130300000Y-119625000D01*
G75*
G02*
X130425000Y-119750000I0J-125000D01*
G01*
G37*
G36*
G01*
X130425000Y-119100000D02*
X130425000Y-119350000D01*
G75*
G02*
X130300000Y-119475000I-125000J0D01*
G01*
X128975000Y-119475000D01*
G75*
G02*
X128850000Y-119350000I0J125000D01*
G01*
X128850000Y-119100000D01*
G75*
G02*
X128975000Y-118975000I125000J0D01*
G01*
X130300000Y-118975000D01*
G75*
G02*
X130425000Y-119100000I0J-125000D01*
G01*
G37*
G36*
G01*
X136150000Y-119100000D02*
X136150000Y-119350000D01*
G75*
G02*
X136025000Y-119475000I-125000J0D01*
G01*
X134700000Y-119475000D01*
G75*
G02*
X134575000Y-119350000I0J125000D01*
G01*
X134575000Y-119100000D01*
G75*
G02*
X134700000Y-118975000I125000J0D01*
G01*
X136025000Y-118975000D01*
G75*
G02*
X136150000Y-119100000I0J-125000D01*
G01*
G37*
G36*
G01*
X136150000Y-119750000D02*
X136150000Y-120000000D01*
G75*
G02*
X136025000Y-120125000I-125000J0D01*
G01*
X134700000Y-120125000D01*
G75*
G02*
X134575000Y-120000000I0J125000D01*
G01*
X134575000Y-119750000D01*
G75*
G02*
X134700000Y-119625000I125000J0D01*
G01*
X136025000Y-119625000D01*
G75*
G02*
X136150000Y-119750000I0J-125000D01*
G01*
G37*
G36*
G01*
X136150000Y-120400000D02*
X136150000Y-120650000D01*
G75*
G02*
X136025000Y-120775000I-125000J0D01*
G01*
X134700000Y-120775000D01*
G75*
G02*
X134575000Y-120650000I0J125000D01*
G01*
X134575000Y-120400000D01*
G75*
G02*
X134700000Y-120275000I125000J0D01*
G01*
X136025000Y-120275000D01*
G75*
G02*
X136150000Y-120400000I0J-125000D01*
G01*
G37*
G36*
G01*
X136150000Y-121050000D02*
X136150000Y-121300000D01*
G75*
G02*
X136025000Y-121425000I-125000J0D01*
G01*
X134700000Y-121425000D01*
G75*
G02*
X134575000Y-121300000I0J125000D01*
G01*
X134575000Y-121050000D01*
G75*
G02*
X134700000Y-120925000I125000J0D01*
G01*
X136025000Y-120925000D01*
G75*
G02*
X136150000Y-121050000I0J-125000D01*
G01*
G37*
G36*
G01*
X136150000Y-121700000D02*
X136150000Y-121950000D01*
G75*
G02*
X136025000Y-122075000I-125000J0D01*
G01*
X134700000Y-122075000D01*
G75*
G02*
X134575000Y-121950000I0J125000D01*
G01*
X134575000Y-121700000D01*
G75*
G02*
X134700000Y-121575000I125000J0D01*
G01*
X136025000Y-121575000D01*
G75*
G02*
X136150000Y-121700000I0J-125000D01*
G01*
G37*
G36*
G01*
X136150000Y-122350000D02*
X136150000Y-122600000D01*
G75*
G02*
X136025000Y-122725000I-125000J0D01*
G01*
X134700000Y-122725000D01*
G75*
G02*
X134575000Y-122600000I0J125000D01*
G01*
X134575000Y-122350000D01*
G75*
G02*
X134700000Y-122225000I125000J0D01*
G01*
X136025000Y-122225000D01*
G75*
G02*
X136150000Y-122350000I0J-125000D01*
G01*
G37*
G36*
G01*
X136150000Y-123000000D02*
X136150000Y-123250000D01*
G75*
G02*
X136025000Y-123375000I-125000J0D01*
G01*
X134700000Y-123375000D01*
G75*
G02*
X134575000Y-123250000I0J125000D01*
G01*
X134575000Y-123000000D01*
G75*
G02*
X134700000Y-122875000I125000J0D01*
G01*
X136025000Y-122875000D01*
G75*
G02*
X136150000Y-123000000I0J-125000D01*
G01*
G37*
G36*
G01*
X136150000Y-123650000D02*
X136150000Y-123900000D01*
G75*
G02*
X136025000Y-124025000I-125000J0D01*
G01*
X134700000Y-124025000D01*
G75*
G02*
X134575000Y-123900000I0J125000D01*
G01*
X134575000Y-123650000D01*
G75*
G02*
X134700000Y-123525000I125000J0D01*
G01*
X136025000Y-123525000D01*
G75*
G02*
X136150000Y-123650000I0J-125000D01*
G01*
G37*
%TD*%
D16*
%TO.C,U2*%
X132500000Y-129500000D03*
G36*
G01*
X131050000Y-131230000D02*
X131050000Y-131580000D01*
G75*
G02*
X130875000Y-131755000I-175000J0D01*
G01*
X129175000Y-131755000D01*
G75*
G02*
X129000000Y-131580000I0J175000D01*
G01*
X129000000Y-131230000D01*
G75*
G02*
X129175000Y-131055000I175000J0D01*
G01*
X130875000Y-131055000D01*
G75*
G02*
X131050000Y-131230000I0J-175000D01*
G01*
G37*
G36*
G01*
X131050000Y-129960000D02*
X131050000Y-130310000D01*
G75*
G02*
X130875000Y-130485000I-175000J0D01*
G01*
X129175000Y-130485000D01*
G75*
G02*
X129000000Y-130310000I0J175000D01*
G01*
X129000000Y-129960000D01*
G75*
G02*
X129175000Y-129785000I175000J0D01*
G01*
X130875000Y-129785000D01*
G75*
G02*
X131050000Y-129960000I0J-175000D01*
G01*
G37*
G36*
G01*
X131050000Y-128690000D02*
X131050000Y-129040000D01*
G75*
G02*
X130875000Y-129215000I-175000J0D01*
G01*
X129175000Y-129215000D01*
G75*
G02*
X129000000Y-129040000I0J175000D01*
G01*
X129000000Y-128690000D01*
G75*
G02*
X129175000Y-128515000I175000J0D01*
G01*
X130875000Y-128515000D01*
G75*
G02*
X131050000Y-128690000I0J-175000D01*
G01*
G37*
G36*
G01*
X131050000Y-127420000D02*
X131050000Y-127770000D01*
G75*
G02*
X130875000Y-127945000I-175000J0D01*
G01*
X129175000Y-127945000D01*
G75*
G02*
X129000000Y-127770000I0J175000D01*
G01*
X129000000Y-127420000D01*
G75*
G02*
X129175000Y-127245000I175000J0D01*
G01*
X130875000Y-127245000D01*
G75*
G02*
X131050000Y-127420000I0J-175000D01*
G01*
G37*
G36*
G01*
X136000000Y-127420000D02*
X136000000Y-127770000D01*
G75*
G02*
X135825000Y-127945000I-175000J0D01*
G01*
X134125000Y-127945000D01*
G75*
G02*
X133950000Y-127770000I0J175000D01*
G01*
X133950000Y-127420000D01*
G75*
G02*
X134125000Y-127245000I175000J0D01*
G01*
X135825000Y-127245000D01*
G75*
G02*
X136000000Y-127420000I0J-175000D01*
G01*
G37*
G36*
G01*
X136000000Y-128690000D02*
X136000000Y-129040000D01*
G75*
G02*
X135825000Y-129215000I-175000J0D01*
G01*
X134125000Y-129215000D01*
G75*
G02*
X133950000Y-129040000I0J175000D01*
G01*
X133950000Y-128690000D01*
G75*
G02*
X134125000Y-128515000I175000J0D01*
G01*
X135825000Y-128515000D01*
G75*
G02*
X136000000Y-128690000I0J-175000D01*
G01*
G37*
G36*
G01*
X136000000Y-129960000D02*
X136000000Y-130310000D01*
G75*
G02*
X135825000Y-130485000I-175000J0D01*
G01*
X134125000Y-130485000D01*
G75*
G02*
X133950000Y-130310000I0J175000D01*
G01*
X133950000Y-129960000D01*
G75*
G02*
X134125000Y-129785000I175000J0D01*
G01*
X135825000Y-129785000D01*
G75*
G02*
X136000000Y-129960000I0J-175000D01*
G01*
G37*
G36*
G01*
X136000000Y-131230000D02*
X136000000Y-131580000D01*
G75*
G02*
X135825000Y-131755000I-175000J0D01*
G01*
X134125000Y-131755000D01*
G75*
G02*
X133950000Y-131580000I0J175000D01*
G01*
X133950000Y-131230000D01*
G75*
G02*
X134125000Y-131055000I175000J0D01*
G01*
X135825000Y-131055000D01*
G75*
G02*
X136000000Y-131230000I0J-175000D01*
G01*
G37*
%TD*%
%TO.C,U1*%
G36*
G01*
X109575000Y-119350000D02*
X109575000Y-119100000D01*
G75*
G02*
X109700000Y-118975000I125000J0D01*
G01*
X111025000Y-118975000D01*
G75*
G02*
X111150000Y-119100000I0J-125000D01*
G01*
X111150000Y-119350000D01*
G75*
G02*
X111025000Y-119475000I-125000J0D01*
G01*
X109700000Y-119475000D01*
G75*
G02*
X109575000Y-119350000I0J125000D01*
G01*
G37*
G36*
G01*
X109575000Y-120000000D02*
X109575000Y-119750000D01*
G75*
G02*
X109700000Y-119625000I125000J0D01*
G01*
X111025000Y-119625000D01*
G75*
G02*
X111150000Y-119750000I0J-125000D01*
G01*
X111150000Y-120000000D01*
G75*
G02*
X111025000Y-120125000I-125000J0D01*
G01*
X109700000Y-120125000D01*
G75*
G02*
X109575000Y-120000000I0J125000D01*
G01*
G37*
G36*
G01*
X109575000Y-120650000D02*
X109575000Y-120400000D01*
G75*
G02*
X109700000Y-120275000I125000J0D01*
G01*
X111025000Y-120275000D01*
G75*
G02*
X111150000Y-120400000I0J-125000D01*
G01*
X111150000Y-120650000D01*
G75*
G02*
X111025000Y-120775000I-125000J0D01*
G01*
X109700000Y-120775000D01*
G75*
G02*
X109575000Y-120650000I0J125000D01*
G01*
G37*
G36*
G01*
X109575000Y-121300000D02*
X109575000Y-121050000D01*
G75*
G02*
X109700000Y-120925000I125000J0D01*
G01*
X111025000Y-120925000D01*
G75*
G02*
X111150000Y-121050000I0J-125000D01*
G01*
X111150000Y-121300000D01*
G75*
G02*
X111025000Y-121425000I-125000J0D01*
G01*
X109700000Y-121425000D01*
G75*
G02*
X109575000Y-121300000I0J125000D01*
G01*
G37*
G36*
G01*
X109575000Y-121950000D02*
X109575000Y-121700000D01*
G75*
G02*
X109700000Y-121575000I125000J0D01*
G01*
X111025000Y-121575000D01*
G75*
G02*
X111150000Y-121700000I0J-125000D01*
G01*
X111150000Y-121950000D01*
G75*
G02*
X111025000Y-122075000I-125000J0D01*
G01*
X109700000Y-122075000D01*
G75*
G02*
X109575000Y-121950000I0J125000D01*
G01*
G37*
G36*
G01*
X109575000Y-122600000D02*
X109575000Y-122350000D01*
G75*
G02*
X109700000Y-122225000I125000J0D01*
G01*
X111025000Y-122225000D01*
G75*
G02*
X111150000Y-122350000I0J-125000D01*
G01*
X111150000Y-122600000D01*
G75*
G02*
X111025000Y-122725000I-125000J0D01*
G01*
X109700000Y-122725000D01*
G75*
G02*
X109575000Y-122600000I0J125000D01*
G01*
G37*
G36*
G01*
X109575000Y-123250000D02*
X109575000Y-123000000D01*
G75*
G02*
X109700000Y-122875000I125000J0D01*
G01*
X111025000Y-122875000D01*
G75*
G02*
X111150000Y-123000000I0J-125000D01*
G01*
X111150000Y-123250000D01*
G75*
G02*
X111025000Y-123375000I-125000J0D01*
G01*
X109700000Y-123375000D01*
G75*
G02*
X109575000Y-123250000I0J125000D01*
G01*
G37*
G36*
G01*
X109575000Y-123900000D02*
X109575000Y-123650000D01*
G75*
G02*
X109700000Y-123525000I125000J0D01*
G01*
X111025000Y-123525000D01*
G75*
G02*
X111150000Y-123650000I0J-125000D01*
G01*
X111150000Y-123900000D01*
G75*
G02*
X111025000Y-124025000I-125000J0D01*
G01*
X109700000Y-124025000D01*
G75*
G02*
X109575000Y-123900000I0J125000D01*
G01*
G37*
G36*
G01*
X103850000Y-123900000D02*
X103850000Y-123650000D01*
G75*
G02*
X103975000Y-123525000I125000J0D01*
G01*
X105300000Y-123525000D01*
G75*
G02*
X105425000Y-123650000I0J-125000D01*
G01*
X105425000Y-123900000D01*
G75*
G02*
X105300000Y-124025000I-125000J0D01*
G01*
X103975000Y-124025000D01*
G75*
G02*
X103850000Y-123900000I0J125000D01*
G01*
G37*
G36*
G01*
X103850000Y-123250000D02*
X103850000Y-123000000D01*
G75*
G02*
X103975000Y-122875000I125000J0D01*
G01*
X105300000Y-122875000D01*
G75*
G02*
X105425000Y-123000000I0J-125000D01*
G01*
X105425000Y-123250000D01*
G75*
G02*
X105300000Y-123375000I-125000J0D01*
G01*
X103975000Y-123375000D01*
G75*
G02*
X103850000Y-123250000I0J125000D01*
G01*
G37*
G36*
G01*
X103850000Y-122600000D02*
X103850000Y-122350000D01*
G75*
G02*
X103975000Y-122225000I125000J0D01*
G01*
X105300000Y-122225000D01*
G75*
G02*
X105425000Y-122350000I0J-125000D01*
G01*
X105425000Y-122600000D01*
G75*
G02*
X105300000Y-122725000I-125000J0D01*
G01*
X103975000Y-122725000D01*
G75*
G02*
X103850000Y-122600000I0J125000D01*
G01*
G37*
G36*
G01*
X103850000Y-121950000D02*
X103850000Y-121700000D01*
G75*
G02*
X103975000Y-121575000I125000J0D01*
G01*
X105300000Y-121575000D01*
G75*
G02*
X105425000Y-121700000I0J-125000D01*
G01*
X105425000Y-121950000D01*
G75*
G02*
X105300000Y-122075000I-125000J0D01*
G01*
X103975000Y-122075000D01*
G75*
G02*
X103850000Y-121950000I0J125000D01*
G01*
G37*
G36*
G01*
X103850000Y-121300000D02*
X103850000Y-121050000D01*
G75*
G02*
X103975000Y-120925000I125000J0D01*
G01*
X105300000Y-120925000D01*
G75*
G02*
X105425000Y-121050000I0J-125000D01*
G01*
X105425000Y-121300000D01*
G75*
G02*
X105300000Y-121425000I-125000J0D01*
G01*
X103975000Y-121425000D01*
G75*
G02*
X103850000Y-121300000I0J125000D01*
G01*
G37*
G36*
G01*
X103850000Y-120650000D02*
X103850000Y-120400000D01*
G75*
G02*
X103975000Y-120275000I125000J0D01*
G01*
X105300000Y-120275000D01*
G75*
G02*
X105425000Y-120400000I0J-125000D01*
G01*
X105425000Y-120650000D01*
G75*
G02*
X105300000Y-120775000I-125000J0D01*
G01*
X103975000Y-120775000D01*
G75*
G02*
X103850000Y-120650000I0J125000D01*
G01*
G37*
G36*
G01*
X103850000Y-120000000D02*
X103850000Y-119750000D01*
G75*
G02*
X103975000Y-119625000I125000J0D01*
G01*
X105300000Y-119625000D01*
G75*
G02*
X105425000Y-119750000I0J-125000D01*
G01*
X105425000Y-120000000D01*
G75*
G02*
X105300000Y-120125000I-125000J0D01*
G01*
X103975000Y-120125000D01*
G75*
G02*
X103850000Y-120000000I0J125000D01*
G01*
G37*
G36*
G01*
X103850000Y-119350000D02*
X103850000Y-119100000D01*
G75*
G02*
X103975000Y-118975000I125000J0D01*
G01*
X105300000Y-118975000D01*
G75*
G02*
X105425000Y-119100000I0J-125000D01*
G01*
X105425000Y-119350000D01*
G75*
G02*
X105300000Y-119475000I-125000J0D01*
G01*
X103975000Y-119475000D01*
G75*
G02*
X103850000Y-119350000I0J125000D01*
G01*
G37*
%TD*%
D17*
%TO.C,SW1*%
X107950000Y-142700000D03*
X111350000Y-142700000D03*
%TD*%
%TO.C,R16*%
G36*
G01*
X120787500Y-134950000D02*
X121312500Y-134950000D01*
G75*
G02*
X121575000Y-135212500I0J-262500D01*
G01*
X121575000Y-135837500D01*
G75*
G02*
X121312500Y-136100000I-262500J0D01*
G01*
X120787500Y-136100000D01*
G75*
G02*
X120525000Y-135837500I0J262500D01*
G01*
X120525000Y-135212500D01*
G75*
G02*
X120787500Y-134950000I262500J0D01*
G01*
G37*
G36*
G01*
X120787500Y-133200000D02*
X121312500Y-133200000D01*
G75*
G02*
X121575000Y-133462500I0J-262500D01*
G01*
X121575000Y-134087500D01*
G75*
G02*
X121312500Y-134350000I-262500J0D01*
G01*
X120787500Y-134350000D01*
G75*
G02*
X120525000Y-134087500I0J262500D01*
G01*
X120525000Y-133462500D01*
G75*
G02*
X120787500Y-133200000I262500J0D01*
G01*
G37*
%TD*%
%TO.C,R15*%
G36*
G01*
X119712500Y-134350000D02*
X119187500Y-134350000D01*
G75*
G02*
X118925000Y-134087500I0J262500D01*
G01*
X118925000Y-133462500D01*
G75*
G02*
X119187500Y-133200000I262500J0D01*
G01*
X119712500Y-133200000D01*
G75*
G02*
X119975000Y-133462500I0J-262500D01*
G01*
X119975000Y-134087500D01*
G75*
G02*
X119712500Y-134350000I-262500J0D01*
G01*
G37*
G36*
G01*
X119712500Y-136100000D02*
X119187500Y-136100000D01*
G75*
G02*
X118925000Y-135837500I0J262500D01*
G01*
X118925000Y-135212500D01*
G75*
G02*
X119187500Y-134950000I262500J0D01*
G01*
X119712500Y-134950000D01*
G75*
G02*
X119975000Y-135212500I0J-262500D01*
G01*
X119975000Y-135837500D01*
G75*
G02*
X119712500Y-136100000I-262500J0D01*
G01*
G37*
%TD*%
%TO.C,R10*%
G36*
G01*
X104650000Y-133037500D02*
X104650000Y-133562500D01*
G75*
G02*
X104387500Y-133825000I-262500J0D01*
G01*
X103762500Y-133825000D01*
G75*
G02*
X103500000Y-133562500I0J262500D01*
G01*
X103500000Y-133037500D01*
G75*
G02*
X103762500Y-132775000I262500J0D01*
G01*
X104387500Y-132775000D01*
G75*
G02*
X104650000Y-133037500I0J-262500D01*
G01*
G37*
G36*
G01*
X106400000Y-133037500D02*
X106400000Y-133562500D01*
G75*
G02*
X106137500Y-133825000I-262500J0D01*
G01*
X105512500Y-133825000D01*
G75*
G02*
X105250000Y-133562500I0J262500D01*
G01*
X105250000Y-133037500D01*
G75*
G02*
X105512500Y-132775000I262500J0D01*
G01*
X106137500Y-132775000D01*
G75*
G02*
X106400000Y-133037500I0J-262500D01*
G01*
G37*
%TD*%
%TO.C,R9*%
G36*
G01*
X105250000Y-135278000D02*
X105250000Y-134753000D01*
G75*
G02*
X105512500Y-134490500I262500J0D01*
G01*
X106137500Y-134490500D01*
G75*
G02*
X106400000Y-134753000I0J-262500D01*
G01*
X106400000Y-135278000D01*
G75*
G02*
X106137500Y-135540500I-262500J0D01*
G01*
X105512500Y-135540500D01*
G75*
G02*
X105250000Y-135278000I0J262500D01*
G01*
G37*
G36*
G01*
X103500000Y-135278000D02*
X103500000Y-134753000D01*
G75*
G02*
X103762500Y-134490500I262500J0D01*
G01*
X104387500Y-134490500D01*
G75*
G02*
X104650000Y-134753000I0J-262500D01*
G01*
X104650000Y-135278000D01*
G75*
G02*
X104387500Y-135540500I-262500J0D01*
G01*
X103762500Y-135540500D01*
G75*
G02*
X103500000Y-135278000I0J262500D01*
G01*
G37*
%TD*%
%TO.C,R8*%
G36*
G01*
X111612500Y-116500000D02*
X111087500Y-116500000D01*
G75*
G02*
X110825000Y-116237500I0J262500D01*
G01*
X110825000Y-115612500D01*
G75*
G02*
X111087500Y-115350000I262500J0D01*
G01*
X111612500Y-115350000D01*
G75*
G02*
X111875000Y-115612500I0J-262500D01*
G01*
X111875000Y-116237500D01*
G75*
G02*
X111612500Y-116500000I-262500J0D01*
G01*
G37*
G36*
G01*
X111612500Y-118250000D02*
X111087500Y-118250000D01*
G75*
G02*
X110825000Y-117987500I0J262500D01*
G01*
X110825000Y-117362500D01*
G75*
G02*
X111087500Y-117100000I262500J0D01*
G01*
X111612500Y-117100000D01*
G75*
G02*
X111875000Y-117362500I0J-262500D01*
G01*
X111875000Y-117987500D01*
G75*
G02*
X111612500Y-118250000I-262500J0D01*
G01*
G37*
%TD*%
%TO.C,R7*%
G36*
G01*
X111087500Y-113450000D02*
X111612500Y-113450000D01*
G75*
G02*
X111875000Y-113712500I0J-262500D01*
G01*
X111875000Y-114337500D01*
G75*
G02*
X111612500Y-114600000I-262500J0D01*
G01*
X111087500Y-114600000D01*
G75*
G02*
X110825000Y-114337500I0J262500D01*
G01*
X110825000Y-113712500D01*
G75*
G02*
X111087500Y-113450000I262500J0D01*
G01*
G37*
G36*
G01*
X111087500Y-111700000D02*
X111612500Y-111700000D01*
G75*
G02*
X111875000Y-111962500I0J-262500D01*
G01*
X111875000Y-112587500D01*
G75*
G02*
X111612500Y-112850000I-262500J0D01*
G01*
X111087500Y-112850000D01*
G75*
G02*
X110825000Y-112587500I0J262500D01*
G01*
X110825000Y-111962500D01*
G75*
G02*
X111087500Y-111700000I262500J0D01*
G01*
G37*
%TD*%
%TO.C,R6*%
G36*
G01*
X125412500Y-119850000D02*
X124887500Y-119850000D01*
G75*
G02*
X124625000Y-119587500I0J262500D01*
G01*
X124625000Y-118962500D01*
G75*
G02*
X124887500Y-118700000I262500J0D01*
G01*
X125412500Y-118700000D01*
G75*
G02*
X125675000Y-118962500I0J-262500D01*
G01*
X125675000Y-119587500D01*
G75*
G02*
X125412500Y-119850000I-262500J0D01*
G01*
G37*
G36*
G01*
X125412500Y-121600000D02*
X124887500Y-121600000D01*
G75*
G02*
X124625000Y-121337500I0J262500D01*
G01*
X124625000Y-120712500D01*
G75*
G02*
X124887500Y-120450000I262500J0D01*
G01*
X125412500Y-120450000D01*
G75*
G02*
X125675000Y-120712500I0J-262500D01*
G01*
X125675000Y-121337500D01*
G75*
G02*
X125412500Y-121600000I-262500J0D01*
G01*
G37*
%TD*%
%TO.C,R5*%
G36*
G01*
X127962500Y-138675000D02*
X127437500Y-138675000D01*
G75*
G02*
X127175000Y-138412500I0J262500D01*
G01*
X127175000Y-137787500D01*
G75*
G02*
X127437500Y-137525000I262500J0D01*
G01*
X127962500Y-137525000D01*
G75*
G02*
X128225000Y-137787500I0J-262500D01*
G01*
X128225000Y-138412500D01*
G75*
G02*
X127962500Y-138675000I-262500J0D01*
G01*
G37*
G36*
G01*
X127962500Y-140425000D02*
X127437500Y-140425000D01*
G75*
G02*
X127175000Y-140162500I0J262500D01*
G01*
X127175000Y-139537500D01*
G75*
G02*
X127437500Y-139275000I262500J0D01*
G01*
X127962500Y-139275000D01*
G75*
G02*
X128225000Y-139537500I0J-262500D01*
G01*
X128225000Y-140162500D01*
G75*
G02*
X127962500Y-140425000I-262500J0D01*
G01*
G37*
%TD*%
%TO.C,R4*%
G36*
G01*
X114137500Y-121775000D02*
X114662500Y-121775000D01*
G75*
G02*
X114925000Y-122037500I0J-262500D01*
G01*
X114925000Y-122662500D01*
G75*
G02*
X114662500Y-122925000I-262500J0D01*
G01*
X114137500Y-122925000D01*
G75*
G02*
X113875000Y-122662500I0J262500D01*
G01*
X113875000Y-122037500D01*
G75*
G02*
X114137500Y-121775000I262500J0D01*
G01*
G37*
G36*
G01*
X114137500Y-120025000D02*
X114662500Y-120025000D01*
G75*
G02*
X114925000Y-120287500I0J-262500D01*
G01*
X114925000Y-120912500D01*
G75*
G02*
X114662500Y-121175000I-262500J0D01*
G01*
X114137500Y-121175000D01*
G75*
G02*
X113875000Y-120912500I0J262500D01*
G01*
X113875000Y-120287500D01*
G75*
G02*
X114137500Y-120025000I262500J0D01*
G01*
G37*
%TD*%
%TO.C,R3*%
G36*
G01*
X113562500Y-142400000D02*
X113037500Y-142400000D01*
G75*
G02*
X112775000Y-142137500I0J262500D01*
G01*
X112775000Y-141512500D01*
G75*
G02*
X113037500Y-141250000I262500J0D01*
G01*
X113562500Y-141250000D01*
G75*
G02*
X113825000Y-141512500I0J-262500D01*
G01*
X113825000Y-142137500D01*
G75*
G02*
X113562500Y-142400000I-262500J0D01*
G01*
G37*
G36*
G01*
X113562500Y-144150000D02*
X113037500Y-144150000D01*
G75*
G02*
X112775000Y-143887500I0J262500D01*
G01*
X112775000Y-143262500D01*
G75*
G02*
X113037500Y-143000000I262500J0D01*
G01*
X113562500Y-143000000D01*
G75*
G02*
X113825000Y-143262500I0J-262500D01*
G01*
X113825000Y-143887500D01*
G75*
G02*
X113562500Y-144150000I-262500J0D01*
G01*
G37*
%TD*%
%TO.C,R2*%
G36*
G01*
X126537500Y-126450000D02*
X127062500Y-126450000D01*
G75*
G02*
X127325000Y-126712500I0J-262500D01*
G01*
X127325000Y-127337500D01*
G75*
G02*
X127062500Y-127600000I-262500J0D01*
G01*
X126537500Y-127600000D01*
G75*
G02*
X126275000Y-127337500I0J262500D01*
G01*
X126275000Y-126712500D01*
G75*
G02*
X126537500Y-126450000I262500J0D01*
G01*
G37*
G36*
G01*
X126537500Y-124700000D02*
X127062500Y-124700000D01*
G75*
G02*
X127325000Y-124962500I0J-262500D01*
G01*
X127325000Y-125587500D01*
G75*
G02*
X127062500Y-125850000I-262500J0D01*
G01*
X126537500Y-125850000D01*
G75*
G02*
X126275000Y-125587500I0J262500D01*
G01*
X126275000Y-124962500D01*
G75*
G02*
X126537500Y-124700000I262500J0D01*
G01*
G37*
%TD*%
%TO.C,R1*%
G36*
G01*
X111112500Y-138950000D02*
X111637500Y-138950000D01*
G75*
G02*
X111900000Y-139212500I0J-262500D01*
G01*
X111900000Y-139837500D01*
G75*
G02*
X111637500Y-140100000I-262500J0D01*
G01*
X111112500Y-140100000D01*
G75*
G02*
X110850000Y-139837500I0J262500D01*
G01*
X110850000Y-139212500D01*
G75*
G02*
X111112500Y-138950000I262500J0D01*
G01*
G37*
G36*
G01*
X111112500Y-137200000D02*
X111637500Y-137200000D01*
G75*
G02*
X111900000Y-137462500I0J-262500D01*
G01*
X111900000Y-138087500D01*
G75*
G02*
X111637500Y-138350000I-262500J0D01*
G01*
X111112500Y-138350000D01*
G75*
G02*
X110850000Y-138087500I0J262500D01*
G01*
X110850000Y-137462500D01*
G75*
G02*
X111112500Y-137200000I262500J0D01*
G01*
G37*
%TD*%
D18*
%TO.C,L2*%
X130300000Y-141250000D03*
X135400000Y-141250000D03*
%TD*%
D10*
%TO.C,J8*%
X101500000Y-112900000D03*
X101500000Y-114900000D03*
X101500000Y-116900000D03*
D11*
X101500000Y-118900000D03*
%TD*%
D10*
%TO.C,J6*%
X138500000Y-122100000D03*
D11*
X138500000Y-124100000D03*
%TD*%
D10*
%TO.C,J5*%
X138500000Y-129233333D03*
D11*
X138500000Y-127233333D03*
%TD*%
D10*
%TO.C,J4*%
X138500000Y-134366666D03*
D11*
X138500000Y-132366666D03*
%TD*%
D19*
%TO.C,J1*%
X123350000Y-137480000D03*
X122550000Y-137480000D03*
X117750000Y-137480000D03*
X116950000Y-137480000D03*
X116650000Y-137480000D03*
X117450000Y-137480000D03*
X118250000Y-137480000D03*
X118750000Y-137480000D03*
X119250000Y-137480000D03*
X119750000Y-137480000D03*
X120250000Y-137480000D03*
X120750000Y-137480000D03*
X121250000Y-137480000D03*
X121750000Y-137480000D03*
X122250000Y-137480000D03*
X123050000Y-137480000D03*
D20*
X117110000Y-138545000D03*
X122890000Y-138545000D03*
D21*
X124320000Y-142225000D03*
X115680000Y-142225000D03*
D22*
X124320000Y-138045000D03*
X115680000Y-138045000D03*
%TD*%
%TO.C,D2*%
G36*
G01*
X133668750Y-136020000D02*
X134231250Y-136020000D01*
G75*
G02*
X134475000Y-136263750I0J-243750D01*
G01*
X134475000Y-136751250D01*
G75*
G02*
X134231250Y-136995000I-243750J0D01*
G01*
X133668750Y-136995000D01*
G75*
G02*
X133425000Y-136751250I0J243750D01*
G01*
X133425000Y-136263750D01*
G75*
G02*
X133668750Y-136020000I243750J0D01*
G01*
G37*
G36*
G01*
X133668750Y-134445000D02*
X134231250Y-134445000D01*
G75*
G02*
X134475000Y-134688750I0J-243750D01*
G01*
X134475000Y-135176250D01*
G75*
G02*
X134231250Y-135420000I-243750J0D01*
G01*
X133668750Y-135420000D01*
G75*
G02*
X133425000Y-135176250I0J243750D01*
G01*
X133425000Y-134688750D01*
G75*
G02*
X133668750Y-134445000I243750J0D01*
G01*
G37*
%TD*%
%TO.C,D1*%
G36*
G01*
X136131250Y-135380000D02*
X135568750Y-135380000D01*
G75*
G02*
X135325000Y-135136250I0J243750D01*
G01*
X135325000Y-134648750D01*
G75*
G02*
X135568750Y-134405000I243750J0D01*
G01*
X136131250Y-134405000D01*
G75*
G02*
X136375000Y-134648750I0J-243750D01*
G01*
X136375000Y-135136250D01*
G75*
G02*
X136131250Y-135380000I-243750J0D01*
G01*
G37*
G36*
G01*
X136131250Y-136955000D02*
X135568750Y-136955000D01*
G75*
G02*
X135325000Y-136711250I0J243750D01*
G01*
X135325000Y-136223750D01*
G75*
G02*
X135568750Y-135980000I243750J0D01*
G01*
X136131250Y-135980000D01*
G75*
G02*
X136375000Y-136223750I0J-243750D01*
G01*
X136375000Y-136711250D01*
G75*
G02*
X136131250Y-136955000I-243750J0D01*
G01*
G37*
%TD*%
%TO.C,C25*%
G36*
G01*
X108200000Y-117437500D02*
X108200000Y-117962500D01*
G75*
G02*
X107937500Y-118225000I-262500J0D01*
G01*
X107312500Y-118225000D01*
G75*
G02*
X107050000Y-117962500I0J262500D01*
G01*
X107050000Y-117437500D01*
G75*
G02*
X107312500Y-117175000I262500J0D01*
G01*
X107937500Y-117175000D01*
G75*
G02*
X108200000Y-117437500I0J-262500D01*
G01*
G37*
G36*
G01*
X109950000Y-117437500D02*
X109950000Y-117962500D01*
G75*
G02*
X109687500Y-118225000I-262500J0D01*
G01*
X109062500Y-118225000D01*
G75*
G02*
X108800000Y-117962500I0J262500D01*
G01*
X108800000Y-117437500D01*
G75*
G02*
X109062500Y-117175000I262500J0D01*
G01*
X109687500Y-117175000D01*
G75*
G02*
X109950000Y-117437500I0J-262500D01*
G01*
G37*
%TD*%
%TO.C,C24*%
G36*
G01*
X104162500Y-114150000D02*
X103637500Y-114150000D01*
G75*
G02*
X103375000Y-113887500I0J262500D01*
G01*
X103375000Y-113262500D01*
G75*
G02*
X103637500Y-113000000I262500J0D01*
G01*
X104162500Y-113000000D01*
G75*
G02*
X104425000Y-113262500I0J-262500D01*
G01*
X104425000Y-113887500D01*
G75*
G02*
X104162500Y-114150000I-262500J0D01*
G01*
G37*
G36*
G01*
X104162500Y-115900000D02*
X103637500Y-115900000D01*
G75*
G02*
X103375000Y-115637500I0J262500D01*
G01*
X103375000Y-115012500D01*
G75*
G02*
X103637500Y-114750000I262500J0D01*
G01*
X104162500Y-114750000D01*
G75*
G02*
X104425000Y-115012500I0J-262500D01*
G01*
X104425000Y-115637500D01*
G75*
G02*
X104162500Y-115900000I-262500J0D01*
G01*
G37*
%TD*%
%TO.C,C23*%
G36*
G01*
X104650000Y-136468500D02*
X104650000Y-136993500D01*
G75*
G02*
X104387500Y-137256000I-262500J0D01*
G01*
X103762500Y-137256000D01*
G75*
G02*
X103500000Y-136993500I0J262500D01*
G01*
X103500000Y-136468500D01*
G75*
G02*
X103762500Y-136206000I262500J0D01*
G01*
X104387500Y-136206000D01*
G75*
G02*
X104650000Y-136468500I0J-262500D01*
G01*
G37*
G36*
G01*
X106400000Y-136468500D02*
X106400000Y-136993500D01*
G75*
G02*
X106137500Y-137256000I-262500J0D01*
G01*
X105512500Y-137256000D01*
G75*
G02*
X105250000Y-136993500I0J262500D01*
G01*
X105250000Y-136468500D01*
G75*
G02*
X105512500Y-136206000I262500J0D01*
G01*
X106137500Y-136206000D01*
G75*
G02*
X106400000Y-136468500I0J-262500D01*
G01*
G37*
%TD*%
%TO.C,C22*%
G36*
G01*
X114135500Y-134612000D02*
X114660500Y-134612000D01*
G75*
G02*
X114923000Y-134874500I0J-262500D01*
G01*
X114923000Y-135499500D01*
G75*
G02*
X114660500Y-135762000I-262500J0D01*
G01*
X114135500Y-135762000D01*
G75*
G02*
X113873000Y-135499500I0J262500D01*
G01*
X113873000Y-134874500D01*
G75*
G02*
X114135500Y-134612000I262500J0D01*
G01*
G37*
G36*
G01*
X114135500Y-132862000D02*
X114660500Y-132862000D01*
G75*
G02*
X114923000Y-133124500I0J-262500D01*
G01*
X114923000Y-133749500D01*
G75*
G02*
X114660500Y-134012000I-262500J0D01*
G01*
X114135500Y-134012000D01*
G75*
G02*
X113873000Y-133749500I0J262500D01*
G01*
X113873000Y-133124500D01*
G75*
G02*
X114135500Y-132862000I262500J0D01*
G01*
G37*
%TD*%
%TO.C,C21*%
G36*
G01*
X116687500Y-120050000D02*
X117212500Y-120050000D01*
G75*
G02*
X117475000Y-120312500I0J-262500D01*
G01*
X117475000Y-120937500D01*
G75*
G02*
X117212500Y-121200000I-262500J0D01*
G01*
X116687500Y-121200000D01*
G75*
G02*
X116425000Y-120937500I0J262500D01*
G01*
X116425000Y-120312500D01*
G75*
G02*
X116687500Y-120050000I262500J0D01*
G01*
G37*
G36*
G01*
X116687500Y-118300000D02*
X117212500Y-118300000D01*
G75*
G02*
X117475000Y-118562500I0J-262500D01*
G01*
X117475000Y-119187500D01*
G75*
G02*
X117212500Y-119450000I-262500J0D01*
G01*
X116687500Y-119450000D01*
G75*
G02*
X116425000Y-119187500I0J262500D01*
G01*
X116425000Y-118562500D01*
G75*
G02*
X116687500Y-118300000I262500J0D01*
G01*
G37*
%TD*%
%TO.C,C20*%
G36*
G01*
X127112500Y-119850000D02*
X126587500Y-119850000D01*
G75*
G02*
X126325000Y-119587500I0J262500D01*
G01*
X126325000Y-118962500D01*
G75*
G02*
X126587500Y-118700000I262500J0D01*
G01*
X127112500Y-118700000D01*
G75*
G02*
X127375000Y-118962500I0J-262500D01*
G01*
X127375000Y-119587500D01*
G75*
G02*
X127112500Y-119850000I-262500J0D01*
G01*
G37*
G36*
G01*
X127112500Y-121600000D02*
X126587500Y-121600000D01*
G75*
G02*
X126325000Y-121337500I0J262500D01*
G01*
X126325000Y-120712500D01*
G75*
G02*
X126587500Y-120450000I262500J0D01*
G01*
X127112500Y-120450000D01*
G75*
G02*
X127375000Y-120712500I0J-262500D01*
G01*
X127375000Y-121337500D01*
G75*
G02*
X127112500Y-121600000I-262500J0D01*
G01*
G37*
%TD*%
%TO.C,C19*%
G36*
G01*
X131937500Y-135875000D02*
X132462500Y-135875000D01*
G75*
G02*
X132725000Y-136137500I0J-262500D01*
G01*
X132725000Y-136762500D01*
G75*
G02*
X132462500Y-137025000I-262500J0D01*
G01*
X131937500Y-137025000D01*
G75*
G02*
X131675000Y-136762500I0J262500D01*
G01*
X131675000Y-136137500D01*
G75*
G02*
X131937500Y-135875000I262500J0D01*
G01*
G37*
G36*
G01*
X131937500Y-134125000D02*
X132462500Y-134125000D01*
G75*
G02*
X132725000Y-134387500I0J-262500D01*
G01*
X132725000Y-135012500D01*
G75*
G02*
X132462500Y-135275000I-262500J0D01*
G01*
X131937500Y-135275000D01*
G75*
G02*
X131675000Y-135012500I0J262500D01*
G01*
X131675000Y-134387500D01*
G75*
G02*
X131937500Y-134125000I262500J0D01*
G01*
G37*
%TD*%
%TO.C,C18*%
G36*
G01*
X134400000Y-125237500D02*
X134400000Y-125762500D01*
G75*
G02*
X134137500Y-126025000I-262500J0D01*
G01*
X133512500Y-126025000D01*
G75*
G02*
X133250000Y-125762500I0J262500D01*
G01*
X133250000Y-125237500D01*
G75*
G02*
X133512500Y-124975000I262500J0D01*
G01*
X134137500Y-124975000D01*
G75*
G02*
X134400000Y-125237500I0J-262500D01*
G01*
G37*
G36*
G01*
X136150000Y-125237500D02*
X136150000Y-125762500D01*
G75*
G02*
X135887500Y-126025000I-262500J0D01*
G01*
X135262500Y-126025000D01*
G75*
G02*
X135000000Y-125762500I0J262500D01*
G01*
X135000000Y-125237500D01*
G75*
G02*
X135262500Y-124975000I262500J0D01*
G01*
X135887500Y-124975000D01*
G75*
G02*
X136150000Y-125237500I0J-262500D01*
G01*
G37*
%TD*%
%TO.C,C17*%
G36*
G01*
X127962500Y-142125000D02*
X127437500Y-142125000D01*
G75*
G02*
X127175000Y-141862500I0J262500D01*
G01*
X127175000Y-141237500D01*
G75*
G02*
X127437500Y-140975000I262500J0D01*
G01*
X127962500Y-140975000D01*
G75*
G02*
X128225000Y-141237500I0J-262500D01*
G01*
X128225000Y-141862500D01*
G75*
G02*
X127962500Y-142125000I-262500J0D01*
G01*
G37*
G36*
G01*
X127962500Y-143875000D02*
X127437500Y-143875000D01*
G75*
G02*
X127175000Y-143612500I0J262500D01*
G01*
X127175000Y-142987500D01*
G75*
G02*
X127437500Y-142725000I262500J0D01*
G01*
X127962500Y-142725000D01*
G75*
G02*
X128225000Y-142987500I0J-262500D01*
G01*
X128225000Y-143612500D01*
G75*
G02*
X127962500Y-143875000I-262500J0D01*
G01*
G37*
%TD*%
%TO.C,C16*%
G36*
G01*
X113525000Y-118637500D02*
X113525000Y-119162500D01*
G75*
G02*
X113262500Y-119425000I-262500J0D01*
G01*
X112637500Y-119425000D01*
G75*
G02*
X112375000Y-119162500I0J262500D01*
G01*
X112375000Y-118637500D01*
G75*
G02*
X112637500Y-118375000I262500J0D01*
G01*
X113262500Y-118375000D01*
G75*
G02*
X113525000Y-118637500I0J-262500D01*
G01*
G37*
G36*
G01*
X115275000Y-118637500D02*
X115275000Y-119162500D01*
G75*
G02*
X115012500Y-119425000I-262500J0D01*
G01*
X114387500Y-119425000D01*
G75*
G02*
X114125000Y-119162500I0J262500D01*
G01*
X114125000Y-118637500D01*
G75*
G02*
X114387500Y-118375000I262500J0D01*
G01*
X115012500Y-118375000D01*
G75*
G02*
X115275000Y-118637500I0J-262500D01*
G01*
G37*
%TD*%
%TO.C,C15*%
G36*
G01*
X128962500Y-135250000D02*
X128437500Y-135250000D01*
G75*
G02*
X128175000Y-134987500I0J262500D01*
G01*
X128175000Y-134362500D01*
G75*
G02*
X128437500Y-134100000I262500J0D01*
G01*
X128962500Y-134100000D01*
G75*
G02*
X129225000Y-134362500I0J-262500D01*
G01*
X129225000Y-134987500D01*
G75*
G02*
X128962500Y-135250000I-262500J0D01*
G01*
G37*
G36*
G01*
X128962500Y-137000000D02*
X128437500Y-137000000D01*
G75*
G02*
X128175000Y-136737500I0J262500D01*
G01*
X128175000Y-136112500D01*
G75*
G02*
X128437500Y-135850000I262500J0D01*
G01*
X128962500Y-135850000D01*
G75*
G02*
X129225000Y-136112500I0J-262500D01*
G01*
X129225000Y-136737500D01*
G75*
G02*
X128962500Y-137000000I-262500J0D01*
G01*
G37*
%TD*%
%TO.C,C14*%
G36*
G01*
X129975000Y-125237500D02*
X129975000Y-125762500D01*
G75*
G02*
X129712500Y-126025000I-262500J0D01*
G01*
X129087500Y-126025000D01*
G75*
G02*
X128825000Y-125762500I0J262500D01*
G01*
X128825000Y-125237500D01*
G75*
G02*
X129087500Y-124975000I262500J0D01*
G01*
X129712500Y-124975000D01*
G75*
G02*
X129975000Y-125237500I0J-262500D01*
G01*
G37*
G36*
G01*
X131725000Y-125237500D02*
X131725000Y-125762500D01*
G75*
G02*
X131462500Y-126025000I-262500J0D01*
G01*
X130837500Y-126025000D01*
G75*
G02*
X130575000Y-125762500I0J262500D01*
G01*
X130575000Y-125237500D01*
G75*
G02*
X130837500Y-124975000I262500J0D01*
G01*
X131462500Y-124975000D01*
G75*
G02*
X131725000Y-125237500I0J-262500D01*
G01*
G37*
%TD*%
%TO.C,C13*%
G36*
G01*
X105250000Y-140418500D02*
X105250000Y-139893500D01*
G75*
G02*
X105512500Y-139631000I262500J0D01*
G01*
X106137500Y-139631000D01*
G75*
G02*
X106400000Y-139893500I0J-262500D01*
G01*
X106400000Y-140418500D01*
G75*
G02*
X106137500Y-140681000I-262500J0D01*
G01*
X105512500Y-140681000D01*
G75*
G02*
X105250000Y-140418500I0J262500D01*
G01*
G37*
G36*
G01*
X103500000Y-140418500D02*
X103500000Y-139893500D01*
G75*
G02*
X103762500Y-139631000I262500J0D01*
G01*
X104387500Y-139631000D01*
G75*
G02*
X104650000Y-139893500I0J-262500D01*
G01*
X104650000Y-140418500D01*
G75*
G02*
X104387500Y-140681000I-262500J0D01*
G01*
X103762500Y-140681000D01*
G75*
G02*
X103500000Y-140418500I0J262500D01*
G01*
G37*
%TD*%
%TO.C,C12*%
G36*
G01*
X130187500Y-135850000D02*
X130712500Y-135850000D01*
G75*
G02*
X130975000Y-136112500I0J-262500D01*
G01*
X130975000Y-136737500D01*
G75*
G02*
X130712500Y-137000000I-262500J0D01*
G01*
X130187500Y-137000000D01*
G75*
G02*
X129925000Y-136737500I0J262500D01*
G01*
X129925000Y-136112500D01*
G75*
G02*
X130187500Y-135850000I262500J0D01*
G01*
G37*
G36*
G01*
X130187500Y-134100000D02*
X130712500Y-134100000D01*
G75*
G02*
X130975000Y-134362500I0J-262500D01*
G01*
X130975000Y-134987500D01*
G75*
G02*
X130712500Y-135250000I-262500J0D01*
G01*
X130187500Y-135250000D01*
G75*
G02*
X129925000Y-134987500I0J262500D01*
G01*
X129925000Y-134362500D01*
G75*
G02*
X130187500Y-134100000I262500J0D01*
G01*
G37*
%TD*%
%TO.C,C11*%
G36*
G01*
X105250000Y-143868500D02*
X105250000Y-143343500D01*
G75*
G02*
X105512500Y-143081000I262500J0D01*
G01*
X106137500Y-143081000D01*
G75*
G02*
X106400000Y-143343500I0J-262500D01*
G01*
X106400000Y-143868500D01*
G75*
G02*
X106137500Y-144131000I-262500J0D01*
G01*
X105512500Y-144131000D01*
G75*
G02*
X105250000Y-143868500I0J262500D01*
G01*
G37*
G36*
G01*
X103500000Y-143868500D02*
X103500000Y-143343500D01*
G75*
G02*
X103762500Y-143081000I262500J0D01*
G01*
X104387500Y-143081000D01*
G75*
G02*
X104650000Y-143343500I0J-262500D01*
G01*
X104650000Y-143868500D01*
G75*
G02*
X104387500Y-144131000I-262500J0D01*
G01*
X103762500Y-144131000D01*
G75*
G02*
X103500000Y-143868500I0J262500D01*
G01*
G37*
%TD*%
%TO.C,C10*%
G36*
G01*
X105600000Y-125762500D02*
X105600000Y-125237500D01*
G75*
G02*
X105862500Y-124975000I262500J0D01*
G01*
X106487500Y-124975000D01*
G75*
G02*
X106750000Y-125237500I0J-262500D01*
G01*
X106750000Y-125762500D01*
G75*
G02*
X106487500Y-126025000I-262500J0D01*
G01*
X105862500Y-126025000D01*
G75*
G02*
X105600000Y-125762500I0J262500D01*
G01*
G37*
G36*
G01*
X103850000Y-125762500D02*
X103850000Y-125237500D01*
G75*
G02*
X104112500Y-124975000I262500J0D01*
G01*
X104737500Y-124975000D01*
G75*
G02*
X105000000Y-125237500I0J-262500D01*
G01*
X105000000Y-125762500D01*
G75*
G02*
X104737500Y-126025000I-262500J0D01*
G01*
X104112500Y-126025000D01*
G75*
G02*
X103850000Y-125762500I0J262500D01*
G01*
G37*
%TD*%
%TO.C,C9*%
G36*
G01*
X107535500Y-134612000D02*
X108060500Y-134612000D01*
G75*
G02*
X108323000Y-134874500I0J-262500D01*
G01*
X108323000Y-135499500D01*
G75*
G02*
X108060500Y-135762000I-262500J0D01*
G01*
X107535500Y-135762000D01*
G75*
G02*
X107273000Y-135499500I0J262500D01*
G01*
X107273000Y-134874500D01*
G75*
G02*
X107535500Y-134612000I262500J0D01*
G01*
G37*
G36*
G01*
X107535500Y-132862000D02*
X108060500Y-132862000D01*
G75*
G02*
X108323000Y-133124500I0J-262500D01*
G01*
X108323000Y-133749500D01*
G75*
G02*
X108060500Y-134012000I-262500J0D01*
G01*
X107535500Y-134012000D01*
G75*
G02*
X107273000Y-133749500I0J262500D01*
G01*
X107273000Y-133124500D01*
G75*
G02*
X107535500Y-132862000I262500J0D01*
G01*
G37*
%TD*%
%TO.C,C8*%
G36*
G01*
X112787500Y-138950000D02*
X113312500Y-138950000D01*
G75*
G02*
X113575000Y-139212500I0J-262500D01*
G01*
X113575000Y-139837500D01*
G75*
G02*
X113312500Y-140100000I-262500J0D01*
G01*
X112787500Y-140100000D01*
G75*
G02*
X112525000Y-139837500I0J262500D01*
G01*
X112525000Y-139212500D01*
G75*
G02*
X112787500Y-138950000I262500J0D01*
G01*
G37*
G36*
G01*
X112787500Y-137200000D02*
X113312500Y-137200000D01*
G75*
G02*
X113575000Y-137462500I0J-262500D01*
G01*
X113575000Y-138087500D01*
G75*
G02*
X113312500Y-138350000I-262500J0D01*
G01*
X112787500Y-138350000D01*
G75*
G02*
X112525000Y-138087500I0J262500D01*
G01*
X112525000Y-137462500D01*
G75*
G02*
X112787500Y-137200000I262500J0D01*
G01*
G37*
%TD*%
%TO.C,C7*%
G36*
G01*
X109185500Y-134612000D02*
X109710500Y-134612000D01*
G75*
G02*
X109973000Y-134874500I0J-262500D01*
G01*
X109973000Y-135499500D01*
G75*
G02*
X109710500Y-135762000I-262500J0D01*
G01*
X109185500Y-135762000D01*
G75*
G02*
X108923000Y-135499500I0J262500D01*
G01*
X108923000Y-134874500D01*
G75*
G02*
X109185500Y-134612000I262500J0D01*
G01*
G37*
G36*
G01*
X109185500Y-132862000D02*
X109710500Y-132862000D01*
G75*
G02*
X109973000Y-133124500I0J-262500D01*
G01*
X109973000Y-133749500D01*
G75*
G02*
X109710500Y-134012000I-262500J0D01*
G01*
X109185500Y-134012000D01*
G75*
G02*
X108923000Y-133749500I0J262500D01*
G01*
X108923000Y-133124500D01*
G75*
G02*
X109185500Y-132862000I262500J0D01*
G01*
G37*
%TD*%
%TO.C,C6*%
G36*
G01*
X109962500Y-138350000D02*
X109437500Y-138350000D01*
G75*
G02*
X109175000Y-138087500I0J262500D01*
G01*
X109175000Y-137462500D01*
G75*
G02*
X109437500Y-137200000I262500J0D01*
G01*
X109962500Y-137200000D01*
G75*
G02*
X110225000Y-137462500I0J-262500D01*
G01*
X110225000Y-138087500D01*
G75*
G02*
X109962500Y-138350000I-262500J0D01*
G01*
G37*
G36*
G01*
X109962500Y-140100000D02*
X109437500Y-140100000D01*
G75*
G02*
X109175000Y-139837500I0J262500D01*
G01*
X109175000Y-139212500D01*
G75*
G02*
X109437500Y-138950000I262500J0D01*
G01*
X109962500Y-138950000D01*
G75*
G02*
X110225000Y-139212500I0J-262500D01*
G01*
X110225000Y-139837500D01*
G75*
G02*
X109962500Y-140100000I-262500J0D01*
G01*
G37*
%TD*%
%TO.C,C5*%
G36*
G01*
X105250000Y-138693500D02*
X105250000Y-138168500D01*
G75*
G02*
X105512500Y-137906000I262500J0D01*
G01*
X106137500Y-137906000D01*
G75*
G02*
X106400000Y-138168500I0J-262500D01*
G01*
X106400000Y-138693500D01*
G75*
G02*
X106137500Y-138956000I-262500J0D01*
G01*
X105512500Y-138956000D01*
G75*
G02*
X105250000Y-138693500I0J262500D01*
G01*
G37*
G36*
G01*
X103500000Y-138693500D02*
X103500000Y-138168500D01*
G75*
G02*
X103762500Y-137906000I262500J0D01*
G01*
X104387500Y-137906000D01*
G75*
G02*
X104650000Y-138168500I0J-262500D01*
G01*
X104650000Y-138693500D01*
G75*
G02*
X104387500Y-138956000I-262500J0D01*
G01*
X103762500Y-138956000D01*
G75*
G02*
X103500000Y-138693500I0J262500D01*
G01*
G37*
%TD*%
%TO.C,C4*%
G36*
G01*
X112485500Y-134612000D02*
X113010500Y-134612000D01*
G75*
G02*
X113273000Y-134874500I0J-262500D01*
G01*
X113273000Y-135499500D01*
G75*
G02*
X113010500Y-135762000I-262500J0D01*
G01*
X112485500Y-135762000D01*
G75*
G02*
X112223000Y-135499500I0J262500D01*
G01*
X112223000Y-134874500D01*
G75*
G02*
X112485500Y-134612000I262500J0D01*
G01*
G37*
G36*
G01*
X112485500Y-132862000D02*
X113010500Y-132862000D01*
G75*
G02*
X113273000Y-133124500I0J-262500D01*
G01*
X113273000Y-133749500D01*
G75*
G02*
X113010500Y-134012000I-262500J0D01*
G01*
X112485500Y-134012000D01*
G75*
G02*
X112223000Y-133749500I0J262500D01*
G01*
X112223000Y-133124500D01*
G75*
G02*
X112485500Y-132862000I262500J0D01*
G01*
G37*
%TD*%
%TO.C,C3*%
G36*
G01*
X110835500Y-134612000D02*
X111360500Y-134612000D01*
G75*
G02*
X111623000Y-134874500I0J-262500D01*
G01*
X111623000Y-135499500D01*
G75*
G02*
X111360500Y-135762000I-262500J0D01*
G01*
X110835500Y-135762000D01*
G75*
G02*
X110573000Y-135499500I0J262500D01*
G01*
X110573000Y-134874500D01*
G75*
G02*
X110835500Y-134612000I262500J0D01*
G01*
G37*
G36*
G01*
X110835500Y-132862000D02*
X111360500Y-132862000D01*
G75*
G02*
X111623000Y-133124500I0J-262500D01*
G01*
X111623000Y-133749500D01*
G75*
G02*
X111360500Y-134012000I-262500J0D01*
G01*
X110835500Y-134012000D01*
G75*
G02*
X110573000Y-133749500I0J262500D01*
G01*
X110573000Y-133124500D01*
G75*
G02*
X110835500Y-132862000I262500J0D01*
G01*
G37*
%TD*%
%TO.C,C2*%
G36*
G01*
X105250000Y-142143500D02*
X105250000Y-141618500D01*
G75*
G02*
X105512500Y-141356000I262500J0D01*
G01*
X106137500Y-141356000D01*
G75*
G02*
X106400000Y-141618500I0J-262500D01*
G01*
X106400000Y-142143500D01*
G75*
G02*
X106137500Y-142406000I-262500J0D01*
G01*
X105512500Y-142406000D01*
G75*
G02*
X105250000Y-142143500I0J262500D01*
G01*
G37*
G36*
G01*
X103500000Y-142143500D02*
X103500000Y-141618500D01*
G75*
G02*
X103762500Y-141356000I262500J0D01*
G01*
X104387500Y-141356000D01*
G75*
G02*
X104650000Y-141618500I0J-262500D01*
G01*
X104650000Y-142143500D01*
G75*
G02*
X104387500Y-142406000I-262500J0D01*
G01*
X103762500Y-142406000D01*
G75*
G02*
X103500000Y-142143500I0J262500D01*
G01*
G37*
%TD*%
%TO.C,C1*%
G36*
G01*
X110000000Y-125762500D02*
X110000000Y-125237500D01*
G75*
G02*
X110262500Y-124975000I262500J0D01*
G01*
X110887500Y-124975000D01*
G75*
G02*
X111150000Y-125237500I0J-262500D01*
G01*
X111150000Y-125762500D01*
G75*
G02*
X110887500Y-126025000I-262500J0D01*
G01*
X110262500Y-126025000D01*
G75*
G02*
X110000000Y-125762500I0J262500D01*
G01*
G37*
G36*
G01*
X108250000Y-125762500D02*
X108250000Y-125237500D01*
G75*
G02*
X108512500Y-124975000I262500J0D01*
G01*
X109137500Y-124975000D01*
G75*
G02*
X109400000Y-125237500I0J-262500D01*
G01*
X109400000Y-125762500D01*
G75*
G02*
X109137500Y-126025000I-262500J0D01*
G01*
X108512500Y-126025000D01*
G75*
G02*
X108250000Y-125762500I0J262500D01*
G01*
G37*
%TD*%
M02*
