%TF.GenerationSoftware,KiCad,Pcbnew,(5.1.6-0-10_14)*%
%TF.CreationDate,2020-10-29T20:17:36+08:00*%
%TF.ProjectId,QuadoFly,51756164-6f46-46c7-992e-6b696361645f,rev?*%
%TF.SameCoordinates,Original*%
%TF.FileFunction,Paste,Top*%
%TF.FilePolarity,Positive*%
%FSLAX46Y46*%
G04 Gerber Fmt 4.6, Leading zero omitted, Abs format (unit mm)*
G04 Created by KiCad (PCBNEW (5.1.6-0-10_14)) date 2020-10-29 20:17:36*
%MOMM*%
%LPD*%
G01*
G04 APERTURE LIST*
%ADD10R,1.700000X2.400000*%
%ADD11R,1.400000X0.700000*%
%ADD12R,0.700000X1.400000*%
%ADD13R,0.900000X1.700000*%
%ADD14R,2.700000X2.200000*%
%ADD15R,0.300000X1.150000*%
G04 APERTURE END LIST*
D10*
%TO.C,Y1*%
X119444666Y-119950000D03*
X123144666Y-119950000D03*
%TD*%
D11*
%TO.C,U7*%
X100900000Y-108650000D03*
X100900000Y-107370000D03*
X100900000Y-106090000D03*
D12*
X109100000Y-110150000D03*
X107820000Y-110150000D03*
X106540000Y-110150000D03*
X105260000Y-110150000D03*
X103980000Y-110150000D03*
D11*
X110900000Y-108650000D03*
X110900000Y-107370000D03*
X110900000Y-106090000D03*
X110900000Y-104810000D03*
X110900000Y-103530000D03*
X110900000Y-102250000D03*
D12*
X102700000Y-110150000D03*
D11*
X100900000Y-104810000D03*
X110900000Y-100970000D03*
%TD*%
%TO.C,U6*%
G36*
G01*
X109025000Y-112975000D02*
X109025000Y-112825000D01*
G75*
G02*
X109100000Y-112750000I75000J0D01*
G01*
X109800000Y-112750000D01*
G75*
G02*
X109875000Y-112825000I0J-75000D01*
G01*
X109875000Y-112975000D01*
G75*
G02*
X109800000Y-113050000I-75000J0D01*
G01*
X109100000Y-113050000D01*
G75*
G02*
X109025000Y-112975000I0J75000D01*
G01*
G37*
G36*
G01*
X109025000Y-113475000D02*
X109025000Y-113325000D01*
G75*
G02*
X109100000Y-113250000I75000J0D01*
G01*
X109800000Y-113250000D01*
G75*
G02*
X109875000Y-113325000I0J-75000D01*
G01*
X109875000Y-113475000D01*
G75*
G02*
X109800000Y-113550000I-75000J0D01*
G01*
X109100000Y-113550000D01*
G75*
G02*
X109025000Y-113475000I0J75000D01*
G01*
G37*
G36*
G01*
X109025000Y-113975000D02*
X109025000Y-113825000D01*
G75*
G02*
X109100000Y-113750000I75000J0D01*
G01*
X109800000Y-113750000D01*
G75*
G02*
X109875000Y-113825000I0J-75000D01*
G01*
X109875000Y-113975000D01*
G75*
G02*
X109800000Y-114050000I-75000J0D01*
G01*
X109100000Y-114050000D01*
G75*
G02*
X109025000Y-113975000I0J75000D01*
G01*
G37*
G36*
G01*
X109025000Y-114475000D02*
X109025000Y-114325000D01*
G75*
G02*
X109100000Y-114250000I75000J0D01*
G01*
X109800000Y-114250000D01*
G75*
G02*
X109875000Y-114325000I0J-75000D01*
G01*
X109875000Y-114475000D01*
G75*
G02*
X109800000Y-114550000I-75000J0D01*
G01*
X109100000Y-114550000D01*
G75*
G02*
X109025000Y-114475000I0J75000D01*
G01*
G37*
G36*
G01*
X109025000Y-114975000D02*
X109025000Y-114825000D01*
G75*
G02*
X109100000Y-114750000I75000J0D01*
G01*
X109800000Y-114750000D01*
G75*
G02*
X109875000Y-114825000I0J-75000D01*
G01*
X109875000Y-114975000D01*
G75*
G02*
X109800000Y-115050000I-75000J0D01*
G01*
X109100000Y-115050000D01*
G75*
G02*
X109025000Y-114975000I0J75000D01*
G01*
G37*
G36*
G01*
X109025000Y-115475000D02*
X109025000Y-115325000D01*
G75*
G02*
X109100000Y-115250000I75000J0D01*
G01*
X109800000Y-115250000D01*
G75*
G02*
X109875000Y-115325000I0J-75000D01*
G01*
X109875000Y-115475000D01*
G75*
G02*
X109800000Y-115550000I-75000J0D01*
G01*
X109100000Y-115550000D01*
G75*
G02*
X109025000Y-115475000I0J75000D01*
G01*
G37*
G36*
G01*
X108675000Y-115675000D02*
X108825000Y-115675000D01*
G75*
G02*
X108900000Y-115750000I0J-75000D01*
G01*
X108900000Y-116450000D01*
G75*
G02*
X108825000Y-116525000I-75000J0D01*
G01*
X108675000Y-116525000D01*
G75*
G02*
X108600000Y-116450000I0J75000D01*
G01*
X108600000Y-115750000D01*
G75*
G02*
X108675000Y-115675000I75000J0D01*
G01*
G37*
G36*
G01*
X108175000Y-115675000D02*
X108325000Y-115675000D01*
G75*
G02*
X108400000Y-115750000I0J-75000D01*
G01*
X108400000Y-116450000D01*
G75*
G02*
X108325000Y-116525000I-75000J0D01*
G01*
X108175000Y-116525000D01*
G75*
G02*
X108100000Y-116450000I0J75000D01*
G01*
X108100000Y-115750000D01*
G75*
G02*
X108175000Y-115675000I75000J0D01*
G01*
G37*
G36*
G01*
X107675000Y-115675000D02*
X107825000Y-115675000D01*
G75*
G02*
X107900000Y-115750000I0J-75000D01*
G01*
X107900000Y-116450000D01*
G75*
G02*
X107825000Y-116525000I-75000J0D01*
G01*
X107675000Y-116525000D01*
G75*
G02*
X107600000Y-116450000I0J75000D01*
G01*
X107600000Y-115750000D01*
G75*
G02*
X107675000Y-115675000I75000J0D01*
G01*
G37*
G36*
G01*
X107175000Y-115675000D02*
X107325000Y-115675000D01*
G75*
G02*
X107400000Y-115750000I0J-75000D01*
G01*
X107400000Y-116450000D01*
G75*
G02*
X107325000Y-116525000I-75000J0D01*
G01*
X107175000Y-116525000D01*
G75*
G02*
X107100000Y-116450000I0J75000D01*
G01*
X107100000Y-115750000D01*
G75*
G02*
X107175000Y-115675000I75000J0D01*
G01*
G37*
G36*
G01*
X106675000Y-115675000D02*
X106825000Y-115675000D01*
G75*
G02*
X106900000Y-115750000I0J-75000D01*
G01*
X106900000Y-116450000D01*
G75*
G02*
X106825000Y-116525000I-75000J0D01*
G01*
X106675000Y-116525000D01*
G75*
G02*
X106600000Y-116450000I0J75000D01*
G01*
X106600000Y-115750000D01*
G75*
G02*
X106675000Y-115675000I75000J0D01*
G01*
G37*
G36*
G01*
X106175000Y-115675000D02*
X106325000Y-115675000D01*
G75*
G02*
X106400000Y-115750000I0J-75000D01*
G01*
X106400000Y-116450000D01*
G75*
G02*
X106325000Y-116525000I-75000J0D01*
G01*
X106175000Y-116525000D01*
G75*
G02*
X106100000Y-116450000I0J75000D01*
G01*
X106100000Y-115750000D01*
G75*
G02*
X106175000Y-115675000I75000J0D01*
G01*
G37*
G36*
G01*
X105125000Y-115475000D02*
X105125000Y-115325000D01*
G75*
G02*
X105200000Y-115250000I75000J0D01*
G01*
X105900000Y-115250000D01*
G75*
G02*
X105975000Y-115325000I0J-75000D01*
G01*
X105975000Y-115475000D01*
G75*
G02*
X105900000Y-115550000I-75000J0D01*
G01*
X105200000Y-115550000D01*
G75*
G02*
X105125000Y-115475000I0J75000D01*
G01*
G37*
G36*
G01*
X105125000Y-114975000D02*
X105125000Y-114825000D01*
G75*
G02*
X105200000Y-114750000I75000J0D01*
G01*
X105900000Y-114750000D01*
G75*
G02*
X105975000Y-114825000I0J-75000D01*
G01*
X105975000Y-114975000D01*
G75*
G02*
X105900000Y-115050000I-75000J0D01*
G01*
X105200000Y-115050000D01*
G75*
G02*
X105125000Y-114975000I0J75000D01*
G01*
G37*
G36*
G01*
X105125000Y-114475000D02*
X105125000Y-114325000D01*
G75*
G02*
X105200000Y-114250000I75000J0D01*
G01*
X105900000Y-114250000D01*
G75*
G02*
X105975000Y-114325000I0J-75000D01*
G01*
X105975000Y-114475000D01*
G75*
G02*
X105900000Y-114550000I-75000J0D01*
G01*
X105200000Y-114550000D01*
G75*
G02*
X105125000Y-114475000I0J75000D01*
G01*
G37*
G36*
G01*
X105125000Y-113975000D02*
X105125000Y-113825000D01*
G75*
G02*
X105200000Y-113750000I75000J0D01*
G01*
X105900000Y-113750000D01*
G75*
G02*
X105975000Y-113825000I0J-75000D01*
G01*
X105975000Y-113975000D01*
G75*
G02*
X105900000Y-114050000I-75000J0D01*
G01*
X105200000Y-114050000D01*
G75*
G02*
X105125000Y-113975000I0J75000D01*
G01*
G37*
G36*
G01*
X105125000Y-113475000D02*
X105125000Y-113325000D01*
G75*
G02*
X105200000Y-113250000I75000J0D01*
G01*
X105900000Y-113250000D01*
G75*
G02*
X105975000Y-113325000I0J-75000D01*
G01*
X105975000Y-113475000D01*
G75*
G02*
X105900000Y-113550000I-75000J0D01*
G01*
X105200000Y-113550000D01*
G75*
G02*
X105125000Y-113475000I0J75000D01*
G01*
G37*
G36*
G01*
X105125000Y-112975000D02*
X105125000Y-112825000D01*
G75*
G02*
X105200000Y-112750000I75000J0D01*
G01*
X105900000Y-112750000D01*
G75*
G02*
X105975000Y-112825000I0J-75000D01*
G01*
X105975000Y-112975000D01*
G75*
G02*
X105900000Y-113050000I-75000J0D01*
G01*
X105200000Y-113050000D01*
G75*
G02*
X105125000Y-112975000I0J75000D01*
G01*
G37*
G36*
G01*
X106175000Y-111775000D02*
X106325000Y-111775000D01*
G75*
G02*
X106400000Y-111850000I0J-75000D01*
G01*
X106400000Y-112550000D01*
G75*
G02*
X106325000Y-112625000I-75000J0D01*
G01*
X106175000Y-112625000D01*
G75*
G02*
X106100000Y-112550000I0J75000D01*
G01*
X106100000Y-111850000D01*
G75*
G02*
X106175000Y-111775000I75000J0D01*
G01*
G37*
G36*
G01*
X106675000Y-111775000D02*
X106825000Y-111775000D01*
G75*
G02*
X106900000Y-111850000I0J-75000D01*
G01*
X106900000Y-112550000D01*
G75*
G02*
X106825000Y-112625000I-75000J0D01*
G01*
X106675000Y-112625000D01*
G75*
G02*
X106600000Y-112550000I0J75000D01*
G01*
X106600000Y-111850000D01*
G75*
G02*
X106675000Y-111775000I75000J0D01*
G01*
G37*
G36*
G01*
X107175000Y-111775000D02*
X107325000Y-111775000D01*
G75*
G02*
X107400000Y-111850000I0J-75000D01*
G01*
X107400000Y-112550000D01*
G75*
G02*
X107325000Y-112625000I-75000J0D01*
G01*
X107175000Y-112625000D01*
G75*
G02*
X107100000Y-112550000I0J75000D01*
G01*
X107100000Y-111850000D01*
G75*
G02*
X107175000Y-111775000I75000J0D01*
G01*
G37*
G36*
G01*
X107675000Y-111775000D02*
X107825000Y-111775000D01*
G75*
G02*
X107900000Y-111850000I0J-75000D01*
G01*
X107900000Y-112550000D01*
G75*
G02*
X107825000Y-112625000I-75000J0D01*
G01*
X107675000Y-112625000D01*
G75*
G02*
X107600000Y-112550000I0J75000D01*
G01*
X107600000Y-111850000D01*
G75*
G02*
X107675000Y-111775000I75000J0D01*
G01*
G37*
G36*
G01*
X108175000Y-111775000D02*
X108325000Y-111775000D01*
G75*
G02*
X108400000Y-111850000I0J-75000D01*
G01*
X108400000Y-112550000D01*
G75*
G02*
X108325000Y-112625000I-75000J0D01*
G01*
X108175000Y-112625000D01*
G75*
G02*
X108100000Y-112550000I0J75000D01*
G01*
X108100000Y-111850000D01*
G75*
G02*
X108175000Y-111775000I75000J0D01*
G01*
G37*
G36*
G01*
X108675000Y-111775000D02*
X108825000Y-111775000D01*
G75*
G02*
X108900000Y-111850000I0J-75000D01*
G01*
X108900000Y-112550000D01*
G75*
G02*
X108825000Y-112625000I-75000J0D01*
G01*
X108675000Y-112625000D01*
G75*
G02*
X108600000Y-112550000I0J75000D01*
G01*
X108600000Y-111850000D01*
G75*
G02*
X108675000Y-111775000I75000J0D01*
G01*
G37*
%TD*%
%TO.C,U5*%
G36*
G01*
X107615000Y-130747500D02*
X107615000Y-129902500D01*
G75*
G02*
X107857500Y-129660000I242500J0D01*
G01*
X108342500Y-129660000D01*
G75*
G02*
X108585000Y-129902500I0J-242500D01*
G01*
X108585000Y-130747500D01*
G75*
G02*
X108342500Y-130990000I-242500J0D01*
G01*
X107857500Y-130990000D01*
G75*
G02*
X107615000Y-130747500I0J242500D01*
G01*
G37*
G36*
G01*
X107615000Y-129097500D02*
X107615000Y-128252500D01*
G75*
G02*
X107857500Y-128010000I242500J0D01*
G01*
X108342500Y-128010000D01*
G75*
G02*
X108585000Y-128252500I0J-242500D01*
G01*
X108585000Y-129097500D01*
G75*
G02*
X108342500Y-129340000I-242500J0D01*
G01*
X107857500Y-129340000D01*
G75*
G02*
X107615000Y-129097500I0J242500D01*
G01*
G37*
G36*
G01*
X106415000Y-130747500D02*
X106415000Y-129902500D01*
G75*
G02*
X106657500Y-129660000I242500J0D01*
G01*
X107142500Y-129660000D01*
G75*
G02*
X107385000Y-129902500I0J-242500D01*
G01*
X107385000Y-130747500D01*
G75*
G02*
X107142500Y-130990000I-242500J0D01*
G01*
X106657500Y-130990000D01*
G75*
G02*
X106415000Y-130747500I0J242500D01*
G01*
G37*
G36*
G01*
X106415000Y-129097500D02*
X106415000Y-128252500D01*
G75*
G02*
X106657500Y-128010000I242500J0D01*
G01*
X107142500Y-128010000D01*
G75*
G02*
X107385000Y-128252500I0J-242500D01*
G01*
X107385000Y-129097500D01*
G75*
G02*
X107142500Y-129340000I-242500J0D01*
G01*
X106657500Y-129340000D01*
G75*
G02*
X106415000Y-129097500I0J242500D01*
G01*
G37*
G36*
G01*
X109000000Y-127745000D02*
X109000000Y-127445000D01*
G75*
G02*
X109150000Y-127295000I150000J0D01*
G01*
X110800000Y-127295000D01*
G75*
G02*
X110950000Y-127445000I0J-150000D01*
G01*
X110950000Y-127745000D01*
G75*
G02*
X110800000Y-127895000I-150000J0D01*
G01*
X109150000Y-127895000D01*
G75*
G02*
X109000000Y-127745000I0J150000D01*
G01*
G37*
G36*
G01*
X109000000Y-129015000D02*
X109000000Y-128715000D01*
G75*
G02*
X109150000Y-128565000I150000J0D01*
G01*
X110800000Y-128565000D01*
G75*
G02*
X110950000Y-128715000I0J-150000D01*
G01*
X110950000Y-129015000D01*
G75*
G02*
X110800000Y-129165000I-150000J0D01*
G01*
X109150000Y-129165000D01*
G75*
G02*
X109000000Y-129015000I0J150000D01*
G01*
G37*
G36*
G01*
X109000000Y-130285000D02*
X109000000Y-129985000D01*
G75*
G02*
X109150000Y-129835000I150000J0D01*
G01*
X110800000Y-129835000D01*
G75*
G02*
X110950000Y-129985000I0J-150000D01*
G01*
X110950000Y-130285000D01*
G75*
G02*
X110800000Y-130435000I-150000J0D01*
G01*
X109150000Y-130435000D01*
G75*
G02*
X109000000Y-130285000I0J150000D01*
G01*
G37*
G36*
G01*
X109000000Y-131555000D02*
X109000000Y-131255000D01*
G75*
G02*
X109150000Y-131105000I150000J0D01*
G01*
X110800000Y-131105000D01*
G75*
G02*
X110950000Y-131255000I0J-150000D01*
G01*
X110950000Y-131555000D01*
G75*
G02*
X110800000Y-131705000I-150000J0D01*
G01*
X109150000Y-131705000D01*
G75*
G02*
X109000000Y-131555000I0J150000D01*
G01*
G37*
G36*
G01*
X104050000Y-131555000D02*
X104050000Y-131255000D01*
G75*
G02*
X104200000Y-131105000I150000J0D01*
G01*
X105850000Y-131105000D01*
G75*
G02*
X106000000Y-131255000I0J-150000D01*
G01*
X106000000Y-131555000D01*
G75*
G02*
X105850000Y-131705000I-150000J0D01*
G01*
X104200000Y-131705000D01*
G75*
G02*
X104050000Y-131555000I0J150000D01*
G01*
G37*
G36*
G01*
X104050000Y-130285000D02*
X104050000Y-129985000D01*
G75*
G02*
X104200000Y-129835000I150000J0D01*
G01*
X105850000Y-129835000D01*
G75*
G02*
X106000000Y-129985000I0J-150000D01*
G01*
X106000000Y-130285000D01*
G75*
G02*
X105850000Y-130435000I-150000J0D01*
G01*
X104200000Y-130435000D01*
G75*
G02*
X104050000Y-130285000I0J150000D01*
G01*
G37*
G36*
G01*
X104050000Y-129015000D02*
X104050000Y-128715000D01*
G75*
G02*
X104200000Y-128565000I150000J0D01*
G01*
X105850000Y-128565000D01*
G75*
G02*
X106000000Y-128715000I0J-150000D01*
G01*
X106000000Y-129015000D01*
G75*
G02*
X105850000Y-129165000I-150000J0D01*
G01*
X104200000Y-129165000D01*
G75*
G02*
X104050000Y-129015000I0J150000D01*
G01*
G37*
G36*
G01*
X104050000Y-127745000D02*
X104050000Y-127445000D01*
G75*
G02*
X104200000Y-127295000I150000J0D01*
G01*
X105850000Y-127295000D01*
G75*
G02*
X106000000Y-127445000I0J-150000D01*
G01*
X106000000Y-127745000D01*
G75*
G02*
X105850000Y-127895000I-150000J0D01*
G01*
X104200000Y-127895000D01*
G75*
G02*
X104050000Y-127745000I0J150000D01*
G01*
G37*
%TD*%
%TO.C,U4*%
G36*
G01*
X123500000Y-124750000D02*
X124825000Y-124750000D01*
G75*
G02*
X124900000Y-124825000I0J-75000D01*
G01*
X124900000Y-124975000D01*
G75*
G02*
X124825000Y-125050000I-75000J0D01*
G01*
X123500000Y-125050000D01*
G75*
G02*
X123425000Y-124975000I0J75000D01*
G01*
X123425000Y-124825000D01*
G75*
G02*
X123500000Y-124750000I75000J0D01*
G01*
G37*
G36*
G01*
X123500000Y-125250000D02*
X124825000Y-125250000D01*
G75*
G02*
X124900000Y-125325000I0J-75000D01*
G01*
X124900000Y-125475000D01*
G75*
G02*
X124825000Y-125550000I-75000J0D01*
G01*
X123500000Y-125550000D01*
G75*
G02*
X123425000Y-125475000I0J75000D01*
G01*
X123425000Y-125325000D01*
G75*
G02*
X123500000Y-125250000I75000J0D01*
G01*
G37*
G36*
G01*
X123500000Y-125750000D02*
X124825000Y-125750000D01*
G75*
G02*
X124900000Y-125825000I0J-75000D01*
G01*
X124900000Y-125975000D01*
G75*
G02*
X124825000Y-126050000I-75000J0D01*
G01*
X123500000Y-126050000D01*
G75*
G02*
X123425000Y-125975000I0J75000D01*
G01*
X123425000Y-125825000D01*
G75*
G02*
X123500000Y-125750000I75000J0D01*
G01*
G37*
G36*
G01*
X123500000Y-126250000D02*
X124825000Y-126250000D01*
G75*
G02*
X124900000Y-126325000I0J-75000D01*
G01*
X124900000Y-126475000D01*
G75*
G02*
X124825000Y-126550000I-75000J0D01*
G01*
X123500000Y-126550000D01*
G75*
G02*
X123425000Y-126475000I0J75000D01*
G01*
X123425000Y-126325000D01*
G75*
G02*
X123500000Y-126250000I75000J0D01*
G01*
G37*
G36*
G01*
X123500000Y-126750000D02*
X124825000Y-126750000D01*
G75*
G02*
X124900000Y-126825000I0J-75000D01*
G01*
X124900000Y-126975000D01*
G75*
G02*
X124825000Y-127050000I-75000J0D01*
G01*
X123500000Y-127050000D01*
G75*
G02*
X123425000Y-126975000I0J75000D01*
G01*
X123425000Y-126825000D01*
G75*
G02*
X123500000Y-126750000I75000J0D01*
G01*
G37*
G36*
G01*
X123500000Y-127250000D02*
X124825000Y-127250000D01*
G75*
G02*
X124900000Y-127325000I0J-75000D01*
G01*
X124900000Y-127475000D01*
G75*
G02*
X124825000Y-127550000I-75000J0D01*
G01*
X123500000Y-127550000D01*
G75*
G02*
X123425000Y-127475000I0J75000D01*
G01*
X123425000Y-127325000D01*
G75*
G02*
X123500000Y-127250000I75000J0D01*
G01*
G37*
G36*
G01*
X123500000Y-127750000D02*
X124825000Y-127750000D01*
G75*
G02*
X124900000Y-127825000I0J-75000D01*
G01*
X124900000Y-127975000D01*
G75*
G02*
X124825000Y-128050000I-75000J0D01*
G01*
X123500000Y-128050000D01*
G75*
G02*
X123425000Y-127975000I0J75000D01*
G01*
X123425000Y-127825000D01*
G75*
G02*
X123500000Y-127750000I75000J0D01*
G01*
G37*
G36*
G01*
X123500000Y-128250000D02*
X124825000Y-128250000D01*
G75*
G02*
X124900000Y-128325000I0J-75000D01*
G01*
X124900000Y-128475000D01*
G75*
G02*
X124825000Y-128550000I-75000J0D01*
G01*
X123500000Y-128550000D01*
G75*
G02*
X123425000Y-128475000I0J75000D01*
G01*
X123425000Y-128325000D01*
G75*
G02*
X123500000Y-128250000I75000J0D01*
G01*
G37*
G36*
G01*
X123500000Y-128750000D02*
X124825000Y-128750000D01*
G75*
G02*
X124900000Y-128825000I0J-75000D01*
G01*
X124900000Y-128975000D01*
G75*
G02*
X124825000Y-129050000I-75000J0D01*
G01*
X123500000Y-129050000D01*
G75*
G02*
X123425000Y-128975000I0J75000D01*
G01*
X123425000Y-128825000D01*
G75*
G02*
X123500000Y-128750000I75000J0D01*
G01*
G37*
G36*
G01*
X123500000Y-129250000D02*
X124825000Y-129250000D01*
G75*
G02*
X124900000Y-129325000I0J-75000D01*
G01*
X124900000Y-129475000D01*
G75*
G02*
X124825000Y-129550000I-75000J0D01*
G01*
X123500000Y-129550000D01*
G75*
G02*
X123425000Y-129475000I0J75000D01*
G01*
X123425000Y-129325000D01*
G75*
G02*
X123500000Y-129250000I75000J0D01*
G01*
G37*
G36*
G01*
X123500000Y-129750000D02*
X124825000Y-129750000D01*
G75*
G02*
X124900000Y-129825000I0J-75000D01*
G01*
X124900000Y-129975000D01*
G75*
G02*
X124825000Y-130050000I-75000J0D01*
G01*
X123500000Y-130050000D01*
G75*
G02*
X123425000Y-129975000I0J75000D01*
G01*
X123425000Y-129825000D01*
G75*
G02*
X123500000Y-129750000I75000J0D01*
G01*
G37*
G36*
G01*
X123500000Y-130250000D02*
X124825000Y-130250000D01*
G75*
G02*
X124900000Y-130325000I0J-75000D01*
G01*
X124900000Y-130475000D01*
G75*
G02*
X124825000Y-130550000I-75000J0D01*
G01*
X123500000Y-130550000D01*
G75*
G02*
X123425000Y-130475000I0J75000D01*
G01*
X123425000Y-130325000D01*
G75*
G02*
X123500000Y-130250000I75000J0D01*
G01*
G37*
G36*
G01*
X122675000Y-131075000D02*
X122825000Y-131075000D01*
G75*
G02*
X122900000Y-131150000I0J-75000D01*
G01*
X122900000Y-132475000D01*
G75*
G02*
X122825000Y-132550000I-75000J0D01*
G01*
X122675000Y-132550000D01*
G75*
G02*
X122600000Y-132475000I0J75000D01*
G01*
X122600000Y-131150000D01*
G75*
G02*
X122675000Y-131075000I75000J0D01*
G01*
G37*
G36*
G01*
X122175000Y-131075000D02*
X122325000Y-131075000D01*
G75*
G02*
X122400000Y-131150000I0J-75000D01*
G01*
X122400000Y-132475000D01*
G75*
G02*
X122325000Y-132550000I-75000J0D01*
G01*
X122175000Y-132550000D01*
G75*
G02*
X122100000Y-132475000I0J75000D01*
G01*
X122100000Y-131150000D01*
G75*
G02*
X122175000Y-131075000I75000J0D01*
G01*
G37*
G36*
G01*
X121675000Y-131075000D02*
X121825000Y-131075000D01*
G75*
G02*
X121900000Y-131150000I0J-75000D01*
G01*
X121900000Y-132475000D01*
G75*
G02*
X121825000Y-132550000I-75000J0D01*
G01*
X121675000Y-132550000D01*
G75*
G02*
X121600000Y-132475000I0J75000D01*
G01*
X121600000Y-131150000D01*
G75*
G02*
X121675000Y-131075000I75000J0D01*
G01*
G37*
G36*
G01*
X121175000Y-131075000D02*
X121325000Y-131075000D01*
G75*
G02*
X121400000Y-131150000I0J-75000D01*
G01*
X121400000Y-132475000D01*
G75*
G02*
X121325000Y-132550000I-75000J0D01*
G01*
X121175000Y-132550000D01*
G75*
G02*
X121100000Y-132475000I0J75000D01*
G01*
X121100000Y-131150000D01*
G75*
G02*
X121175000Y-131075000I75000J0D01*
G01*
G37*
G36*
G01*
X120675000Y-131075000D02*
X120825000Y-131075000D01*
G75*
G02*
X120900000Y-131150000I0J-75000D01*
G01*
X120900000Y-132475000D01*
G75*
G02*
X120825000Y-132550000I-75000J0D01*
G01*
X120675000Y-132550000D01*
G75*
G02*
X120600000Y-132475000I0J75000D01*
G01*
X120600000Y-131150000D01*
G75*
G02*
X120675000Y-131075000I75000J0D01*
G01*
G37*
G36*
G01*
X120175000Y-131075000D02*
X120325000Y-131075000D01*
G75*
G02*
X120400000Y-131150000I0J-75000D01*
G01*
X120400000Y-132475000D01*
G75*
G02*
X120325000Y-132550000I-75000J0D01*
G01*
X120175000Y-132550000D01*
G75*
G02*
X120100000Y-132475000I0J75000D01*
G01*
X120100000Y-131150000D01*
G75*
G02*
X120175000Y-131075000I75000J0D01*
G01*
G37*
G36*
G01*
X119675000Y-131075000D02*
X119825000Y-131075000D01*
G75*
G02*
X119900000Y-131150000I0J-75000D01*
G01*
X119900000Y-132475000D01*
G75*
G02*
X119825000Y-132550000I-75000J0D01*
G01*
X119675000Y-132550000D01*
G75*
G02*
X119600000Y-132475000I0J75000D01*
G01*
X119600000Y-131150000D01*
G75*
G02*
X119675000Y-131075000I75000J0D01*
G01*
G37*
G36*
G01*
X119175000Y-131075000D02*
X119325000Y-131075000D01*
G75*
G02*
X119400000Y-131150000I0J-75000D01*
G01*
X119400000Y-132475000D01*
G75*
G02*
X119325000Y-132550000I-75000J0D01*
G01*
X119175000Y-132550000D01*
G75*
G02*
X119100000Y-132475000I0J75000D01*
G01*
X119100000Y-131150000D01*
G75*
G02*
X119175000Y-131075000I75000J0D01*
G01*
G37*
G36*
G01*
X118675000Y-131075000D02*
X118825000Y-131075000D01*
G75*
G02*
X118900000Y-131150000I0J-75000D01*
G01*
X118900000Y-132475000D01*
G75*
G02*
X118825000Y-132550000I-75000J0D01*
G01*
X118675000Y-132550000D01*
G75*
G02*
X118600000Y-132475000I0J75000D01*
G01*
X118600000Y-131150000D01*
G75*
G02*
X118675000Y-131075000I75000J0D01*
G01*
G37*
G36*
G01*
X118175000Y-131075000D02*
X118325000Y-131075000D01*
G75*
G02*
X118400000Y-131150000I0J-75000D01*
G01*
X118400000Y-132475000D01*
G75*
G02*
X118325000Y-132550000I-75000J0D01*
G01*
X118175000Y-132550000D01*
G75*
G02*
X118100000Y-132475000I0J75000D01*
G01*
X118100000Y-131150000D01*
G75*
G02*
X118175000Y-131075000I75000J0D01*
G01*
G37*
G36*
G01*
X117675000Y-131075000D02*
X117825000Y-131075000D01*
G75*
G02*
X117900000Y-131150000I0J-75000D01*
G01*
X117900000Y-132475000D01*
G75*
G02*
X117825000Y-132550000I-75000J0D01*
G01*
X117675000Y-132550000D01*
G75*
G02*
X117600000Y-132475000I0J75000D01*
G01*
X117600000Y-131150000D01*
G75*
G02*
X117675000Y-131075000I75000J0D01*
G01*
G37*
G36*
G01*
X117175000Y-131075000D02*
X117325000Y-131075000D01*
G75*
G02*
X117400000Y-131150000I0J-75000D01*
G01*
X117400000Y-132475000D01*
G75*
G02*
X117325000Y-132550000I-75000J0D01*
G01*
X117175000Y-132550000D01*
G75*
G02*
X117100000Y-132475000I0J75000D01*
G01*
X117100000Y-131150000D01*
G75*
G02*
X117175000Y-131075000I75000J0D01*
G01*
G37*
G36*
G01*
X115175000Y-130250000D02*
X116500000Y-130250000D01*
G75*
G02*
X116575000Y-130325000I0J-75000D01*
G01*
X116575000Y-130475000D01*
G75*
G02*
X116500000Y-130550000I-75000J0D01*
G01*
X115175000Y-130550000D01*
G75*
G02*
X115100000Y-130475000I0J75000D01*
G01*
X115100000Y-130325000D01*
G75*
G02*
X115175000Y-130250000I75000J0D01*
G01*
G37*
G36*
G01*
X115175000Y-129750000D02*
X116500000Y-129750000D01*
G75*
G02*
X116575000Y-129825000I0J-75000D01*
G01*
X116575000Y-129975000D01*
G75*
G02*
X116500000Y-130050000I-75000J0D01*
G01*
X115175000Y-130050000D01*
G75*
G02*
X115100000Y-129975000I0J75000D01*
G01*
X115100000Y-129825000D01*
G75*
G02*
X115175000Y-129750000I75000J0D01*
G01*
G37*
G36*
G01*
X115175000Y-129250000D02*
X116500000Y-129250000D01*
G75*
G02*
X116575000Y-129325000I0J-75000D01*
G01*
X116575000Y-129475000D01*
G75*
G02*
X116500000Y-129550000I-75000J0D01*
G01*
X115175000Y-129550000D01*
G75*
G02*
X115100000Y-129475000I0J75000D01*
G01*
X115100000Y-129325000D01*
G75*
G02*
X115175000Y-129250000I75000J0D01*
G01*
G37*
G36*
G01*
X115175000Y-128750000D02*
X116500000Y-128750000D01*
G75*
G02*
X116575000Y-128825000I0J-75000D01*
G01*
X116575000Y-128975000D01*
G75*
G02*
X116500000Y-129050000I-75000J0D01*
G01*
X115175000Y-129050000D01*
G75*
G02*
X115100000Y-128975000I0J75000D01*
G01*
X115100000Y-128825000D01*
G75*
G02*
X115175000Y-128750000I75000J0D01*
G01*
G37*
G36*
G01*
X115175000Y-128250000D02*
X116500000Y-128250000D01*
G75*
G02*
X116575000Y-128325000I0J-75000D01*
G01*
X116575000Y-128475000D01*
G75*
G02*
X116500000Y-128550000I-75000J0D01*
G01*
X115175000Y-128550000D01*
G75*
G02*
X115100000Y-128475000I0J75000D01*
G01*
X115100000Y-128325000D01*
G75*
G02*
X115175000Y-128250000I75000J0D01*
G01*
G37*
G36*
G01*
X115175000Y-127750000D02*
X116500000Y-127750000D01*
G75*
G02*
X116575000Y-127825000I0J-75000D01*
G01*
X116575000Y-127975000D01*
G75*
G02*
X116500000Y-128050000I-75000J0D01*
G01*
X115175000Y-128050000D01*
G75*
G02*
X115100000Y-127975000I0J75000D01*
G01*
X115100000Y-127825000D01*
G75*
G02*
X115175000Y-127750000I75000J0D01*
G01*
G37*
G36*
G01*
X115175000Y-127250000D02*
X116500000Y-127250000D01*
G75*
G02*
X116575000Y-127325000I0J-75000D01*
G01*
X116575000Y-127475000D01*
G75*
G02*
X116500000Y-127550000I-75000J0D01*
G01*
X115175000Y-127550000D01*
G75*
G02*
X115100000Y-127475000I0J75000D01*
G01*
X115100000Y-127325000D01*
G75*
G02*
X115175000Y-127250000I75000J0D01*
G01*
G37*
G36*
G01*
X115175000Y-126750000D02*
X116500000Y-126750000D01*
G75*
G02*
X116575000Y-126825000I0J-75000D01*
G01*
X116575000Y-126975000D01*
G75*
G02*
X116500000Y-127050000I-75000J0D01*
G01*
X115175000Y-127050000D01*
G75*
G02*
X115100000Y-126975000I0J75000D01*
G01*
X115100000Y-126825000D01*
G75*
G02*
X115175000Y-126750000I75000J0D01*
G01*
G37*
G36*
G01*
X115175000Y-126250000D02*
X116500000Y-126250000D01*
G75*
G02*
X116575000Y-126325000I0J-75000D01*
G01*
X116575000Y-126475000D01*
G75*
G02*
X116500000Y-126550000I-75000J0D01*
G01*
X115175000Y-126550000D01*
G75*
G02*
X115100000Y-126475000I0J75000D01*
G01*
X115100000Y-126325000D01*
G75*
G02*
X115175000Y-126250000I75000J0D01*
G01*
G37*
G36*
G01*
X115175000Y-125750000D02*
X116500000Y-125750000D01*
G75*
G02*
X116575000Y-125825000I0J-75000D01*
G01*
X116575000Y-125975000D01*
G75*
G02*
X116500000Y-126050000I-75000J0D01*
G01*
X115175000Y-126050000D01*
G75*
G02*
X115100000Y-125975000I0J75000D01*
G01*
X115100000Y-125825000D01*
G75*
G02*
X115175000Y-125750000I75000J0D01*
G01*
G37*
G36*
G01*
X115175000Y-125250000D02*
X116500000Y-125250000D01*
G75*
G02*
X116575000Y-125325000I0J-75000D01*
G01*
X116575000Y-125475000D01*
G75*
G02*
X116500000Y-125550000I-75000J0D01*
G01*
X115175000Y-125550000D01*
G75*
G02*
X115100000Y-125475000I0J75000D01*
G01*
X115100000Y-125325000D01*
G75*
G02*
X115175000Y-125250000I75000J0D01*
G01*
G37*
G36*
G01*
X115175000Y-124750000D02*
X116500000Y-124750000D01*
G75*
G02*
X116575000Y-124825000I0J-75000D01*
G01*
X116575000Y-124975000D01*
G75*
G02*
X116500000Y-125050000I-75000J0D01*
G01*
X115175000Y-125050000D01*
G75*
G02*
X115100000Y-124975000I0J75000D01*
G01*
X115100000Y-124825000D01*
G75*
G02*
X115175000Y-124750000I75000J0D01*
G01*
G37*
G36*
G01*
X117175000Y-122750000D02*
X117325000Y-122750000D01*
G75*
G02*
X117400000Y-122825000I0J-75000D01*
G01*
X117400000Y-124150000D01*
G75*
G02*
X117325000Y-124225000I-75000J0D01*
G01*
X117175000Y-124225000D01*
G75*
G02*
X117100000Y-124150000I0J75000D01*
G01*
X117100000Y-122825000D01*
G75*
G02*
X117175000Y-122750000I75000J0D01*
G01*
G37*
G36*
G01*
X117675000Y-122750000D02*
X117825000Y-122750000D01*
G75*
G02*
X117900000Y-122825000I0J-75000D01*
G01*
X117900000Y-124150000D01*
G75*
G02*
X117825000Y-124225000I-75000J0D01*
G01*
X117675000Y-124225000D01*
G75*
G02*
X117600000Y-124150000I0J75000D01*
G01*
X117600000Y-122825000D01*
G75*
G02*
X117675000Y-122750000I75000J0D01*
G01*
G37*
G36*
G01*
X118175000Y-122750000D02*
X118325000Y-122750000D01*
G75*
G02*
X118400000Y-122825000I0J-75000D01*
G01*
X118400000Y-124150000D01*
G75*
G02*
X118325000Y-124225000I-75000J0D01*
G01*
X118175000Y-124225000D01*
G75*
G02*
X118100000Y-124150000I0J75000D01*
G01*
X118100000Y-122825000D01*
G75*
G02*
X118175000Y-122750000I75000J0D01*
G01*
G37*
G36*
G01*
X118675000Y-122750000D02*
X118825000Y-122750000D01*
G75*
G02*
X118900000Y-122825000I0J-75000D01*
G01*
X118900000Y-124150000D01*
G75*
G02*
X118825000Y-124225000I-75000J0D01*
G01*
X118675000Y-124225000D01*
G75*
G02*
X118600000Y-124150000I0J75000D01*
G01*
X118600000Y-122825000D01*
G75*
G02*
X118675000Y-122750000I75000J0D01*
G01*
G37*
G36*
G01*
X119175000Y-122750000D02*
X119325000Y-122750000D01*
G75*
G02*
X119400000Y-122825000I0J-75000D01*
G01*
X119400000Y-124150000D01*
G75*
G02*
X119325000Y-124225000I-75000J0D01*
G01*
X119175000Y-124225000D01*
G75*
G02*
X119100000Y-124150000I0J75000D01*
G01*
X119100000Y-122825000D01*
G75*
G02*
X119175000Y-122750000I75000J0D01*
G01*
G37*
G36*
G01*
X119675000Y-122750000D02*
X119825000Y-122750000D01*
G75*
G02*
X119900000Y-122825000I0J-75000D01*
G01*
X119900000Y-124150000D01*
G75*
G02*
X119825000Y-124225000I-75000J0D01*
G01*
X119675000Y-124225000D01*
G75*
G02*
X119600000Y-124150000I0J75000D01*
G01*
X119600000Y-122825000D01*
G75*
G02*
X119675000Y-122750000I75000J0D01*
G01*
G37*
G36*
G01*
X120175000Y-122750000D02*
X120325000Y-122750000D01*
G75*
G02*
X120400000Y-122825000I0J-75000D01*
G01*
X120400000Y-124150000D01*
G75*
G02*
X120325000Y-124225000I-75000J0D01*
G01*
X120175000Y-124225000D01*
G75*
G02*
X120100000Y-124150000I0J75000D01*
G01*
X120100000Y-122825000D01*
G75*
G02*
X120175000Y-122750000I75000J0D01*
G01*
G37*
G36*
G01*
X120675000Y-122750000D02*
X120825000Y-122750000D01*
G75*
G02*
X120900000Y-122825000I0J-75000D01*
G01*
X120900000Y-124150000D01*
G75*
G02*
X120825000Y-124225000I-75000J0D01*
G01*
X120675000Y-124225000D01*
G75*
G02*
X120600000Y-124150000I0J75000D01*
G01*
X120600000Y-122825000D01*
G75*
G02*
X120675000Y-122750000I75000J0D01*
G01*
G37*
G36*
G01*
X121175000Y-122750000D02*
X121325000Y-122750000D01*
G75*
G02*
X121400000Y-122825000I0J-75000D01*
G01*
X121400000Y-124150000D01*
G75*
G02*
X121325000Y-124225000I-75000J0D01*
G01*
X121175000Y-124225000D01*
G75*
G02*
X121100000Y-124150000I0J75000D01*
G01*
X121100000Y-122825000D01*
G75*
G02*
X121175000Y-122750000I75000J0D01*
G01*
G37*
G36*
G01*
X121675000Y-122750000D02*
X121825000Y-122750000D01*
G75*
G02*
X121900000Y-122825000I0J-75000D01*
G01*
X121900000Y-124150000D01*
G75*
G02*
X121825000Y-124225000I-75000J0D01*
G01*
X121675000Y-124225000D01*
G75*
G02*
X121600000Y-124150000I0J75000D01*
G01*
X121600000Y-122825000D01*
G75*
G02*
X121675000Y-122750000I75000J0D01*
G01*
G37*
G36*
G01*
X122175000Y-122750000D02*
X122325000Y-122750000D01*
G75*
G02*
X122400000Y-122825000I0J-75000D01*
G01*
X122400000Y-124150000D01*
G75*
G02*
X122325000Y-124225000I-75000J0D01*
G01*
X122175000Y-124225000D01*
G75*
G02*
X122100000Y-124150000I0J75000D01*
G01*
X122100000Y-122825000D01*
G75*
G02*
X122175000Y-122750000I75000J0D01*
G01*
G37*
G36*
G01*
X122675000Y-122750000D02*
X122825000Y-122750000D01*
G75*
G02*
X122900000Y-122825000I0J-75000D01*
G01*
X122900000Y-124150000D01*
G75*
G02*
X122825000Y-124225000I-75000J0D01*
G01*
X122675000Y-124225000D01*
G75*
G02*
X122600000Y-124150000I0J75000D01*
G01*
X122600000Y-122825000D01*
G75*
G02*
X122675000Y-122750000I75000J0D01*
G01*
G37*
%TD*%
%TO.C,U3*%
G36*
G01*
X130375000Y-123675000D02*
X130375000Y-123875000D01*
G75*
G02*
X130275000Y-123975000I-100000J0D01*
G01*
X129000000Y-123975000D01*
G75*
G02*
X128900000Y-123875000I0J100000D01*
G01*
X128900000Y-123675000D01*
G75*
G02*
X129000000Y-123575000I100000J0D01*
G01*
X130275000Y-123575000D01*
G75*
G02*
X130375000Y-123675000I0J-100000D01*
G01*
G37*
G36*
G01*
X130375000Y-123025000D02*
X130375000Y-123225000D01*
G75*
G02*
X130275000Y-123325000I-100000J0D01*
G01*
X129000000Y-123325000D01*
G75*
G02*
X128900000Y-123225000I0J100000D01*
G01*
X128900000Y-123025000D01*
G75*
G02*
X129000000Y-122925000I100000J0D01*
G01*
X130275000Y-122925000D01*
G75*
G02*
X130375000Y-123025000I0J-100000D01*
G01*
G37*
G36*
G01*
X130375000Y-122375000D02*
X130375000Y-122575000D01*
G75*
G02*
X130275000Y-122675000I-100000J0D01*
G01*
X129000000Y-122675000D01*
G75*
G02*
X128900000Y-122575000I0J100000D01*
G01*
X128900000Y-122375000D01*
G75*
G02*
X129000000Y-122275000I100000J0D01*
G01*
X130275000Y-122275000D01*
G75*
G02*
X130375000Y-122375000I0J-100000D01*
G01*
G37*
G36*
G01*
X130375000Y-121725000D02*
X130375000Y-121925000D01*
G75*
G02*
X130275000Y-122025000I-100000J0D01*
G01*
X129000000Y-122025000D01*
G75*
G02*
X128900000Y-121925000I0J100000D01*
G01*
X128900000Y-121725000D01*
G75*
G02*
X129000000Y-121625000I100000J0D01*
G01*
X130275000Y-121625000D01*
G75*
G02*
X130375000Y-121725000I0J-100000D01*
G01*
G37*
G36*
G01*
X130375000Y-121075000D02*
X130375000Y-121275000D01*
G75*
G02*
X130275000Y-121375000I-100000J0D01*
G01*
X129000000Y-121375000D01*
G75*
G02*
X128900000Y-121275000I0J100000D01*
G01*
X128900000Y-121075000D01*
G75*
G02*
X129000000Y-120975000I100000J0D01*
G01*
X130275000Y-120975000D01*
G75*
G02*
X130375000Y-121075000I0J-100000D01*
G01*
G37*
G36*
G01*
X130375000Y-120425000D02*
X130375000Y-120625000D01*
G75*
G02*
X130275000Y-120725000I-100000J0D01*
G01*
X129000000Y-120725000D01*
G75*
G02*
X128900000Y-120625000I0J100000D01*
G01*
X128900000Y-120425000D01*
G75*
G02*
X129000000Y-120325000I100000J0D01*
G01*
X130275000Y-120325000D01*
G75*
G02*
X130375000Y-120425000I0J-100000D01*
G01*
G37*
G36*
G01*
X130375000Y-119775000D02*
X130375000Y-119975000D01*
G75*
G02*
X130275000Y-120075000I-100000J0D01*
G01*
X129000000Y-120075000D01*
G75*
G02*
X128900000Y-119975000I0J100000D01*
G01*
X128900000Y-119775000D01*
G75*
G02*
X129000000Y-119675000I100000J0D01*
G01*
X130275000Y-119675000D01*
G75*
G02*
X130375000Y-119775000I0J-100000D01*
G01*
G37*
G36*
G01*
X130375000Y-119125000D02*
X130375000Y-119325000D01*
G75*
G02*
X130275000Y-119425000I-100000J0D01*
G01*
X129000000Y-119425000D01*
G75*
G02*
X128900000Y-119325000I0J100000D01*
G01*
X128900000Y-119125000D01*
G75*
G02*
X129000000Y-119025000I100000J0D01*
G01*
X130275000Y-119025000D01*
G75*
G02*
X130375000Y-119125000I0J-100000D01*
G01*
G37*
G36*
G01*
X136100000Y-119125000D02*
X136100000Y-119325000D01*
G75*
G02*
X136000000Y-119425000I-100000J0D01*
G01*
X134725000Y-119425000D01*
G75*
G02*
X134625000Y-119325000I0J100000D01*
G01*
X134625000Y-119125000D01*
G75*
G02*
X134725000Y-119025000I100000J0D01*
G01*
X136000000Y-119025000D01*
G75*
G02*
X136100000Y-119125000I0J-100000D01*
G01*
G37*
G36*
G01*
X136100000Y-119775000D02*
X136100000Y-119975000D01*
G75*
G02*
X136000000Y-120075000I-100000J0D01*
G01*
X134725000Y-120075000D01*
G75*
G02*
X134625000Y-119975000I0J100000D01*
G01*
X134625000Y-119775000D01*
G75*
G02*
X134725000Y-119675000I100000J0D01*
G01*
X136000000Y-119675000D01*
G75*
G02*
X136100000Y-119775000I0J-100000D01*
G01*
G37*
G36*
G01*
X136100000Y-120425000D02*
X136100000Y-120625000D01*
G75*
G02*
X136000000Y-120725000I-100000J0D01*
G01*
X134725000Y-120725000D01*
G75*
G02*
X134625000Y-120625000I0J100000D01*
G01*
X134625000Y-120425000D01*
G75*
G02*
X134725000Y-120325000I100000J0D01*
G01*
X136000000Y-120325000D01*
G75*
G02*
X136100000Y-120425000I0J-100000D01*
G01*
G37*
G36*
G01*
X136100000Y-121075000D02*
X136100000Y-121275000D01*
G75*
G02*
X136000000Y-121375000I-100000J0D01*
G01*
X134725000Y-121375000D01*
G75*
G02*
X134625000Y-121275000I0J100000D01*
G01*
X134625000Y-121075000D01*
G75*
G02*
X134725000Y-120975000I100000J0D01*
G01*
X136000000Y-120975000D01*
G75*
G02*
X136100000Y-121075000I0J-100000D01*
G01*
G37*
G36*
G01*
X136100000Y-121725000D02*
X136100000Y-121925000D01*
G75*
G02*
X136000000Y-122025000I-100000J0D01*
G01*
X134725000Y-122025000D01*
G75*
G02*
X134625000Y-121925000I0J100000D01*
G01*
X134625000Y-121725000D01*
G75*
G02*
X134725000Y-121625000I100000J0D01*
G01*
X136000000Y-121625000D01*
G75*
G02*
X136100000Y-121725000I0J-100000D01*
G01*
G37*
G36*
G01*
X136100000Y-122375000D02*
X136100000Y-122575000D01*
G75*
G02*
X136000000Y-122675000I-100000J0D01*
G01*
X134725000Y-122675000D01*
G75*
G02*
X134625000Y-122575000I0J100000D01*
G01*
X134625000Y-122375000D01*
G75*
G02*
X134725000Y-122275000I100000J0D01*
G01*
X136000000Y-122275000D01*
G75*
G02*
X136100000Y-122375000I0J-100000D01*
G01*
G37*
G36*
G01*
X136100000Y-123025000D02*
X136100000Y-123225000D01*
G75*
G02*
X136000000Y-123325000I-100000J0D01*
G01*
X134725000Y-123325000D01*
G75*
G02*
X134625000Y-123225000I0J100000D01*
G01*
X134625000Y-123025000D01*
G75*
G02*
X134725000Y-122925000I100000J0D01*
G01*
X136000000Y-122925000D01*
G75*
G02*
X136100000Y-123025000I0J-100000D01*
G01*
G37*
G36*
G01*
X136100000Y-123675000D02*
X136100000Y-123875000D01*
G75*
G02*
X136000000Y-123975000I-100000J0D01*
G01*
X134725000Y-123975000D01*
G75*
G02*
X134625000Y-123875000I0J100000D01*
G01*
X134625000Y-123675000D01*
G75*
G02*
X134725000Y-123575000I100000J0D01*
G01*
X136000000Y-123575000D01*
G75*
G02*
X136100000Y-123675000I0J-100000D01*
G01*
G37*
%TD*%
%TO.C,U2*%
G36*
G01*
X132390000Y-128375000D02*
X132390000Y-129125000D01*
G75*
G02*
X132160000Y-129355000I-230000J0D01*
G01*
X131700000Y-129355000D01*
G75*
G02*
X131470000Y-129125000I0J230000D01*
G01*
X131470000Y-128375000D01*
G75*
G02*
X131700000Y-128145000I230000J0D01*
G01*
X132160000Y-128145000D01*
G75*
G02*
X132390000Y-128375000I0J-230000D01*
G01*
G37*
G36*
G01*
X132390000Y-129875000D02*
X132390000Y-130625000D01*
G75*
G02*
X132160000Y-130855000I-230000J0D01*
G01*
X131700000Y-130855000D01*
G75*
G02*
X131470000Y-130625000I0J230000D01*
G01*
X131470000Y-129875000D01*
G75*
G02*
X131700000Y-129645000I230000J0D01*
G01*
X132160000Y-129645000D01*
G75*
G02*
X132390000Y-129875000I0J-230000D01*
G01*
G37*
G36*
G01*
X133530000Y-128375000D02*
X133530000Y-129125000D01*
G75*
G02*
X133300000Y-129355000I-230000J0D01*
G01*
X132840000Y-129355000D01*
G75*
G02*
X132610000Y-129125000I0J230000D01*
G01*
X132610000Y-128375000D01*
G75*
G02*
X132840000Y-128145000I230000J0D01*
G01*
X133300000Y-128145000D01*
G75*
G02*
X133530000Y-128375000I0J-230000D01*
G01*
G37*
G36*
G01*
X133530000Y-129875000D02*
X133530000Y-130625000D01*
G75*
G02*
X133300000Y-130855000I-230000J0D01*
G01*
X132840000Y-130855000D01*
G75*
G02*
X132610000Y-130625000I0J230000D01*
G01*
X132610000Y-129875000D01*
G75*
G02*
X132840000Y-129645000I230000J0D01*
G01*
X133300000Y-129645000D01*
G75*
G02*
X133530000Y-129875000I0J-230000D01*
G01*
G37*
G36*
G01*
X131000000Y-131255000D02*
X131000000Y-131555000D01*
G75*
G02*
X130850000Y-131705000I-150000J0D01*
G01*
X129200000Y-131705000D01*
G75*
G02*
X129050000Y-131555000I0J150000D01*
G01*
X129050000Y-131255000D01*
G75*
G02*
X129200000Y-131105000I150000J0D01*
G01*
X130850000Y-131105000D01*
G75*
G02*
X131000000Y-131255000I0J-150000D01*
G01*
G37*
G36*
G01*
X131000000Y-129985000D02*
X131000000Y-130285000D01*
G75*
G02*
X130850000Y-130435000I-150000J0D01*
G01*
X129200000Y-130435000D01*
G75*
G02*
X129050000Y-130285000I0J150000D01*
G01*
X129050000Y-129985000D01*
G75*
G02*
X129200000Y-129835000I150000J0D01*
G01*
X130850000Y-129835000D01*
G75*
G02*
X131000000Y-129985000I0J-150000D01*
G01*
G37*
G36*
G01*
X131000000Y-128715000D02*
X131000000Y-129015000D01*
G75*
G02*
X130850000Y-129165000I-150000J0D01*
G01*
X129200000Y-129165000D01*
G75*
G02*
X129050000Y-129015000I0J150000D01*
G01*
X129050000Y-128715000D01*
G75*
G02*
X129200000Y-128565000I150000J0D01*
G01*
X130850000Y-128565000D01*
G75*
G02*
X131000000Y-128715000I0J-150000D01*
G01*
G37*
G36*
G01*
X131000000Y-127445000D02*
X131000000Y-127745000D01*
G75*
G02*
X130850000Y-127895000I-150000J0D01*
G01*
X129200000Y-127895000D01*
G75*
G02*
X129050000Y-127745000I0J150000D01*
G01*
X129050000Y-127445000D01*
G75*
G02*
X129200000Y-127295000I150000J0D01*
G01*
X130850000Y-127295000D01*
G75*
G02*
X131000000Y-127445000I0J-150000D01*
G01*
G37*
G36*
G01*
X135950000Y-127445000D02*
X135950000Y-127745000D01*
G75*
G02*
X135800000Y-127895000I-150000J0D01*
G01*
X134150000Y-127895000D01*
G75*
G02*
X134000000Y-127745000I0J150000D01*
G01*
X134000000Y-127445000D01*
G75*
G02*
X134150000Y-127295000I150000J0D01*
G01*
X135800000Y-127295000D01*
G75*
G02*
X135950000Y-127445000I0J-150000D01*
G01*
G37*
G36*
G01*
X135950000Y-128715000D02*
X135950000Y-129015000D01*
G75*
G02*
X135800000Y-129165000I-150000J0D01*
G01*
X134150000Y-129165000D01*
G75*
G02*
X134000000Y-129015000I0J150000D01*
G01*
X134000000Y-128715000D01*
G75*
G02*
X134150000Y-128565000I150000J0D01*
G01*
X135800000Y-128565000D01*
G75*
G02*
X135950000Y-128715000I0J-150000D01*
G01*
G37*
G36*
G01*
X135950000Y-129985000D02*
X135950000Y-130285000D01*
G75*
G02*
X135800000Y-130435000I-150000J0D01*
G01*
X134150000Y-130435000D01*
G75*
G02*
X134000000Y-130285000I0J150000D01*
G01*
X134000000Y-129985000D01*
G75*
G02*
X134150000Y-129835000I150000J0D01*
G01*
X135800000Y-129835000D01*
G75*
G02*
X135950000Y-129985000I0J-150000D01*
G01*
G37*
G36*
G01*
X135950000Y-131255000D02*
X135950000Y-131555000D01*
G75*
G02*
X135800000Y-131705000I-150000J0D01*
G01*
X134150000Y-131705000D01*
G75*
G02*
X134000000Y-131555000I0J150000D01*
G01*
X134000000Y-131255000D01*
G75*
G02*
X134150000Y-131105000I150000J0D01*
G01*
X135800000Y-131105000D01*
G75*
G02*
X135950000Y-131255000I0J-150000D01*
G01*
G37*
%TD*%
%TO.C,U1*%
G36*
G01*
X109625000Y-119325000D02*
X109625000Y-119125000D01*
G75*
G02*
X109725000Y-119025000I100000J0D01*
G01*
X111000000Y-119025000D01*
G75*
G02*
X111100000Y-119125000I0J-100000D01*
G01*
X111100000Y-119325000D01*
G75*
G02*
X111000000Y-119425000I-100000J0D01*
G01*
X109725000Y-119425000D01*
G75*
G02*
X109625000Y-119325000I0J100000D01*
G01*
G37*
G36*
G01*
X109625000Y-119975000D02*
X109625000Y-119775000D01*
G75*
G02*
X109725000Y-119675000I100000J0D01*
G01*
X111000000Y-119675000D01*
G75*
G02*
X111100000Y-119775000I0J-100000D01*
G01*
X111100000Y-119975000D01*
G75*
G02*
X111000000Y-120075000I-100000J0D01*
G01*
X109725000Y-120075000D01*
G75*
G02*
X109625000Y-119975000I0J100000D01*
G01*
G37*
G36*
G01*
X109625000Y-120625000D02*
X109625000Y-120425000D01*
G75*
G02*
X109725000Y-120325000I100000J0D01*
G01*
X111000000Y-120325000D01*
G75*
G02*
X111100000Y-120425000I0J-100000D01*
G01*
X111100000Y-120625000D01*
G75*
G02*
X111000000Y-120725000I-100000J0D01*
G01*
X109725000Y-120725000D01*
G75*
G02*
X109625000Y-120625000I0J100000D01*
G01*
G37*
G36*
G01*
X109625000Y-121275000D02*
X109625000Y-121075000D01*
G75*
G02*
X109725000Y-120975000I100000J0D01*
G01*
X111000000Y-120975000D01*
G75*
G02*
X111100000Y-121075000I0J-100000D01*
G01*
X111100000Y-121275000D01*
G75*
G02*
X111000000Y-121375000I-100000J0D01*
G01*
X109725000Y-121375000D01*
G75*
G02*
X109625000Y-121275000I0J100000D01*
G01*
G37*
G36*
G01*
X109625000Y-121925000D02*
X109625000Y-121725000D01*
G75*
G02*
X109725000Y-121625000I100000J0D01*
G01*
X111000000Y-121625000D01*
G75*
G02*
X111100000Y-121725000I0J-100000D01*
G01*
X111100000Y-121925000D01*
G75*
G02*
X111000000Y-122025000I-100000J0D01*
G01*
X109725000Y-122025000D01*
G75*
G02*
X109625000Y-121925000I0J100000D01*
G01*
G37*
G36*
G01*
X109625000Y-122575000D02*
X109625000Y-122375000D01*
G75*
G02*
X109725000Y-122275000I100000J0D01*
G01*
X111000000Y-122275000D01*
G75*
G02*
X111100000Y-122375000I0J-100000D01*
G01*
X111100000Y-122575000D01*
G75*
G02*
X111000000Y-122675000I-100000J0D01*
G01*
X109725000Y-122675000D01*
G75*
G02*
X109625000Y-122575000I0J100000D01*
G01*
G37*
G36*
G01*
X109625000Y-123225000D02*
X109625000Y-123025000D01*
G75*
G02*
X109725000Y-122925000I100000J0D01*
G01*
X111000000Y-122925000D01*
G75*
G02*
X111100000Y-123025000I0J-100000D01*
G01*
X111100000Y-123225000D01*
G75*
G02*
X111000000Y-123325000I-100000J0D01*
G01*
X109725000Y-123325000D01*
G75*
G02*
X109625000Y-123225000I0J100000D01*
G01*
G37*
G36*
G01*
X109625000Y-123875000D02*
X109625000Y-123675000D01*
G75*
G02*
X109725000Y-123575000I100000J0D01*
G01*
X111000000Y-123575000D01*
G75*
G02*
X111100000Y-123675000I0J-100000D01*
G01*
X111100000Y-123875000D01*
G75*
G02*
X111000000Y-123975000I-100000J0D01*
G01*
X109725000Y-123975000D01*
G75*
G02*
X109625000Y-123875000I0J100000D01*
G01*
G37*
G36*
G01*
X103900000Y-123875000D02*
X103900000Y-123675000D01*
G75*
G02*
X104000000Y-123575000I100000J0D01*
G01*
X105275000Y-123575000D01*
G75*
G02*
X105375000Y-123675000I0J-100000D01*
G01*
X105375000Y-123875000D01*
G75*
G02*
X105275000Y-123975000I-100000J0D01*
G01*
X104000000Y-123975000D01*
G75*
G02*
X103900000Y-123875000I0J100000D01*
G01*
G37*
G36*
G01*
X103900000Y-123225000D02*
X103900000Y-123025000D01*
G75*
G02*
X104000000Y-122925000I100000J0D01*
G01*
X105275000Y-122925000D01*
G75*
G02*
X105375000Y-123025000I0J-100000D01*
G01*
X105375000Y-123225000D01*
G75*
G02*
X105275000Y-123325000I-100000J0D01*
G01*
X104000000Y-123325000D01*
G75*
G02*
X103900000Y-123225000I0J100000D01*
G01*
G37*
G36*
G01*
X103900000Y-122575000D02*
X103900000Y-122375000D01*
G75*
G02*
X104000000Y-122275000I100000J0D01*
G01*
X105275000Y-122275000D01*
G75*
G02*
X105375000Y-122375000I0J-100000D01*
G01*
X105375000Y-122575000D01*
G75*
G02*
X105275000Y-122675000I-100000J0D01*
G01*
X104000000Y-122675000D01*
G75*
G02*
X103900000Y-122575000I0J100000D01*
G01*
G37*
G36*
G01*
X103900000Y-121925000D02*
X103900000Y-121725000D01*
G75*
G02*
X104000000Y-121625000I100000J0D01*
G01*
X105275000Y-121625000D01*
G75*
G02*
X105375000Y-121725000I0J-100000D01*
G01*
X105375000Y-121925000D01*
G75*
G02*
X105275000Y-122025000I-100000J0D01*
G01*
X104000000Y-122025000D01*
G75*
G02*
X103900000Y-121925000I0J100000D01*
G01*
G37*
G36*
G01*
X103900000Y-121275000D02*
X103900000Y-121075000D01*
G75*
G02*
X104000000Y-120975000I100000J0D01*
G01*
X105275000Y-120975000D01*
G75*
G02*
X105375000Y-121075000I0J-100000D01*
G01*
X105375000Y-121275000D01*
G75*
G02*
X105275000Y-121375000I-100000J0D01*
G01*
X104000000Y-121375000D01*
G75*
G02*
X103900000Y-121275000I0J100000D01*
G01*
G37*
G36*
G01*
X103900000Y-120625000D02*
X103900000Y-120425000D01*
G75*
G02*
X104000000Y-120325000I100000J0D01*
G01*
X105275000Y-120325000D01*
G75*
G02*
X105375000Y-120425000I0J-100000D01*
G01*
X105375000Y-120625000D01*
G75*
G02*
X105275000Y-120725000I-100000J0D01*
G01*
X104000000Y-120725000D01*
G75*
G02*
X103900000Y-120625000I0J100000D01*
G01*
G37*
G36*
G01*
X103900000Y-119975000D02*
X103900000Y-119775000D01*
G75*
G02*
X104000000Y-119675000I100000J0D01*
G01*
X105275000Y-119675000D01*
G75*
G02*
X105375000Y-119775000I0J-100000D01*
G01*
X105375000Y-119975000D01*
G75*
G02*
X105275000Y-120075000I-100000J0D01*
G01*
X104000000Y-120075000D01*
G75*
G02*
X103900000Y-119975000I0J100000D01*
G01*
G37*
G36*
G01*
X103900000Y-119325000D02*
X103900000Y-119125000D01*
G75*
G02*
X104000000Y-119025000I100000J0D01*
G01*
X105275000Y-119025000D01*
G75*
G02*
X105375000Y-119125000I0J-100000D01*
G01*
X105375000Y-119325000D01*
G75*
G02*
X105275000Y-119425000I-100000J0D01*
G01*
X104000000Y-119425000D01*
G75*
G02*
X103900000Y-119325000I0J100000D01*
G01*
G37*
%TD*%
D13*
%TO.C,SW1*%
X107950000Y-142700000D03*
X111350000Y-142700000D03*
%TD*%
%TO.C,R16*%
G36*
G01*
X120812500Y-135000000D02*
X121287500Y-135000000D01*
G75*
G02*
X121525000Y-135237500I0J-237500D01*
G01*
X121525000Y-135812500D01*
G75*
G02*
X121287500Y-136050000I-237500J0D01*
G01*
X120812500Y-136050000D01*
G75*
G02*
X120575000Y-135812500I0J237500D01*
G01*
X120575000Y-135237500D01*
G75*
G02*
X120812500Y-135000000I237500J0D01*
G01*
G37*
G36*
G01*
X120812500Y-133250000D02*
X121287500Y-133250000D01*
G75*
G02*
X121525000Y-133487500I0J-237500D01*
G01*
X121525000Y-134062500D01*
G75*
G02*
X121287500Y-134300000I-237500J0D01*
G01*
X120812500Y-134300000D01*
G75*
G02*
X120575000Y-134062500I0J237500D01*
G01*
X120575000Y-133487500D01*
G75*
G02*
X120812500Y-133250000I237500J0D01*
G01*
G37*
%TD*%
%TO.C,R15*%
G36*
G01*
X119687500Y-134300000D02*
X119212500Y-134300000D01*
G75*
G02*
X118975000Y-134062500I0J237500D01*
G01*
X118975000Y-133487500D01*
G75*
G02*
X119212500Y-133250000I237500J0D01*
G01*
X119687500Y-133250000D01*
G75*
G02*
X119925000Y-133487500I0J-237500D01*
G01*
X119925000Y-134062500D01*
G75*
G02*
X119687500Y-134300000I-237500J0D01*
G01*
G37*
G36*
G01*
X119687500Y-136050000D02*
X119212500Y-136050000D01*
G75*
G02*
X118975000Y-135812500I0J237500D01*
G01*
X118975000Y-135237500D01*
G75*
G02*
X119212500Y-135000000I237500J0D01*
G01*
X119687500Y-135000000D01*
G75*
G02*
X119925000Y-135237500I0J-237500D01*
G01*
X119925000Y-135812500D01*
G75*
G02*
X119687500Y-136050000I-237500J0D01*
G01*
G37*
%TD*%
%TO.C,R10*%
G36*
G01*
X104600000Y-133062500D02*
X104600000Y-133537500D01*
G75*
G02*
X104362500Y-133775000I-237500J0D01*
G01*
X103787500Y-133775000D01*
G75*
G02*
X103550000Y-133537500I0J237500D01*
G01*
X103550000Y-133062500D01*
G75*
G02*
X103787500Y-132825000I237500J0D01*
G01*
X104362500Y-132825000D01*
G75*
G02*
X104600000Y-133062500I0J-237500D01*
G01*
G37*
G36*
G01*
X106350000Y-133062500D02*
X106350000Y-133537500D01*
G75*
G02*
X106112500Y-133775000I-237500J0D01*
G01*
X105537500Y-133775000D01*
G75*
G02*
X105300000Y-133537500I0J237500D01*
G01*
X105300000Y-133062500D01*
G75*
G02*
X105537500Y-132825000I237500J0D01*
G01*
X106112500Y-132825000D01*
G75*
G02*
X106350000Y-133062500I0J-237500D01*
G01*
G37*
%TD*%
%TO.C,R9*%
G36*
G01*
X105300000Y-135253000D02*
X105300000Y-134778000D01*
G75*
G02*
X105537500Y-134540500I237500J0D01*
G01*
X106112500Y-134540500D01*
G75*
G02*
X106350000Y-134778000I0J-237500D01*
G01*
X106350000Y-135253000D01*
G75*
G02*
X106112500Y-135490500I-237500J0D01*
G01*
X105537500Y-135490500D01*
G75*
G02*
X105300000Y-135253000I0J237500D01*
G01*
G37*
G36*
G01*
X103550000Y-135253000D02*
X103550000Y-134778000D01*
G75*
G02*
X103787500Y-134540500I237500J0D01*
G01*
X104362500Y-134540500D01*
G75*
G02*
X104600000Y-134778000I0J-237500D01*
G01*
X104600000Y-135253000D01*
G75*
G02*
X104362500Y-135490500I-237500J0D01*
G01*
X103787500Y-135490500D01*
G75*
G02*
X103550000Y-135253000I0J237500D01*
G01*
G37*
%TD*%
%TO.C,R8*%
G36*
G01*
X111587500Y-116450000D02*
X111112500Y-116450000D01*
G75*
G02*
X110875000Y-116212500I0J237500D01*
G01*
X110875000Y-115637500D01*
G75*
G02*
X111112500Y-115400000I237500J0D01*
G01*
X111587500Y-115400000D01*
G75*
G02*
X111825000Y-115637500I0J-237500D01*
G01*
X111825000Y-116212500D01*
G75*
G02*
X111587500Y-116450000I-237500J0D01*
G01*
G37*
G36*
G01*
X111587500Y-118200000D02*
X111112500Y-118200000D01*
G75*
G02*
X110875000Y-117962500I0J237500D01*
G01*
X110875000Y-117387500D01*
G75*
G02*
X111112500Y-117150000I237500J0D01*
G01*
X111587500Y-117150000D01*
G75*
G02*
X111825000Y-117387500I0J-237500D01*
G01*
X111825000Y-117962500D01*
G75*
G02*
X111587500Y-118200000I-237500J0D01*
G01*
G37*
%TD*%
%TO.C,R7*%
G36*
G01*
X111112500Y-113500000D02*
X111587500Y-113500000D01*
G75*
G02*
X111825000Y-113737500I0J-237500D01*
G01*
X111825000Y-114312500D01*
G75*
G02*
X111587500Y-114550000I-237500J0D01*
G01*
X111112500Y-114550000D01*
G75*
G02*
X110875000Y-114312500I0J237500D01*
G01*
X110875000Y-113737500D01*
G75*
G02*
X111112500Y-113500000I237500J0D01*
G01*
G37*
G36*
G01*
X111112500Y-111750000D02*
X111587500Y-111750000D01*
G75*
G02*
X111825000Y-111987500I0J-237500D01*
G01*
X111825000Y-112562500D01*
G75*
G02*
X111587500Y-112800000I-237500J0D01*
G01*
X111112500Y-112800000D01*
G75*
G02*
X110875000Y-112562500I0J237500D01*
G01*
X110875000Y-111987500D01*
G75*
G02*
X111112500Y-111750000I237500J0D01*
G01*
G37*
%TD*%
%TO.C,R6*%
G36*
G01*
X125387500Y-119800000D02*
X124912500Y-119800000D01*
G75*
G02*
X124675000Y-119562500I0J237500D01*
G01*
X124675000Y-118987500D01*
G75*
G02*
X124912500Y-118750000I237500J0D01*
G01*
X125387500Y-118750000D01*
G75*
G02*
X125625000Y-118987500I0J-237500D01*
G01*
X125625000Y-119562500D01*
G75*
G02*
X125387500Y-119800000I-237500J0D01*
G01*
G37*
G36*
G01*
X125387500Y-121550000D02*
X124912500Y-121550000D01*
G75*
G02*
X124675000Y-121312500I0J237500D01*
G01*
X124675000Y-120737500D01*
G75*
G02*
X124912500Y-120500000I237500J0D01*
G01*
X125387500Y-120500000D01*
G75*
G02*
X125625000Y-120737500I0J-237500D01*
G01*
X125625000Y-121312500D01*
G75*
G02*
X125387500Y-121550000I-237500J0D01*
G01*
G37*
%TD*%
%TO.C,R5*%
G36*
G01*
X127937500Y-138625000D02*
X127462500Y-138625000D01*
G75*
G02*
X127225000Y-138387500I0J237500D01*
G01*
X127225000Y-137812500D01*
G75*
G02*
X127462500Y-137575000I237500J0D01*
G01*
X127937500Y-137575000D01*
G75*
G02*
X128175000Y-137812500I0J-237500D01*
G01*
X128175000Y-138387500D01*
G75*
G02*
X127937500Y-138625000I-237500J0D01*
G01*
G37*
G36*
G01*
X127937500Y-140375000D02*
X127462500Y-140375000D01*
G75*
G02*
X127225000Y-140137500I0J237500D01*
G01*
X127225000Y-139562500D01*
G75*
G02*
X127462500Y-139325000I237500J0D01*
G01*
X127937500Y-139325000D01*
G75*
G02*
X128175000Y-139562500I0J-237500D01*
G01*
X128175000Y-140137500D01*
G75*
G02*
X127937500Y-140375000I-237500J0D01*
G01*
G37*
%TD*%
%TO.C,R4*%
G36*
G01*
X114162500Y-121825000D02*
X114637500Y-121825000D01*
G75*
G02*
X114875000Y-122062500I0J-237500D01*
G01*
X114875000Y-122637500D01*
G75*
G02*
X114637500Y-122875000I-237500J0D01*
G01*
X114162500Y-122875000D01*
G75*
G02*
X113925000Y-122637500I0J237500D01*
G01*
X113925000Y-122062500D01*
G75*
G02*
X114162500Y-121825000I237500J0D01*
G01*
G37*
G36*
G01*
X114162500Y-120075000D02*
X114637500Y-120075000D01*
G75*
G02*
X114875000Y-120312500I0J-237500D01*
G01*
X114875000Y-120887500D01*
G75*
G02*
X114637500Y-121125000I-237500J0D01*
G01*
X114162500Y-121125000D01*
G75*
G02*
X113925000Y-120887500I0J237500D01*
G01*
X113925000Y-120312500D01*
G75*
G02*
X114162500Y-120075000I237500J0D01*
G01*
G37*
%TD*%
%TO.C,R3*%
G36*
G01*
X113537500Y-142350000D02*
X113062500Y-142350000D01*
G75*
G02*
X112825000Y-142112500I0J237500D01*
G01*
X112825000Y-141537500D01*
G75*
G02*
X113062500Y-141300000I237500J0D01*
G01*
X113537500Y-141300000D01*
G75*
G02*
X113775000Y-141537500I0J-237500D01*
G01*
X113775000Y-142112500D01*
G75*
G02*
X113537500Y-142350000I-237500J0D01*
G01*
G37*
G36*
G01*
X113537500Y-144100000D02*
X113062500Y-144100000D01*
G75*
G02*
X112825000Y-143862500I0J237500D01*
G01*
X112825000Y-143287500D01*
G75*
G02*
X113062500Y-143050000I237500J0D01*
G01*
X113537500Y-143050000D01*
G75*
G02*
X113775000Y-143287500I0J-237500D01*
G01*
X113775000Y-143862500D01*
G75*
G02*
X113537500Y-144100000I-237500J0D01*
G01*
G37*
%TD*%
%TO.C,R2*%
G36*
G01*
X126562500Y-126500000D02*
X127037500Y-126500000D01*
G75*
G02*
X127275000Y-126737500I0J-237500D01*
G01*
X127275000Y-127312500D01*
G75*
G02*
X127037500Y-127550000I-237500J0D01*
G01*
X126562500Y-127550000D01*
G75*
G02*
X126325000Y-127312500I0J237500D01*
G01*
X126325000Y-126737500D01*
G75*
G02*
X126562500Y-126500000I237500J0D01*
G01*
G37*
G36*
G01*
X126562500Y-124750000D02*
X127037500Y-124750000D01*
G75*
G02*
X127275000Y-124987500I0J-237500D01*
G01*
X127275000Y-125562500D01*
G75*
G02*
X127037500Y-125800000I-237500J0D01*
G01*
X126562500Y-125800000D01*
G75*
G02*
X126325000Y-125562500I0J237500D01*
G01*
X126325000Y-124987500D01*
G75*
G02*
X126562500Y-124750000I237500J0D01*
G01*
G37*
%TD*%
%TO.C,R1*%
G36*
G01*
X111137500Y-139000000D02*
X111612500Y-139000000D01*
G75*
G02*
X111850000Y-139237500I0J-237500D01*
G01*
X111850000Y-139812500D01*
G75*
G02*
X111612500Y-140050000I-237500J0D01*
G01*
X111137500Y-140050000D01*
G75*
G02*
X110900000Y-139812500I0J237500D01*
G01*
X110900000Y-139237500D01*
G75*
G02*
X111137500Y-139000000I237500J0D01*
G01*
G37*
G36*
G01*
X111137500Y-137250000D02*
X111612500Y-137250000D01*
G75*
G02*
X111850000Y-137487500I0J-237500D01*
G01*
X111850000Y-138062500D01*
G75*
G02*
X111612500Y-138300000I-237500J0D01*
G01*
X111137500Y-138300000D01*
G75*
G02*
X110900000Y-138062500I0J237500D01*
G01*
X110900000Y-137487500D01*
G75*
G02*
X111137500Y-137250000I237500J0D01*
G01*
G37*
%TD*%
D14*
%TO.C,L2*%
X130300000Y-141250000D03*
X135400000Y-141250000D03*
%TD*%
D15*
%TO.C,J1*%
X123350000Y-137480000D03*
X122550000Y-137480000D03*
X117750000Y-137480000D03*
X116950000Y-137480000D03*
X116650000Y-137480000D03*
X117450000Y-137480000D03*
X118250000Y-137480000D03*
X118750000Y-137480000D03*
X119250000Y-137480000D03*
X119750000Y-137480000D03*
X120250000Y-137480000D03*
X120750000Y-137480000D03*
X121250000Y-137480000D03*
X121750000Y-137480000D03*
X122250000Y-137480000D03*
X123050000Y-137480000D03*
%TD*%
%TO.C,D2*%
G36*
G01*
X133693750Y-136070000D02*
X134206250Y-136070000D01*
G75*
G02*
X134425000Y-136288750I0J-218750D01*
G01*
X134425000Y-136726250D01*
G75*
G02*
X134206250Y-136945000I-218750J0D01*
G01*
X133693750Y-136945000D01*
G75*
G02*
X133475000Y-136726250I0J218750D01*
G01*
X133475000Y-136288750D01*
G75*
G02*
X133693750Y-136070000I218750J0D01*
G01*
G37*
G36*
G01*
X133693750Y-134495000D02*
X134206250Y-134495000D01*
G75*
G02*
X134425000Y-134713750I0J-218750D01*
G01*
X134425000Y-135151250D01*
G75*
G02*
X134206250Y-135370000I-218750J0D01*
G01*
X133693750Y-135370000D01*
G75*
G02*
X133475000Y-135151250I0J218750D01*
G01*
X133475000Y-134713750D01*
G75*
G02*
X133693750Y-134495000I218750J0D01*
G01*
G37*
%TD*%
%TO.C,D1*%
G36*
G01*
X136106250Y-135330000D02*
X135593750Y-135330000D01*
G75*
G02*
X135375000Y-135111250I0J218750D01*
G01*
X135375000Y-134673750D01*
G75*
G02*
X135593750Y-134455000I218750J0D01*
G01*
X136106250Y-134455000D01*
G75*
G02*
X136325000Y-134673750I0J-218750D01*
G01*
X136325000Y-135111250D01*
G75*
G02*
X136106250Y-135330000I-218750J0D01*
G01*
G37*
G36*
G01*
X136106250Y-136905000D02*
X135593750Y-136905000D01*
G75*
G02*
X135375000Y-136686250I0J218750D01*
G01*
X135375000Y-136248750D01*
G75*
G02*
X135593750Y-136030000I218750J0D01*
G01*
X136106250Y-136030000D01*
G75*
G02*
X136325000Y-136248750I0J-218750D01*
G01*
X136325000Y-136686250D01*
G75*
G02*
X136106250Y-136905000I-218750J0D01*
G01*
G37*
%TD*%
%TO.C,C25*%
G36*
G01*
X108150000Y-117462500D02*
X108150000Y-117937500D01*
G75*
G02*
X107912500Y-118175000I-237500J0D01*
G01*
X107337500Y-118175000D01*
G75*
G02*
X107100000Y-117937500I0J237500D01*
G01*
X107100000Y-117462500D01*
G75*
G02*
X107337500Y-117225000I237500J0D01*
G01*
X107912500Y-117225000D01*
G75*
G02*
X108150000Y-117462500I0J-237500D01*
G01*
G37*
G36*
G01*
X109900000Y-117462500D02*
X109900000Y-117937500D01*
G75*
G02*
X109662500Y-118175000I-237500J0D01*
G01*
X109087500Y-118175000D01*
G75*
G02*
X108850000Y-117937500I0J237500D01*
G01*
X108850000Y-117462500D01*
G75*
G02*
X109087500Y-117225000I237500J0D01*
G01*
X109662500Y-117225000D01*
G75*
G02*
X109900000Y-117462500I0J-237500D01*
G01*
G37*
%TD*%
%TO.C,C24*%
G36*
G01*
X104137500Y-114100000D02*
X103662500Y-114100000D01*
G75*
G02*
X103425000Y-113862500I0J237500D01*
G01*
X103425000Y-113287500D01*
G75*
G02*
X103662500Y-113050000I237500J0D01*
G01*
X104137500Y-113050000D01*
G75*
G02*
X104375000Y-113287500I0J-237500D01*
G01*
X104375000Y-113862500D01*
G75*
G02*
X104137500Y-114100000I-237500J0D01*
G01*
G37*
G36*
G01*
X104137500Y-115850000D02*
X103662500Y-115850000D01*
G75*
G02*
X103425000Y-115612500I0J237500D01*
G01*
X103425000Y-115037500D01*
G75*
G02*
X103662500Y-114800000I237500J0D01*
G01*
X104137500Y-114800000D01*
G75*
G02*
X104375000Y-115037500I0J-237500D01*
G01*
X104375000Y-115612500D01*
G75*
G02*
X104137500Y-115850000I-237500J0D01*
G01*
G37*
%TD*%
%TO.C,C23*%
G36*
G01*
X104600000Y-136493500D02*
X104600000Y-136968500D01*
G75*
G02*
X104362500Y-137206000I-237500J0D01*
G01*
X103787500Y-137206000D01*
G75*
G02*
X103550000Y-136968500I0J237500D01*
G01*
X103550000Y-136493500D01*
G75*
G02*
X103787500Y-136256000I237500J0D01*
G01*
X104362500Y-136256000D01*
G75*
G02*
X104600000Y-136493500I0J-237500D01*
G01*
G37*
G36*
G01*
X106350000Y-136493500D02*
X106350000Y-136968500D01*
G75*
G02*
X106112500Y-137206000I-237500J0D01*
G01*
X105537500Y-137206000D01*
G75*
G02*
X105300000Y-136968500I0J237500D01*
G01*
X105300000Y-136493500D01*
G75*
G02*
X105537500Y-136256000I237500J0D01*
G01*
X106112500Y-136256000D01*
G75*
G02*
X106350000Y-136493500I0J-237500D01*
G01*
G37*
%TD*%
%TO.C,C22*%
G36*
G01*
X114160500Y-134662000D02*
X114635500Y-134662000D01*
G75*
G02*
X114873000Y-134899500I0J-237500D01*
G01*
X114873000Y-135474500D01*
G75*
G02*
X114635500Y-135712000I-237500J0D01*
G01*
X114160500Y-135712000D01*
G75*
G02*
X113923000Y-135474500I0J237500D01*
G01*
X113923000Y-134899500D01*
G75*
G02*
X114160500Y-134662000I237500J0D01*
G01*
G37*
G36*
G01*
X114160500Y-132912000D02*
X114635500Y-132912000D01*
G75*
G02*
X114873000Y-133149500I0J-237500D01*
G01*
X114873000Y-133724500D01*
G75*
G02*
X114635500Y-133962000I-237500J0D01*
G01*
X114160500Y-133962000D01*
G75*
G02*
X113923000Y-133724500I0J237500D01*
G01*
X113923000Y-133149500D01*
G75*
G02*
X114160500Y-132912000I237500J0D01*
G01*
G37*
%TD*%
%TO.C,C21*%
G36*
G01*
X116712500Y-120100000D02*
X117187500Y-120100000D01*
G75*
G02*
X117425000Y-120337500I0J-237500D01*
G01*
X117425000Y-120912500D01*
G75*
G02*
X117187500Y-121150000I-237500J0D01*
G01*
X116712500Y-121150000D01*
G75*
G02*
X116475000Y-120912500I0J237500D01*
G01*
X116475000Y-120337500D01*
G75*
G02*
X116712500Y-120100000I237500J0D01*
G01*
G37*
G36*
G01*
X116712500Y-118350000D02*
X117187500Y-118350000D01*
G75*
G02*
X117425000Y-118587500I0J-237500D01*
G01*
X117425000Y-119162500D01*
G75*
G02*
X117187500Y-119400000I-237500J0D01*
G01*
X116712500Y-119400000D01*
G75*
G02*
X116475000Y-119162500I0J237500D01*
G01*
X116475000Y-118587500D01*
G75*
G02*
X116712500Y-118350000I237500J0D01*
G01*
G37*
%TD*%
%TO.C,C20*%
G36*
G01*
X127087500Y-119800000D02*
X126612500Y-119800000D01*
G75*
G02*
X126375000Y-119562500I0J237500D01*
G01*
X126375000Y-118987500D01*
G75*
G02*
X126612500Y-118750000I237500J0D01*
G01*
X127087500Y-118750000D01*
G75*
G02*
X127325000Y-118987500I0J-237500D01*
G01*
X127325000Y-119562500D01*
G75*
G02*
X127087500Y-119800000I-237500J0D01*
G01*
G37*
G36*
G01*
X127087500Y-121550000D02*
X126612500Y-121550000D01*
G75*
G02*
X126375000Y-121312500I0J237500D01*
G01*
X126375000Y-120737500D01*
G75*
G02*
X126612500Y-120500000I237500J0D01*
G01*
X127087500Y-120500000D01*
G75*
G02*
X127325000Y-120737500I0J-237500D01*
G01*
X127325000Y-121312500D01*
G75*
G02*
X127087500Y-121550000I-237500J0D01*
G01*
G37*
%TD*%
%TO.C,C19*%
G36*
G01*
X131962500Y-135925000D02*
X132437500Y-135925000D01*
G75*
G02*
X132675000Y-136162500I0J-237500D01*
G01*
X132675000Y-136737500D01*
G75*
G02*
X132437500Y-136975000I-237500J0D01*
G01*
X131962500Y-136975000D01*
G75*
G02*
X131725000Y-136737500I0J237500D01*
G01*
X131725000Y-136162500D01*
G75*
G02*
X131962500Y-135925000I237500J0D01*
G01*
G37*
G36*
G01*
X131962500Y-134175000D02*
X132437500Y-134175000D01*
G75*
G02*
X132675000Y-134412500I0J-237500D01*
G01*
X132675000Y-134987500D01*
G75*
G02*
X132437500Y-135225000I-237500J0D01*
G01*
X131962500Y-135225000D01*
G75*
G02*
X131725000Y-134987500I0J237500D01*
G01*
X131725000Y-134412500D01*
G75*
G02*
X131962500Y-134175000I237500J0D01*
G01*
G37*
%TD*%
%TO.C,C18*%
G36*
G01*
X134350000Y-125262500D02*
X134350000Y-125737500D01*
G75*
G02*
X134112500Y-125975000I-237500J0D01*
G01*
X133537500Y-125975000D01*
G75*
G02*
X133300000Y-125737500I0J237500D01*
G01*
X133300000Y-125262500D01*
G75*
G02*
X133537500Y-125025000I237500J0D01*
G01*
X134112500Y-125025000D01*
G75*
G02*
X134350000Y-125262500I0J-237500D01*
G01*
G37*
G36*
G01*
X136100000Y-125262500D02*
X136100000Y-125737500D01*
G75*
G02*
X135862500Y-125975000I-237500J0D01*
G01*
X135287500Y-125975000D01*
G75*
G02*
X135050000Y-125737500I0J237500D01*
G01*
X135050000Y-125262500D01*
G75*
G02*
X135287500Y-125025000I237500J0D01*
G01*
X135862500Y-125025000D01*
G75*
G02*
X136100000Y-125262500I0J-237500D01*
G01*
G37*
%TD*%
%TO.C,C17*%
G36*
G01*
X127937500Y-142075000D02*
X127462500Y-142075000D01*
G75*
G02*
X127225000Y-141837500I0J237500D01*
G01*
X127225000Y-141262500D01*
G75*
G02*
X127462500Y-141025000I237500J0D01*
G01*
X127937500Y-141025000D01*
G75*
G02*
X128175000Y-141262500I0J-237500D01*
G01*
X128175000Y-141837500D01*
G75*
G02*
X127937500Y-142075000I-237500J0D01*
G01*
G37*
G36*
G01*
X127937500Y-143825000D02*
X127462500Y-143825000D01*
G75*
G02*
X127225000Y-143587500I0J237500D01*
G01*
X127225000Y-143012500D01*
G75*
G02*
X127462500Y-142775000I237500J0D01*
G01*
X127937500Y-142775000D01*
G75*
G02*
X128175000Y-143012500I0J-237500D01*
G01*
X128175000Y-143587500D01*
G75*
G02*
X127937500Y-143825000I-237500J0D01*
G01*
G37*
%TD*%
%TO.C,C16*%
G36*
G01*
X113475000Y-118662500D02*
X113475000Y-119137500D01*
G75*
G02*
X113237500Y-119375000I-237500J0D01*
G01*
X112662500Y-119375000D01*
G75*
G02*
X112425000Y-119137500I0J237500D01*
G01*
X112425000Y-118662500D01*
G75*
G02*
X112662500Y-118425000I237500J0D01*
G01*
X113237500Y-118425000D01*
G75*
G02*
X113475000Y-118662500I0J-237500D01*
G01*
G37*
G36*
G01*
X115225000Y-118662500D02*
X115225000Y-119137500D01*
G75*
G02*
X114987500Y-119375000I-237500J0D01*
G01*
X114412500Y-119375000D01*
G75*
G02*
X114175000Y-119137500I0J237500D01*
G01*
X114175000Y-118662500D01*
G75*
G02*
X114412500Y-118425000I237500J0D01*
G01*
X114987500Y-118425000D01*
G75*
G02*
X115225000Y-118662500I0J-237500D01*
G01*
G37*
%TD*%
%TO.C,C15*%
G36*
G01*
X128937500Y-135200000D02*
X128462500Y-135200000D01*
G75*
G02*
X128225000Y-134962500I0J237500D01*
G01*
X128225000Y-134387500D01*
G75*
G02*
X128462500Y-134150000I237500J0D01*
G01*
X128937500Y-134150000D01*
G75*
G02*
X129175000Y-134387500I0J-237500D01*
G01*
X129175000Y-134962500D01*
G75*
G02*
X128937500Y-135200000I-237500J0D01*
G01*
G37*
G36*
G01*
X128937500Y-136950000D02*
X128462500Y-136950000D01*
G75*
G02*
X128225000Y-136712500I0J237500D01*
G01*
X128225000Y-136137500D01*
G75*
G02*
X128462500Y-135900000I237500J0D01*
G01*
X128937500Y-135900000D01*
G75*
G02*
X129175000Y-136137500I0J-237500D01*
G01*
X129175000Y-136712500D01*
G75*
G02*
X128937500Y-136950000I-237500J0D01*
G01*
G37*
%TD*%
%TO.C,C14*%
G36*
G01*
X129925000Y-125262500D02*
X129925000Y-125737500D01*
G75*
G02*
X129687500Y-125975000I-237500J0D01*
G01*
X129112500Y-125975000D01*
G75*
G02*
X128875000Y-125737500I0J237500D01*
G01*
X128875000Y-125262500D01*
G75*
G02*
X129112500Y-125025000I237500J0D01*
G01*
X129687500Y-125025000D01*
G75*
G02*
X129925000Y-125262500I0J-237500D01*
G01*
G37*
G36*
G01*
X131675000Y-125262500D02*
X131675000Y-125737500D01*
G75*
G02*
X131437500Y-125975000I-237500J0D01*
G01*
X130862500Y-125975000D01*
G75*
G02*
X130625000Y-125737500I0J237500D01*
G01*
X130625000Y-125262500D01*
G75*
G02*
X130862500Y-125025000I237500J0D01*
G01*
X131437500Y-125025000D01*
G75*
G02*
X131675000Y-125262500I0J-237500D01*
G01*
G37*
%TD*%
%TO.C,C13*%
G36*
G01*
X105300000Y-140393500D02*
X105300000Y-139918500D01*
G75*
G02*
X105537500Y-139681000I237500J0D01*
G01*
X106112500Y-139681000D01*
G75*
G02*
X106350000Y-139918500I0J-237500D01*
G01*
X106350000Y-140393500D01*
G75*
G02*
X106112500Y-140631000I-237500J0D01*
G01*
X105537500Y-140631000D01*
G75*
G02*
X105300000Y-140393500I0J237500D01*
G01*
G37*
G36*
G01*
X103550000Y-140393500D02*
X103550000Y-139918500D01*
G75*
G02*
X103787500Y-139681000I237500J0D01*
G01*
X104362500Y-139681000D01*
G75*
G02*
X104600000Y-139918500I0J-237500D01*
G01*
X104600000Y-140393500D01*
G75*
G02*
X104362500Y-140631000I-237500J0D01*
G01*
X103787500Y-140631000D01*
G75*
G02*
X103550000Y-140393500I0J237500D01*
G01*
G37*
%TD*%
%TO.C,C12*%
G36*
G01*
X130212500Y-135900000D02*
X130687500Y-135900000D01*
G75*
G02*
X130925000Y-136137500I0J-237500D01*
G01*
X130925000Y-136712500D01*
G75*
G02*
X130687500Y-136950000I-237500J0D01*
G01*
X130212500Y-136950000D01*
G75*
G02*
X129975000Y-136712500I0J237500D01*
G01*
X129975000Y-136137500D01*
G75*
G02*
X130212500Y-135900000I237500J0D01*
G01*
G37*
G36*
G01*
X130212500Y-134150000D02*
X130687500Y-134150000D01*
G75*
G02*
X130925000Y-134387500I0J-237500D01*
G01*
X130925000Y-134962500D01*
G75*
G02*
X130687500Y-135200000I-237500J0D01*
G01*
X130212500Y-135200000D01*
G75*
G02*
X129975000Y-134962500I0J237500D01*
G01*
X129975000Y-134387500D01*
G75*
G02*
X130212500Y-134150000I237500J0D01*
G01*
G37*
%TD*%
%TO.C,C11*%
G36*
G01*
X105300000Y-143843500D02*
X105300000Y-143368500D01*
G75*
G02*
X105537500Y-143131000I237500J0D01*
G01*
X106112500Y-143131000D01*
G75*
G02*
X106350000Y-143368500I0J-237500D01*
G01*
X106350000Y-143843500D01*
G75*
G02*
X106112500Y-144081000I-237500J0D01*
G01*
X105537500Y-144081000D01*
G75*
G02*
X105300000Y-143843500I0J237500D01*
G01*
G37*
G36*
G01*
X103550000Y-143843500D02*
X103550000Y-143368500D01*
G75*
G02*
X103787500Y-143131000I237500J0D01*
G01*
X104362500Y-143131000D01*
G75*
G02*
X104600000Y-143368500I0J-237500D01*
G01*
X104600000Y-143843500D01*
G75*
G02*
X104362500Y-144081000I-237500J0D01*
G01*
X103787500Y-144081000D01*
G75*
G02*
X103550000Y-143843500I0J237500D01*
G01*
G37*
%TD*%
%TO.C,C10*%
G36*
G01*
X105650000Y-125737500D02*
X105650000Y-125262500D01*
G75*
G02*
X105887500Y-125025000I237500J0D01*
G01*
X106462500Y-125025000D01*
G75*
G02*
X106700000Y-125262500I0J-237500D01*
G01*
X106700000Y-125737500D01*
G75*
G02*
X106462500Y-125975000I-237500J0D01*
G01*
X105887500Y-125975000D01*
G75*
G02*
X105650000Y-125737500I0J237500D01*
G01*
G37*
G36*
G01*
X103900000Y-125737500D02*
X103900000Y-125262500D01*
G75*
G02*
X104137500Y-125025000I237500J0D01*
G01*
X104712500Y-125025000D01*
G75*
G02*
X104950000Y-125262500I0J-237500D01*
G01*
X104950000Y-125737500D01*
G75*
G02*
X104712500Y-125975000I-237500J0D01*
G01*
X104137500Y-125975000D01*
G75*
G02*
X103900000Y-125737500I0J237500D01*
G01*
G37*
%TD*%
%TO.C,C9*%
G36*
G01*
X107560500Y-134662000D02*
X108035500Y-134662000D01*
G75*
G02*
X108273000Y-134899500I0J-237500D01*
G01*
X108273000Y-135474500D01*
G75*
G02*
X108035500Y-135712000I-237500J0D01*
G01*
X107560500Y-135712000D01*
G75*
G02*
X107323000Y-135474500I0J237500D01*
G01*
X107323000Y-134899500D01*
G75*
G02*
X107560500Y-134662000I237500J0D01*
G01*
G37*
G36*
G01*
X107560500Y-132912000D02*
X108035500Y-132912000D01*
G75*
G02*
X108273000Y-133149500I0J-237500D01*
G01*
X108273000Y-133724500D01*
G75*
G02*
X108035500Y-133962000I-237500J0D01*
G01*
X107560500Y-133962000D01*
G75*
G02*
X107323000Y-133724500I0J237500D01*
G01*
X107323000Y-133149500D01*
G75*
G02*
X107560500Y-132912000I237500J0D01*
G01*
G37*
%TD*%
%TO.C,C8*%
G36*
G01*
X112812500Y-139000000D02*
X113287500Y-139000000D01*
G75*
G02*
X113525000Y-139237500I0J-237500D01*
G01*
X113525000Y-139812500D01*
G75*
G02*
X113287500Y-140050000I-237500J0D01*
G01*
X112812500Y-140050000D01*
G75*
G02*
X112575000Y-139812500I0J237500D01*
G01*
X112575000Y-139237500D01*
G75*
G02*
X112812500Y-139000000I237500J0D01*
G01*
G37*
G36*
G01*
X112812500Y-137250000D02*
X113287500Y-137250000D01*
G75*
G02*
X113525000Y-137487500I0J-237500D01*
G01*
X113525000Y-138062500D01*
G75*
G02*
X113287500Y-138300000I-237500J0D01*
G01*
X112812500Y-138300000D01*
G75*
G02*
X112575000Y-138062500I0J237500D01*
G01*
X112575000Y-137487500D01*
G75*
G02*
X112812500Y-137250000I237500J0D01*
G01*
G37*
%TD*%
%TO.C,C7*%
G36*
G01*
X109210500Y-134662000D02*
X109685500Y-134662000D01*
G75*
G02*
X109923000Y-134899500I0J-237500D01*
G01*
X109923000Y-135474500D01*
G75*
G02*
X109685500Y-135712000I-237500J0D01*
G01*
X109210500Y-135712000D01*
G75*
G02*
X108973000Y-135474500I0J237500D01*
G01*
X108973000Y-134899500D01*
G75*
G02*
X109210500Y-134662000I237500J0D01*
G01*
G37*
G36*
G01*
X109210500Y-132912000D02*
X109685500Y-132912000D01*
G75*
G02*
X109923000Y-133149500I0J-237500D01*
G01*
X109923000Y-133724500D01*
G75*
G02*
X109685500Y-133962000I-237500J0D01*
G01*
X109210500Y-133962000D01*
G75*
G02*
X108973000Y-133724500I0J237500D01*
G01*
X108973000Y-133149500D01*
G75*
G02*
X109210500Y-132912000I237500J0D01*
G01*
G37*
%TD*%
%TO.C,C6*%
G36*
G01*
X109937500Y-138300000D02*
X109462500Y-138300000D01*
G75*
G02*
X109225000Y-138062500I0J237500D01*
G01*
X109225000Y-137487500D01*
G75*
G02*
X109462500Y-137250000I237500J0D01*
G01*
X109937500Y-137250000D01*
G75*
G02*
X110175000Y-137487500I0J-237500D01*
G01*
X110175000Y-138062500D01*
G75*
G02*
X109937500Y-138300000I-237500J0D01*
G01*
G37*
G36*
G01*
X109937500Y-140050000D02*
X109462500Y-140050000D01*
G75*
G02*
X109225000Y-139812500I0J237500D01*
G01*
X109225000Y-139237500D01*
G75*
G02*
X109462500Y-139000000I237500J0D01*
G01*
X109937500Y-139000000D01*
G75*
G02*
X110175000Y-139237500I0J-237500D01*
G01*
X110175000Y-139812500D01*
G75*
G02*
X109937500Y-140050000I-237500J0D01*
G01*
G37*
%TD*%
%TO.C,C5*%
G36*
G01*
X105300000Y-138668500D02*
X105300000Y-138193500D01*
G75*
G02*
X105537500Y-137956000I237500J0D01*
G01*
X106112500Y-137956000D01*
G75*
G02*
X106350000Y-138193500I0J-237500D01*
G01*
X106350000Y-138668500D01*
G75*
G02*
X106112500Y-138906000I-237500J0D01*
G01*
X105537500Y-138906000D01*
G75*
G02*
X105300000Y-138668500I0J237500D01*
G01*
G37*
G36*
G01*
X103550000Y-138668500D02*
X103550000Y-138193500D01*
G75*
G02*
X103787500Y-137956000I237500J0D01*
G01*
X104362500Y-137956000D01*
G75*
G02*
X104600000Y-138193500I0J-237500D01*
G01*
X104600000Y-138668500D01*
G75*
G02*
X104362500Y-138906000I-237500J0D01*
G01*
X103787500Y-138906000D01*
G75*
G02*
X103550000Y-138668500I0J237500D01*
G01*
G37*
%TD*%
%TO.C,C4*%
G36*
G01*
X112510500Y-134662000D02*
X112985500Y-134662000D01*
G75*
G02*
X113223000Y-134899500I0J-237500D01*
G01*
X113223000Y-135474500D01*
G75*
G02*
X112985500Y-135712000I-237500J0D01*
G01*
X112510500Y-135712000D01*
G75*
G02*
X112273000Y-135474500I0J237500D01*
G01*
X112273000Y-134899500D01*
G75*
G02*
X112510500Y-134662000I237500J0D01*
G01*
G37*
G36*
G01*
X112510500Y-132912000D02*
X112985500Y-132912000D01*
G75*
G02*
X113223000Y-133149500I0J-237500D01*
G01*
X113223000Y-133724500D01*
G75*
G02*
X112985500Y-133962000I-237500J0D01*
G01*
X112510500Y-133962000D01*
G75*
G02*
X112273000Y-133724500I0J237500D01*
G01*
X112273000Y-133149500D01*
G75*
G02*
X112510500Y-132912000I237500J0D01*
G01*
G37*
%TD*%
%TO.C,C3*%
G36*
G01*
X110860500Y-134662000D02*
X111335500Y-134662000D01*
G75*
G02*
X111573000Y-134899500I0J-237500D01*
G01*
X111573000Y-135474500D01*
G75*
G02*
X111335500Y-135712000I-237500J0D01*
G01*
X110860500Y-135712000D01*
G75*
G02*
X110623000Y-135474500I0J237500D01*
G01*
X110623000Y-134899500D01*
G75*
G02*
X110860500Y-134662000I237500J0D01*
G01*
G37*
G36*
G01*
X110860500Y-132912000D02*
X111335500Y-132912000D01*
G75*
G02*
X111573000Y-133149500I0J-237500D01*
G01*
X111573000Y-133724500D01*
G75*
G02*
X111335500Y-133962000I-237500J0D01*
G01*
X110860500Y-133962000D01*
G75*
G02*
X110623000Y-133724500I0J237500D01*
G01*
X110623000Y-133149500D01*
G75*
G02*
X110860500Y-132912000I237500J0D01*
G01*
G37*
%TD*%
%TO.C,C2*%
G36*
G01*
X105300000Y-142118500D02*
X105300000Y-141643500D01*
G75*
G02*
X105537500Y-141406000I237500J0D01*
G01*
X106112500Y-141406000D01*
G75*
G02*
X106350000Y-141643500I0J-237500D01*
G01*
X106350000Y-142118500D01*
G75*
G02*
X106112500Y-142356000I-237500J0D01*
G01*
X105537500Y-142356000D01*
G75*
G02*
X105300000Y-142118500I0J237500D01*
G01*
G37*
G36*
G01*
X103550000Y-142118500D02*
X103550000Y-141643500D01*
G75*
G02*
X103787500Y-141406000I237500J0D01*
G01*
X104362500Y-141406000D01*
G75*
G02*
X104600000Y-141643500I0J-237500D01*
G01*
X104600000Y-142118500D01*
G75*
G02*
X104362500Y-142356000I-237500J0D01*
G01*
X103787500Y-142356000D01*
G75*
G02*
X103550000Y-142118500I0J237500D01*
G01*
G37*
%TD*%
%TO.C,C1*%
G36*
G01*
X110050000Y-125737500D02*
X110050000Y-125262500D01*
G75*
G02*
X110287500Y-125025000I237500J0D01*
G01*
X110862500Y-125025000D01*
G75*
G02*
X111100000Y-125262500I0J-237500D01*
G01*
X111100000Y-125737500D01*
G75*
G02*
X110862500Y-125975000I-237500J0D01*
G01*
X110287500Y-125975000D01*
G75*
G02*
X110050000Y-125737500I0J237500D01*
G01*
G37*
G36*
G01*
X108300000Y-125737500D02*
X108300000Y-125262500D01*
G75*
G02*
X108537500Y-125025000I237500J0D01*
G01*
X109112500Y-125025000D01*
G75*
G02*
X109350000Y-125262500I0J-237500D01*
G01*
X109350000Y-125737500D01*
G75*
G02*
X109112500Y-125975000I-237500J0D01*
G01*
X108537500Y-125975000D01*
G75*
G02*
X108300000Y-125737500I0J237500D01*
G01*
G37*
%TD*%
M02*
