M48
; DRILL file {KiCad (5.1.6-0-10_14)} date Thursday, October 29, 2020 at 08:17:42 PM
; FORMAT={-:-/ absolute / inch / decimal}
; #@! TF.CreationDate,2020-10-29T20:17:42+08:00
; #@! TF.GenerationSoftware,Kicad,Pcbnew,(5.1.6-0-10_14)
; #@! TF.FileFunction,Plated,1,2,PTH
FMAT,2
INCH
T1C0.0157
T2C0.0236
T3C0.0315
%
G90
G05
T1
X4.0443Y-5.6191
X4.1348Y-5.0734
X4.1468Y-4.5837
X4.1742Y-4.7234
X4.1791Y-4.2815
X4.2333Y-5.3937
X4.2362Y-5.2087
X4.2421Y-4.7224
X4.2894Y-4.7719
X4.3327Y-4.4035
X4.3661Y-4.1264
X4.3839Y-4.4892
X4.3839Y-4.564
X4.4498Y-5.4242
X4.4705Y-4.9311
X4.4724Y-4.9941
X4.4734Y-5.0335
X4.4843Y-5.0896
X4.4882Y-4.8947
X4.5Y-5.1329
X4.5039Y-4.8169
X4.5138Y-5.5236
X4.5236Y-4.873
X4.5543Y-4.8216
X4.5906Y-4.6358
X4.5984Y-5.3622
X4.6142Y-4.9567
X4.6339Y-4.7717
X4.6358Y-4.6201
X4.6417Y-4.9906
X4.6693Y-5.0315
X4.6851Y-4.6148
X4.6969Y-5.1319
X4.7461Y-5.1319
X4.7488Y-4.919
X4.751Y-5.0689
X4.7539Y-5.0266
X4.7549Y-4.9813
X4.7579Y-5.4589
X4.811Y-4.4872
X4.8297Y-4.9419
X4.8317Y-5.0108
X4.8348Y-5.0882
X4.8681Y-5.3622
X4.8848Y-5.2972
X4.8888Y-4.812
X4.8947Y-4.4557
X4.9075Y-4.8878
X4.9547Y-5.3642
X4.9554Y-5.0898
X4.9674Y-5.2658
X4.9921Y-4.9321
X4.9941Y-4.4823
X4.9961Y-5.3809
X5.0266Y-5.5738
X5.064Y-5.2323
X5.0915Y-4.5079
X5.1014Y-5.2628
X5.1181Y-5.1732
X5.1358Y-5.3711
X5.1358Y-5.561
X5.1476Y-4.5561
X5.1476Y-4.622
X5.1594Y-4.748
X5.1634Y-4.9409
X5.1772Y-4.3927
X5.187Y-4.8937
X5.1949Y-4.7687
X5.2165Y-4.9941
X5.2362Y-5.6024
X5.2776Y-4.874
X5.314Y-5.0234
X5.314Y-5.1222
X5.315Y-5.2638
X5.376Y-5.0827
X5.3819Y-5.2087
X5.4232Y-4.6594
X5.4547Y-4.4587
T3
X3.9961Y-5.0098
X3.9961Y-5.0886
X3.9961Y-5.4134
X3.9961Y-5.5709
X3.9961Y-5.6496
X5.4528Y-4.8071
X5.4528Y-4.8858
X3.9961Y-4.8071
X3.9961Y-4.8858
X5.4528Y-5.0092
X5.4528Y-5.0879
X3.9961Y-5.21
X3.9961Y-5.2887
X5.4528Y-5.2113
X5.4528Y-5.29
X5.4528Y-5.4134
X5.4528Y-5.4921
X5.4528Y-5.5709
X5.4528Y-5.6496
X3.9961Y-4.4449
X3.9961Y-4.5236
X3.9961Y-4.6024
X3.9961Y-4.6811
X3.9961Y-5.4921
T2
G00X4.5543Y-5.4132
M15
G01X4.5543Y-5.4565
M16
G05
G00X4.5543Y-5.5876
M15
G01X4.5543Y-5.6112
M16
G05
G00X4.8945Y-5.4132
M15
G01X4.8945Y-5.4565
M16
G05
G00X4.8945Y-5.5876
M15
G01X4.8945Y-5.6112
M16
G05
T0
M30
