%TF.GenerationSoftware,KiCad,Pcbnew,(5.1.6-0-10_14)*%
%TF.CreationDate,2020-10-29T20:17:36+08:00*%
%TF.ProjectId,QuadoFly,51756164-6f46-46c7-992e-6b696361645f,rev?*%
%TF.SameCoordinates,Original*%
%TF.FileFunction,Legend,Bot*%
%TF.FilePolarity,Positive*%
%FSLAX46Y46*%
G04 Gerber Fmt 4.6, Leading zero omitted, Abs format (unit mm)*
G04 Created by KiCad (PCBNEW (5.1.6-0-10_14)) date 2020-10-29 20:17:36*
%MOMM*%
%LPD*%
G01*
G04 APERTURE LIST*
%ADD10C,0.120000*%
%ADD11C,0.100000*%
G04 APERTURE END LIST*
D10*
%TO.C,J13*%
X137000000Y-104820000D02*
X116000000Y-104820000D01*
X137000000Y-108180000D02*
X116000000Y-108180000D01*
X116000000Y-104820000D02*
X116000000Y-108180000D01*
X137000000Y-108180000D02*
X137000000Y-104820000D01*
%TO.C,R14*%
X128890000Y-110528733D02*
X128890000Y-110871267D01*
X129910000Y-110528733D02*
X129910000Y-110871267D01*
%TO.C,R13*%
X132010000Y-110871267D02*
X132010000Y-110528733D01*
X130990000Y-110871267D02*
X130990000Y-110528733D01*
%TO.C,R12*%
X120810000Y-110871267D02*
X120810000Y-110528733D01*
X119790000Y-110871267D02*
X119790000Y-110528733D01*
%TO.C,R11*%
X123540000Y-110528733D02*
X123540000Y-110871267D01*
X124560000Y-110528733D02*
X124560000Y-110871267D01*
%TO.C,C29*%
X118960000Y-110871267D02*
X118960000Y-110528733D01*
X117940000Y-110871267D02*
X117940000Y-110528733D01*
%TO.C,C28*%
X117060000Y-110871267D02*
X117060000Y-110528733D01*
X116040000Y-110871267D02*
X116040000Y-110528733D01*
%TO.C,C27*%
X135010000Y-110871267D02*
X135010000Y-110528733D01*
X133990000Y-110871267D02*
X133990000Y-110528733D01*
%TO.C,C26*%
X135990000Y-110528733D02*
X135990000Y-110871267D01*
X137010000Y-110528733D02*
X137010000Y-110871267D01*
%TO.C,J13*%
D11*
X126985714Y-108876190D02*
X126985714Y-109233333D01*
X127014285Y-109304761D01*
X127071428Y-109352380D01*
X127157142Y-109376190D01*
X127214285Y-109376190D01*
X126385714Y-109376190D02*
X126728571Y-109376190D01*
X126557142Y-109376190D02*
X126557142Y-108876190D01*
X126614285Y-108947619D01*
X126671428Y-108995238D01*
X126728571Y-109019047D01*
X126185714Y-108876190D02*
X125814285Y-108876190D01*
X126014285Y-109066666D01*
X125928571Y-109066666D01*
X125871428Y-109090476D01*
X125842857Y-109114285D01*
X125814285Y-109161904D01*
X125814285Y-109280952D01*
X125842857Y-109328571D01*
X125871428Y-109352380D01*
X125928571Y-109376190D01*
X126100000Y-109376190D01*
X126157142Y-109352380D01*
X126185714Y-109328571D01*
%TO.C,R14*%
X129735714Y-113076190D02*
X129935714Y-112838095D01*
X130078571Y-113076190D02*
X130078571Y-112576190D01*
X129850000Y-112576190D01*
X129792857Y-112600000D01*
X129764285Y-112623809D01*
X129735714Y-112671428D01*
X129735714Y-112742857D01*
X129764285Y-112790476D01*
X129792857Y-112814285D01*
X129850000Y-112838095D01*
X130078571Y-112838095D01*
X129164285Y-113076190D02*
X129507142Y-113076190D01*
X129335714Y-113076190D02*
X129335714Y-112576190D01*
X129392857Y-112647619D01*
X129450000Y-112695238D01*
X129507142Y-112719047D01*
X128650000Y-112742857D02*
X128650000Y-113076190D01*
X128792857Y-112552380D02*
X128935714Y-112909523D01*
X128564285Y-112909523D01*
%TO.C,R13*%
X131910714Y-113076190D02*
X132110714Y-112838095D01*
X132253571Y-113076190D02*
X132253571Y-112576190D01*
X132025000Y-112576190D01*
X131967857Y-112600000D01*
X131939285Y-112623809D01*
X131910714Y-112671428D01*
X131910714Y-112742857D01*
X131939285Y-112790476D01*
X131967857Y-112814285D01*
X132025000Y-112838095D01*
X132253571Y-112838095D01*
X131339285Y-113076190D02*
X131682142Y-113076190D01*
X131510714Y-113076190D02*
X131510714Y-112576190D01*
X131567857Y-112647619D01*
X131625000Y-112695238D01*
X131682142Y-112719047D01*
X131139285Y-112576190D02*
X130767857Y-112576190D01*
X130967857Y-112766666D01*
X130882142Y-112766666D01*
X130825000Y-112790476D01*
X130796428Y-112814285D01*
X130767857Y-112861904D01*
X130767857Y-112980952D01*
X130796428Y-113028571D01*
X130825000Y-113052380D01*
X130882142Y-113076190D01*
X131053571Y-113076190D01*
X131110714Y-113052380D01*
X131139285Y-113028571D01*
%TO.C,R12*%
X120660714Y-113101190D02*
X120860714Y-112863095D01*
X121003571Y-113101190D02*
X121003571Y-112601190D01*
X120775000Y-112601190D01*
X120717857Y-112625000D01*
X120689285Y-112648809D01*
X120660714Y-112696428D01*
X120660714Y-112767857D01*
X120689285Y-112815476D01*
X120717857Y-112839285D01*
X120775000Y-112863095D01*
X121003571Y-112863095D01*
X120089285Y-113101190D02*
X120432142Y-113101190D01*
X120260714Y-113101190D02*
X120260714Y-112601190D01*
X120317857Y-112672619D01*
X120375000Y-112720238D01*
X120432142Y-112744047D01*
X119860714Y-112648809D02*
X119832142Y-112625000D01*
X119775000Y-112601190D01*
X119632142Y-112601190D01*
X119575000Y-112625000D01*
X119546428Y-112648809D01*
X119517857Y-112696428D01*
X119517857Y-112744047D01*
X119546428Y-112815476D01*
X119889285Y-113101190D01*
X119517857Y-113101190D01*
%TO.C,R11*%
X124410714Y-113026190D02*
X124610714Y-112788095D01*
X124753571Y-113026190D02*
X124753571Y-112526190D01*
X124525000Y-112526190D01*
X124467857Y-112550000D01*
X124439285Y-112573809D01*
X124410714Y-112621428D01*
X124410714Y-112692857D01*
X124439285Y-112740476D01*
X124467857Y-112764285D01*
X124525000Y-112788095D01*
X124753571Y-112788095D01*
X123839285Y-113026190D02*
X124182142Y-113026190D01*
X124010714Y-113026190D02*
X124010714Y-112526190D01*
X124067857Y-112597619D01*
X124125000Y-112645238D01*
X124182142Y-112669047D01*
X123267857Y-113026190D02*
X123610714Y-113026190D01*
X123439285Y-113026190D02*
X123439285Y-112526190D01*
X123496428Y-112597619D01*
X123553571Y-112645238D01*
X123610714Y-112669047D01*
%TO.C,C29*%
X118785714Y-113053571D02*
X118814285Y-113077380D01*
X118900000Y-113101190D01*
X118957142Y-113101190D01*
X119042857Y-113077380D01*
X119100000Y-113029761D01*
X119128571Y-112982142D01*
X119157142Y-112886904D01*
X119157142Y-112815476D01*
X119128571Y-112720238D01*
X119100000Y-112672619D01*
X119042857Y-112625000D01*
X118957142Y-112601190D01*
X118900000Y-112601190D01*
X118814285Y-112625000D01*
X118785714Y-112648809D01*
X118557142Y-112648809D02*
X118528571Y-112625000D01*
X118471428Y-112601190D01*
X118328571Y-112601190D01*
X118271428Y-112625000D01*
X118242857Y-112648809D01*
X118214285Y-112696428D01*
X118214285Y-112744047D01*
X118242857Y-112815476D01*
X118585714Y-113101190D01*
X118214285Y-113101190D01*
X117928571Y-113101190D02*
X117814285Y-113101190D01*
X117757142Y-113077380D01*
X117728571Y-113053571D01*
X117671428Y-112982142D01*
X117642857Y-112886904D01*
X117642857Y-112696428D01*
X117671428Y-112648809D01*
X117700000Y-112625000D01*
X117757142Y-112601190D01*
X117871428Y-112601190D01*
X117928571Y-112625000D01*
X117957142Y-112648809D01*
X117985714Y-112696428D01*
X117985714Y-112815476D01*
X117957142Y-112863095D01*
X117928571Y-112886904D01*
X117871428Y-112910714D01*
X117757142Y-112910714D01*
X117700000Y-112886904D01*
X117671428Y-112863095D01*
X117642857Y-112815476D01*
%TO.C,C28*%
X116860714Y-113028571D02*
X116889285Y-113052380D01*
X116975000Y-113076190D01*
X117032142Y-113076190D01*
X117117857Y-113052380D01*
X117175000Y-113004761D01*
X117203571Y-112957142D01*
X117232142Y-112861904D01*
X117232142Y-112790476D01*
X117203571Y-112695238D01*
X117175000Y-112647619D01*
X117117857Y-112600000D01*
X117032142Y-112576190D01*
X116975000Y-112576190D01*
X116889285Y-112600000D01*
X116860714Y-112623809D01*
X116632142Y-112623809D02*
X116603571Y-112600000D01*
X116546428Y-112576190D01*
X116403571Y-112576190D01*
X116346428Y-112600000D01*
X116317857Y-112623809D01*
X116289285Y-112671428D01*
X116289285Y-112719047D01*
X116317857Y-112790476D01*
X116660714Y-113076190D01*
X116289285Y-113076190D01*
X115946428Y-112790476D02*
X116003571Y-112766666D01*
X116032142Y-112742857D01*
X116060714Y-112695238D01*
X116060714Y-112671428D01*
X116032142Y-112623809D01*
X116003571Y-112600000D01*
X115946428Y-112576190D01*
X115832142Y-112576190D01*
X115775000Y-112600000D01*
X115746428Y-112623809D01*
X115717857Y-112671428D01*
X115717857Y-112695238D01*
X115746428Y-112742857D01*
X115775000Y-112766666D01*
X115832142Y-112790476D01*
X115946428Y-112790476D01*
X116003571Y-112814285D01*
X116032142Y-112838095D01*
X116060714Y-112885714D01*
X116060714Y-112980952D01*
X116032142Y-113028571D01*
X116003571Y-113052380D01*
X115946428Y-113076190D01*
X115832142Y-113076190D01*
X115775000Y-113052380D01*
X115746428Y-113028571D01*
X115717857Y-112980952D01*
X115717857Y-112885714D01*
X115746428Y-112838095D01*
X115775000Y-112814285D01*
X115832142Y-112790476D01*
%TO.C,C27*%
X136935714Y-112928571D02*
X136964285Y-112952380D01*
X137050000Y-112976190D01*
X137107142Y-112976190D01*
X137192857Y-112952380D01*
X137250000Y-112904761D01*
X137278571Y-112857142D01*
X137307142Y-112761904D01*
X137307142Y-112690476D01*
X137278571Y-112595238D01*
X137250000Y-112547619D01*
X137192857Y-112500000D01*
X137107142Y-112476190D01*
X137050000Y-112476190D01*
X136964285Y-112500000D01*
X136935714Y-112523809D01*
X136707142Y-112523809D02*
X136678571Y-112500000D01*
X136621428Y-112476190D01*
X136478571Y-112476190D01*
X136421428Y-112500000D01*
X136392857Y-112523809D01*
X136364285Y-112571428D01*
X136364285Y-112619047D01*
X136392857Y-112690476D01*
X136735714Y-112976190D01*
X136364285Y-112976190D01*
X136164285Y-112476190D02*
X135764285Y-112476190D01*
X136021428Y-112976190D01*
%TO.C,C26*%
X134910714Y-112953571D02*
X134939285Y-112977380D01*
X135025000Y-113001190D01*
X135082142Y-113001190D01*
X135167857Y-112977380D01*
X135225000Y-112929761D01*
X135253571Y-112882142D01*
X135282142Y-112786904D01*
X135282142Y-112715476D01*
X135253571Y-112620238D01*
X135225000Y-112572619D01*
X135167857Y-112525000D01*
X135082142Y-112501190D01*
X135025000Y-112501190D01*
X134939285Y-112525000D01*
X134910714Y-112548809D01*
X134682142Y-112548809D02*
X134653571Y-112525000D01*
X134596428Y-112501190D01*
X134453571Y-112501190D01*
X134396428Y-112525000D01*
X134367857Y-112548809D01*
X134339285Y-112596428D01*
X134339285Y-112644047D01*
X134367857Y-112715476D01*
X134710714Y-113001190D01*
X134339285Y-113001190D01*
X133825000Y-112501190D02*
X133939285Y-112501190D01*
X133996428Y-112525000D01*
X134025000Y-112548809D01*
X134082142Y-112620238D01*
X134110714Y-112715476D01*
X134110714Y-112905952D01*
X134082142Y-112953571D01*
X134053571Y-112977380D01*
X133996428Y-113001190D01*
X133882142Y-113001190D01*
X133825000Y-112977380D01*
X133796428Y-112953571D01*
X133767857Y-112905952D01*
X133767857Y-112786904D01*
X133796428Y-112739285D01*
X133825000Y-112715476D01*
X133882142Y-112691666D01*
X133996428Y-112691666D01*
X134053571Y-112715476D01*
X134082142Y-112739285D01*
X134110714Y-112786904D01*
%TD*%
M02*
