%TF.GenerationSoftware,KiCad,Pcbnew,(5.1.6-0-10_14)*%
%TF.CreationDate,2020-10-29T20:17:36+08:00*%
%TF.ProjectId,QuadoFly,51756164-6f46-46c7-992e-6b696361645f,rev?*%
%TF.SameCoordinates,Original*%
%TF.FileFunction,Soldermask,Bot*%
%TF.FilePolarity,Negative*%
%FSLAX46Y46*%
G04 Gerber Fmt 4.6, Leading zero omitted, Abs format (unit mm)*
G04 Created by KiCad (PCBNEW (5.1.6-0-10_14)) date 2020-10-29 20:17:36*
%MOMM*%
%LPD*%
G01*
G04 APERTURE LIST*
%ADD10O,1.450000X1.450000*%
%ADD11R,1.450000X1.450000*%
%ADD12R,0.100000X0.100000*%
%ADD13R,0.500000X3.100000*%
%ADD14C,0.750000*%
%ADD15O,1.100000X1.700000*%
%ADD16O,1.100000X2.200000*%
G04 APERTURE END LIST*
D10*
%TO.C,J10*%
X101500000Y-143500000D03*
X101500000Y-141500000D03*
X101500000Y-139500000D03*
D11*
X101500000Y-137500000D03*
%TD*%
D10*
%TO.C,J9*%
X138500000Y-143500000D03*
X138500000Y-141500000D03*
X138500000Y-139500000D03*
D11*
X138500000Y-137500000D03*
%TD*%
D10*
%TO.C,J3*%
X101500000Y-129250000D03*
D11*
X101500000Y-127250000D03*
%TD*%
D10*
%TO.C,J2*%
X101500000Y-122100000D03*
D11*
X101500000Y-124100000D03*
%TD*%
D12*
%TO.C,J13*%
X138250000Y-107800000D03*
D13*
X116350000Y-106500000D03*
X117050000Y-106500000D03*
X117750000Y-106500000D03*
X118450000Y-106500000D03*
X119150000Y-106500000D03*
X119850000Y-106500000D03*
X120550000Y-106500000D03*
X121250000Y-106500000D03*
X121950000Y-106500000D03*
X122650000Y-106500000D03*
X123350000Y-106500000D03*
X124050000Y-106500000D03*
X124750000Y-106500000D03*
X125450000Y-106500000D03*
X126150000Y-106500000D03*
X126850000Y-106500000D03*
X127550000Y-106500000D03*
X128250000Y-106500000D03*
X128950000Y-106500000D03*
X129650000Y-106500000D03*
X130350000Y-106500000D03*
X131050000Y-106500000D03*
X131750000Y-106500000D03*
X132450000Y-106500000D03*
X133150000Y-106500000D03*
X133850000Y-106500000D03*
X134550000Y-106500000D03*
X135250000Y-106500000D03*
X135950000Y-106500000D03*
X136650000Y-106500000D03*
%TD*%
D10*
%TO.C,J7*%
X101500000Y-134333332D03*
D11*
X101500000Y-132333332D03*
%TD*%
%TO.C,R14*%
G36*
G01*
X129137500Y-111000000D02*
X129662500Y-111000000D01*
G75*
G02*
X129925000Y-111262500I0J-262500D01*
G01*
X129925000Y-111887500D01*
G75*
G02*
X129662500Y-112150000I-262500J0D01*
G01*
X129137500Y-112150000D01*
G75*
G02*
X128875000Y-111887500I0J262500D01*
G01*
X128875000Y-111262500D01*
G75*
G02*
X129137500Y-111000000I262500J0D01*
G01*
G37*
G36*
G01*
X129137500Y-109250000D02*
X129662500Y-109250000D01*
G75*
G02*
X129925000Y-109512500I0J-262500D01*
G01*
X129925000Y-110137500D01*
G75*
G02*
X129662500Y-110400000I-262500J0D01*
G01*
X129137500Y-110400000D01*
G75*
G02*
X128875000Y-110137500I0J262500D01*
G01*
X128875000Y-109512500D01*
G75*
G02*
X129137500Y-109250000I262500J0D01*
G01*
G37*
%TD*%
%TO.C,R13*%
G36*
G01*
X131762500Y-110400000D02*
X131237500Y-110400000D01*
G75*
G02*
X130975000Y-110137500I0J262500D01*
G01*
X130975000Y-109512500D01*
G75*
G02*
X131237500Y-109250000I262500J0D01*
G01*
X131762500Y-109250000D01*
G75*
G02*
X132025000Y-109512500I0J-262500D01*
G01*
X132025000Y-110137500D01*
G75*
G02*
X131762500Y-110400000I-262500J0D01*
G01*
G37*
G36*
G01*
X131762500Y-112150000D02*
X131237500Y-112150000D01*
G75*
G02*
X130975000Y-111887500I0J262500D01*
G01*
X130975000Y-111262500D01*
G75*
G02*
X131237500Y-111000000I262500J0D01*
G01*
X131762500Y-111000000D01*
G75*
G02*
X132025000Y-111262500I0J-262500D01*
G01*
X132025000Y-111887500D01*
G75*
G02*
X131762500Y-112150000I-262500J0D01*
G01*
G37*
%TD*%
%TO.C,R12*%
G36*
G01*
X120562500Y-110400000D02*
X120037500Y-110400000D01*
G75*
G02*
X119775000Y-110137500I0J262500D01*
G01*
X119775000Y-109512500D01*
G75*
G02*
X120037500Y-109250000I262500J0D01*
G01*
X120562500Y-109250000D01*
G75*
G02*
X120825000Y-109512500I0J-262500D01*
G01*
X120825000Y-110137500D01*
G75*
G02*
X120562500Y-110400000I-262500J0D01*
G01*
G37*
G36*
G01*
X120562500Y-112150000D02*
X120037500Y-112150000D01*
G75*
G02*
X119775000Y-111887500I0J262500D01*
G01*
X119775000Y-111262500D01*
G75*
G02*
X120037500Y-111000000I262500J0D01*
G01*
X120562500Y-111000000D01*
G75*
G02*
X120825000Y-111262500I0J-262500D01*
G01*
X120825000Y-111887500D01*
G75*
G02*
X120562500Y-112150000I-262500J0D01*
G01*
G37*
%TD*%
%TO.C,R11*%
G36*
G01*
X123787500Y-111000000D02*
X124312500Y-111000000D01*
G75*
G02*
X124575000Y-111262500I0J-262500D01*
G01*
X124575000Y-111887500D01*
G75*
G02*
X124312500Y-112150000I-262500J0D01*
G01*
X123787500Y-112150000D01*
G75*
G02*
X123525000Y-111887500I0J262500D01*
G01*
X123525000Y-111262500D01*
G75*
G02*
X123787500Y-111000000I262500J0D01*
G01*
G37*
G36*
G01*
X123787500Y-109250000D02*
X124312500Y-109250000D01*
G75*
G02*
X124575000Y-109512500I0J-262500D01*
G01*
X124575000Y-110137500D01*
G75*
G02*
X124312500Y-110400000I-262500J0D01*
G01*
X123787500Y-110400000D01*
G75*
G02*
X123525000Y-110137500I0J262500D01*
G01*
X123525000Y-109512500D01*
G75*
G02*
X123787500Y-109250000I262500J0D01*
G01*
G37*
%TD*%
D10*
%TO.C,J8*%
X101500000Y-112900000D03*
X101500000Y-114900000D03*
X101500000Y-116900000D03*
D11*
X101500000Y-118900000D03*
%TD*%
D10*
%TO.C,J6*%
X138500000Y-122100000D03*
D11*
X138500000Y-124100000D03*
%TD*%
D10*
%TO.C,J5*%
X138500000Y-129233333D03*
D11*
X138500000Y-127233333D03*
%TD*%
D10*
%TO.C,J4*%
X138500000Y-134366666D03*
D11*
X138500000Y-132366666D03*
%TD*%
D14*
%TO.C,J1*%
X117110000Y-138545000D03*
X122890000Y-138545000D03*
D15*
X124320000Y-142225000D03*
X115680000Y-142225000D03*
D16*
X124320000Y-138045000D03*
X115680000Y-138045000D03*
%TD*%
%TO.C,C29*%
G36*
G01*
X118712500Y-110400000D02*
X118187500Y-110400000D01*
G75*
G02*
X117925000Y-110137500I0J262500D01*
G01*
X117925000Y-109512500D01*
G75*
G02*
X118187500Y-109250000I262500J0D01*
G01*
X118712500Y-109250000D01*
G75*
G02*
X118975000Y-109512500I0J-262500D01*
G01*
X118975000Y-110137500D01*
G75*
G02*
X118712500Y-110400000I-262500J0D01*
G01*
G37*
G36*
G01*
X118712500Y-112150000D02*
X118187500Y-112150000D01*
G75*
G02*
X117925000Y-111887500I0J262500D01*
G01*
X117925000Y-111262500D01*
G75*
G02*
X118187500Y-111000000I262500J0D01*
G01*
X118712500Y-111000000D01*
G75*
G02*
X118975000Y-111262500I0J-262500D01*
G01*
X118975000Y-111887500D01*
G75*
G02*
X118712500Y-112150000I-262500J0D01*
G01*
G37*
%TD*%
%TO.C,C28*%
G36*
G01*
X116812500Y-110400000D02*
X116287500Y-110400000D01*
G75*
G02*
X116025000Y-110137500I0J262500D01*
G01*
X116025000Y-109512500D01*
G75*
G02*
X116287500Y-109250000I262500J0D01*
G01*
X116812500Y-109250000D01*
G75*
G02*
X117075000Y-109512500I0J-262500D01*
G01*
X117075000Y-110137500D01*
G75*
G02*
X116812500Y-110400000I-262500J0D01*
G01*
G37*
G36*
G01*
X116812500Y-112150000D02*
X116287500Y-112150000D01*
G75*
G02*
X116025000Y-111887500I0J262500D01*
G01*
X116025000Y-111262500D01*
G75*
G02*
X116287500Y-111000000I262500J0D01*
G01*
X116812500Y-111000000D01*
G75*
G02*
X117075000Y-111262500I0J-262500D01*
G01*
X117075000Y-111887500D01*
G75*
G02*
X116812500Y-112150000I-262500J0D01*
G01*
G37*
%TD*%
%TO.C,C27*%
G36*
G01*
X134762500Y-110400000D02*
X134237500Y-110400000D01*
G75*
G02*
X133975000Y-110137500I0J262500D01*
G01*
X133975000Y-109512500D01*
G75*
G02*
X134237500Y-109250000I262500J0D01*
G01*
X134762500Y-109250000D01*
G75*
G02*
X135025000Y-109512500I0J-262500D01*
G01*
X135025000Y-110137500D01*
G75*
G02*
X134762500Y-110400000I-262500J0D01*
G01*
G37*
G36*
G01*
X134762500Y-112150000D02*
X134237500Y-112150000D01*
G75*
G02*
X133975000Y-111887500I0J262500D01*
G01*
X133975000Y-111262500D01*
G75*
G02*
X134237500Y-111000000I262500J0D01*
G01*
X134762500Y-111000000D01*
G75*
G02*
X135025000Y-111262500I0J-262500D01*
G01*
X135025000Y-111887500D01*
G75*
G02*
X134762500Y-112150000I-262500J0D01*
G01*
G37*
%TD*%
%TO.C,C26*%
G36*
G01*
X136237500Y-111000000D02*
X136762500Y-111000000D01*
G75*
G02*
X137025000Y-111262500I0J-262500D01*
G01*
X137025000Y-111887500D01*
G75*
G02*
X136762500Y-112150000I-262500J0D01*
G01*
X136237500Y-112150000D01*
G75*
G02*
X135975000Y-111887500I0J262500D01*
G01*
X135975000Y-111262500D01*
G75*
G02*
X136237500Y-111000000I262500J0D01*
G01*
G37*
G36*
G01*
X136237500Y-109250000D02*
X136762500Y-109250000D01*
G75*
G02*
X137025000Y-109512500I0J-262500D01*
G01*
X137025000Y-110137500D01*
G75*
G02*
X136762500Y-110400000I-262500J0D01*
G01*
X136237500Y-110400000D01*
G75*
G02*
X135975000Y-110137500I0J262500D01*
G01*
X135975000Y-109512500D01*
G75*
G02*
X136237500Y-109250000I262500J0D01*
G01*
G37*
%TD*%
M02*
