%TF.GenerationSoftware,KiCad,Pcbnew,(5.1.6-0-10_14)*%
%TF.CreationDate,2020-10-29T20:17:36+08:00*%
%TF.ProjectId,QuadoFly,51756164-6f46-46c7-992e-6b696361645f,rev?*%
%TF.SameCoordinates,Original*%
%TF.FileFunction,Legend,Top*%
%TF.FilePolarity,Positive*%
%FSLAX46Y46*%
G04 Gerber Fmt 4.6, Leading zero omitted, Abs format (unit mm)*
G04 Created by KiCad (PCBNEW (5.1.6-0-10_14)) date 2020-10-29 20:17:36*
%MOMM*%
%LPD*%
G01*
G04 APERTURE LIST*
%ADD10C,0.050000*%
%ADD11C,0.120000*%
%ADD12C,0.150000*%
%ADD13C,0.100000*%
G04 APERTURE END LIST*
D10*
X114000000Y-101000000D02*
X114000000Y-118000000D01*
X114000000Y-101000000D02*
X139000000Y-101000000D01*
X139000000Y-100000000D02*
X139000000Y-117000000D01*
X114000000Y-118000000D02*
X139000000Y-118000000D01*
D11*
%TO.C,J10*%
X100440000Y-136440000D02*
X101500000Y-136440000D01*
X100440000Y-137500000D02*
X100440000Y-136440000D01*
X100440000Y-138500000D02*
X102560000Y-138500000D01*
X102560000Y-138500000D02*
X102560000Y-144560000D01*
X100440000Y-138500000D02*
X100440000Y-144560000D01*
X100440000Y-144560000D02*
X102560000Y-144560000D01*
%TO.C,J9*%
X137440000Y-136440000D02*
X138500000Y-136440000D01*
X137440000Y-137500000D02*
X137440000Y-136440000D01*
X137440000Y-138500000D02*
X139560000Y-138500000D01*
X139560000Y-138500000D02*
X139560000Y-144560000D01*
X137440000Y-138500000D02*
X137440000Y-144560000D01*
X137440000Y-144560000D02*
X139560000Y-144560000D01*
%TO.C,J3*%
X100440000Y-126190000D02*
X101500000Y-126190000D01*
X100440000Y-127250000D02*
X100440000Y-126190000D01*
X100440000Y-128250000D02*
X102560000Y-128250000D01*
X102560000Y-128250000D02*
X102560000Y-130310000D01*
X100440000Y-128250000D02*
X100440000Y-130310000D01*
X100440000Y-130310000D02*
X102560000Y-130310000D01*
%TO.C,J2*%
X102560000Y-125160000D02*
X101500000Y-125160000D01*
X102560000Y-124100000D02*
X102560000Y-125160000D01*
X102560000Y-123100000D02*
X100440000Y-123100000D01*
X100440000Y-123100000D02*
X100440000Y-121040000D01*
X102560000Y-123100000D02*
X102560000Y-121040000D01*
X102560000Y-121040000D02*
X100440000Y-121040000D01*
%TO.C,J7*%
X100440000Y-135393332D02*
X102560000Y-135393332D01*
X100440000Y-133333332D02*
X100440000Y-135393332D01*
X102560000Y-133333332D02*
X102560000Y-135393332D01*
X100440000Y-133333332D02*
X102560000Y-133333332D01*
X100440000Y-132333332D02*
X100440000Y-131273332D01*
X100440000Y-131273332D02*
X101500000Y-131273332D01*
%TO.C,Y1*%
X123794666Y-121660000D02*
X118794666Y-121660000D01*
X123794666Y-118240000D02*
X118794666Y-118240000D01*
%TO.C,U7*%
X112000000Y-111150000D02*
X99900000Y-111150000D01*
X99900000Y-100050000D02*
X99900000Y-111150000D01*
X112000000Y-100050000D02*
X112000000Y-111150000D01*
X99900000Y-100050000D02*
X112000000Y-100050000D01*
D12*
%TO.C,U6*%
X109650000Y-116300000D02*
X109125000Y-116300000D01*
X105350000Y-112000000D02*
X105875000Y-112000000D01*
X105350000Y-116300000D02*
X105875000Y-116300000D01*
X109650000Y-112000000D02*
X109650000Y-112525000D01*
X105350000Y-112000000D02*
X105350000Y-112525000D01*
X105350000Y-116300000D02*
X105350000Y-115775000D01*
X109650000Y-116300000D02*
X109650000Y-115775000D01*
D11*
%TO.C,U5*%
X107500000Y-132060000D02*
X109450000Y-132060000D01*
X107500000Y-132060000D02*
X105550000Y-132060000D01*
X107500000Y-126940000D02*
X109450000Y-126940000D01*
X107500000Y-126940000D02*
X104050000Y-126940000D01*
%TO.C,U4*%
X116390000Y-130810000D02*
X116390000Y-131260000D01*
X116390000Y-131260000D02*
X116840000Y-131260000D01*
X116390000Y-124490000D02*
X116390000Y-124040000D01*
X116390000Y-124040000D02*
X116840000Y-124040000D01*
X123610000Y-130810000D02*
X123610000Y-131260000D01*
X123610000Y-131260000D02*
X123160000Y-131260000D01*
X123610000Y-124490000D02*
X123610000Y-124040000D01*
X123610000Y-124040000D02*
X123160000Y-124040000D01*
X123160000Y-124040000D02*
X123160000Y-122750000D01*
%TO.C,U3*%
X132500000Y-118765000D02*
X130300000Y-118765000D01*
X132500000Y-118765000D02*
X134700000Y-118765000D01*
X132500000Y-124235000D02*
X130300000Y-124235000D01*
X132500000Y-124235000D02*
X136100000Y-124235000D01*
%TO.C,U2*%
X132500000Y-126940000D02*
X130550000Y-126940000D01*
X132500000Y-126940000D02*
X134450000Y-126940000D01*
X132500000Y-132060000D02*
X130550000Y-132060000D01*
X132500000Y-132060000D02*
X135950000Y-132060000D01*
%TO.C,U1*%
X107500000Y-124235000D02*
X109700000Y-124235000D01*
X107500000Y-124235000D02*
X105300000Y-124235000D01*
X107500000Y-118765000D02*
X109700000Y-118765000D01*
X107500000Y-118765000D02*
X103900000Y-118765000D01*
%TO.C,SW1*%
X111300000Y-141600000D02*
X111300000Y-141300000D01*
X111300000Y-141300000D02*
X108000000Y-141300000D01*
X108000000Y-141300000D02*
X108000000Y-141600000D01*
X111300000Y-143800000D02*
X111300000Y-144100000D01*
X111300000Y-144100000D02*
X108000000Y-144100000D01*
X108000000Y-144100000D02*
X108000000Y-143800000D01*
%TO.C,R16*%
X121560000Y-134478733D02*
X121560000Y-134821267D01*
X120540000Y-134478733D02*
X120540000Y-134821267D01*
%TO.C,R15*%
X118940000Y-134821267D02*
X118940000Y-134478733D01*
X119960000Y-134821267D02*
X119960000Y-134478733D01*
%TO.C,R10*%
X105121267Y-133810000D02*
X104778733Y-133810000D01*
X105121267Y-132790000D02*
X104778733Y-132790000D01*
%TO.C,R9*%
X104778733Y-134505500D02*
X105121267Y-134505500D01*
X104778733Y-135525500D02*
X105121267Y-135525500D01*
%TO.C,R8*%
X110840000Y-116971267D02*
X110840000Y-116628733D01*
X111860000Y-116971267D02*
X111860000Y-116628733D01*
%TO.C,R7*%
X111860000Y-112978733D02*
X111860000Y-113321267D01*
X110840000Y-112978733D02*
X110840000Y-113321267D01*
%TO.C,R6*%
X124640000Y-120321267D02*
X124640000Y-119978733D01*
X125660000Y-120321267D02*
X125660000Y-119978733D01*
%TO.C,R5*%
X127190000Y-139146267D02*
X127190000Y-138803733D01*
X128210000Y-139146267D02*
X128210000Y-138803733D01*
%TO.C,R4*%
X114910000Y-121303733D02*
X114910000Y-121646267D01*
X113890000Y-121303733D02*
X113890000Y-121646267D01*
%TO.C,R3*%
X112790000Y-142871267D02*
X112790000Y-142528733D01*
X113810000Y-142871267D02*
X113810000Y-142528733D01*
%TO.C,R2*%
X127310000Y-125978733D02*
X127310000Y-126321267D01*
X126290000Y-125978733D02*
X126290000Y-126321267D01*
%TO.C,R1*%
X111885000Y-138478733D02*
X111885000Y-138821267D01*
X110865000Y-138478733D02*
X110865000Y-138821267D01*
%TO.C,L2*%
X136400000Y-139750000D02*
X136400000Y-137700000D01*
X136400000Y-137700000D02*
X129300000Y-137700000D01*
X129300000Y-137700000D02*
X129300000Y-139750000D01*
X136400000Y-142750000D02*
X136400000Y-144800000D01*
X136400000Y-144800000D02*
X129300000Y-144800000D01*
X129300000Y-144800000D02*
X129300000Y-142750000D01*
%TO.C,J8*%
X102560000Y-111840000D02*
X100440000Y-111840000D01*
X102560000Y-117900000D02*
X102560000Y-111840000D01*
X100440000Y-117900000D02*
X100440000Y-111840000D01*
X102560000Y-117900000D02*
X100440000Y-117900000D01*
X102560000Y-118900000D02*
X102560000Y-119960000D01*
X102560000Y-119960000D02*
X101500000Y-119960000D01*
%TO.C,J6*%
X139560000Y-121040000D02*
X137440000Y-121040000D01*
X139560000Y-123100000D02*
X139560000Y-121040000D01*
X137440000Y-123100000D02*
X137440000Y-121040000D01*
X139560000Y-123100000D02*
X137440000Y-123100000D01*
X139560000Y-124100000D02*
X139560000Y-125160000D01*
X139560000Y-125160000D02*
X138500000Y-125160000D01*
%TO.C,J5*%
X137440000Y-130293333D02*
X139560000Y-130293333D01*
X137440000Y-128233333D02*
X137440000Y-130293333D01*
X139560000Y-128233333D02*
X139560000Y-130293333D01*
X137440000Y-128233333D02*
X139560000Y-128233333D01*
X137440000Y-127233333D02*
X137440000Y-126173333D01*
X137440000Y-126173333D02*
X138500000Y-126173333D01*
%TO.C,J4*%
X137440000Y-135426666D02*
X139560000Y-135426666D01*
X137440000Y-133366666D02*
X137440000Y-135426666D01*
X139560000Y-133366666D02*
X139560000Y-135426666D01*
X137440000Y-133366666D02*
X139560000Y-133366666D01*
X137440000Y-132366666D02*
X137440000Y-131306666D01*
X137440000Y-131306666D02*
X138500000Y-131306666D01*
%TO.C,J1*%
X115420000Y-139300000D02*
X115420000Y-141220000D01*
X124580000Y-141220000D02*
X124580000Y-139300000D01*
X124580000Y-143230000D02*
X124580000Y-144935000D01*
X115420000Y-144935000D02*
X115420000Y-143230000D01*
X124580000Y-144935000D02*
X115420000Y-144935000D01*
%TO.C,D2*%
X134685000Y-136520000D02*
X134685000Y-134235000D01*
X134685000Y-134235000D02*
X133215000Y-134235000D01*
X133215000Y-134235000D02*
X133215000Y-136520000D01*
%TO.C,D1*%
X135115000Y-134880000D02*
X135115000Y-137165000D01*
X135115000Y-137165000D02*
X136585000Y-137165000D01*
X136585000Y-137165000D02*
X136585000Y-134880000D01*
%TO.C,C25*%
X108671267Y-118210000D02*
X108328733Y-118210000D01*
X108671267Y-117190000D02*
X108328733Y-117190000D01*
%TO.C,C24*%
X103390000Y-114621267D02*
X103390000Y-114278733D01*
X104410000Y-114621267D02*
X104410000Y-114278733D01*
%TO.C,C23*%
X105121267Y-137241000D02*
X104778733Y-137241000D01*
X105121267Y-136221000D02*
X104778733Y-136221000D01*
%TO.C,C22*%
X114908000Y-134140733D02*
X114908000Y-134483267D01*
X113888000Y-134140733D02*
X113888000Y-134483267D01*
%TO.C,C21*%
X117460000Y-119578733D02*
X117460000Y-119921267D01*
X116440000Y-119578733D02*
X116440000Y-119921267D01*
%TO.C,C20*%
X126340000Y-120321267D02*
X126340000Y-119978733D01*
X127360000Y-120321267D02*
X127360000Y-119978733D01*
%TO.C,C19*%
X132710000Y-135403733D02*
X132710000Y-135746267D01*
X131690000Y-135403733D02*
X131690000Y-135746267D01*
%TO.C,C18*%
X134871267Y-126010000D02*
X134528733Y-126010000D01*
X134871267Y-124990000D02*
X134528733Y-124990000D01*
%TO.C,C17*%
X127190000Y-142596267D02*
X127190000Y-142253733D01*
X128210000Y-142596267D02*
X128210000Y-142253733D01*
%TO.C,C16*%
X113996267Y-119410000D02*
X113653733Y-119410000D01*
X113996267Y-118390000D02*
X113653733Y-118390000D01*
%TO.C,C15*%
X128190000Y-135721267D02*
X128190000Y-135378733D01*
X129210000Y-135721267D02*
X129210000Y-135378733D01*
%TO.C,C14*%
X130446267Y-126010000D02*
X130103733Y-126010000D01*
X130446267Y-124990000D02*
X130103733Y-124990000D01*
%TO.C,C13*%
X104778733Y-139646000D02*
X105121267Y-139646000D01*
X104778733Y-140666000D02*
X105121267Y-140666000D01*
%TO.C,C12*%
X130960000Y-135378733D02*
X130960000Y-135721267D01*
X129940000Y-135378733D02*
X129940000Y-135721267D01*
%TO.C,C11*%
X104778733Y-143096000D02*
X105121267Y-143096000D01*
X104778733Y-144116000D02*
X105121267Y-144116000D01*
%TO.C,C10*%
X105128733Y-124990000D02*
X105471267Y-124990000D01*
X105128733Y-126010000D02*
X105471267Y-126010000D01*
%TO.C,C9*%
X108308000Y-134140733D02*
X108308000Y-134483267D01*
X107288000Y-134140733D02*
X107288000Y-134483267D01*
%TO.C,C8*%
X113560000Y-138478733D02*
X113560000Y-138821267D01*
X112540000Y-138478733D02*
X112540000Y-138821267D01*
%TO.C,C7*%
X109958000Y-134140733D02*
X109958000Y-134483267D01*
X108938000Y-134140733D02*
X108938000Y-134483267D01*
%TO.C,C6*%
X109190000Y-138821267D02*
X109190000Y-138478733D01*
X110210000Y-138821267D02*
X110210000Y-138478733D01*
%TO.C,C5*%
X104778733Y-137921000D02*
X105121267Y-137921000D01*
X104778733Y-138941000D02*
X105121267Y-138941000D01*
%TO.C,C4*%
X113258000Y-134140733D02*
X113258000Y-134483267D01*
X112238000Y-134140733D02*
X112238000Y-134483267D01*
%TO.C,C3*%
X111608000Y-134140733D02*
X111608000Y-134483267D01*
X110588000Y-134140733D02*
X110588000Y-134483267D01*
%TO.C,C2*%
X104778733Y-141371000D02*
X105121267Y-141371000D01*
X104778733Y-142391000D02*
X105121267Y-142391000D01*
%TO.C,C1*%
X109528733Y-124990000D02*
X109871267Y-124990000D01*
X109528733Y-126010000D02*
X109871267Y-126010000D01*
%TO.C,J10*%
D13*
X101039285Y-135576190D02*
X101039285Y-135933333D01*
X101010714Y-136004761D01*
X100953571Y-136052380D01*
X100867857Y-136076190D01*
X100810714Y-136076190D01*
X101639285Y-136076190D02*
X101296428Y-136076190D01*
X101467857Y-136076190D02*
X101467857Y-135576190D01*
X101410714Y-135647619D01*
X101353571Y-135695238D01*
X101296428Y-135719047D01*
X102010714Y-135576190D02*
X102067857Y-135576190D01*
X102125000Y-135600000D01*
X102153571Y-135623809D01*
X102182142Y-135671428D01*
X102210714Y-135766666D01*
X102210714Y-135885714D01*
X102182142Y-135980952D01*
X102153571Y-136028571D01*
X102125000Y-136052380D01*
X102067857Y-136076190D01*
X102010714Y-136076190D01*
X101953571Y-136052380D01*
X101925000Y-136028571D01*
X101896428Y-135980952D01*
X101867857Y-135885714D01*
X101867857Y-135766666D01*
X101896428Y-135671428D01*
X101925000Y-135623809D01*
X101953571Y-135600000D01*
X102010714Y-135576190D01*
%TO.C,J9*%
X138325000Y-135626190D02*
X138325000Y-135983333D01*
X138296428Y-136054761D01*
X138239285Y-136102380D01*
X138153571Y-136126190D01*
X138096428Y-136126190D01*
X138639285Y-136126190D02*
X138753571Y-136126190D01*
X138810714Y-136102380D01*
X138839285Y-136078571D01*
X138896428Y-136007142D01*
X138925000Y-135911904D01*
X138925000Y-135721428D01*
X138896428Y-135673809D01*
X138867857Y-135650000D01*
X138810714Y-135626190D01*
X138696428Y-135626190D01*
X138639285Y-135650000D01*
X138610714Y-135673809D01*
X138582142Y-135721428D01*
X138582142Y-135840476D01*
X138610714Y-135888095D01*
X138639285Y-135911904D01*
X138696428Y-135935714D01*
X138810714Y-135935714D01*
X138867857Y-135911904D01*
X138896428Y-135888095D01*
X138925000Y-135840476D01*
%TO.C,J3*%
X101300000Y-125401190D02*
X101300000Y-125758333D01*
X101271428Y-125829761D01*
X101214285Y-125877380D01*
X101128571Y-125901190D01*
X101071428Y-125901190D01*
X101528571Y-125401190D02*
X101900000Y-125401190D01*
X101700000Y-125591666D01*
X101785714Y-125591666D01*
X101842857Y-125615476D01*
X101871428Y-125639285D01*
X101900000Y-125686904D01*
X101900000Y-125805952D01*
X101871428Y-125853571D01*
X101842857Y-125877380D01*
X101785714Y-125901190D01*
X101614285Y-125901190D01*
X101557142Y-125877380D01*
X101528571Y-125853571D01*
%TO.C,J2*%
X101300000Y-120326190D02*
X101300000Y-120683333D01*
X101271428Y-120754761D01*
X101214285Y-120802380D01*
X101128571Y-120826190D01*
X101071428Y-120826190D01*
X101557142Y-120373809D02*
X101585714Y-120350000D01*
X101642857Y-120326190D01*
X101785714Y-120326190D01*
X101842857Y-120350000D01*
X101871428Y-120373809D01*
X101900000Y-120421428D01*
X101900000Y-120469047D01*
X101871428Y-120540476D01*
X101528571Y-120826190D01*
X101900000Y-120826190D01*
%TO.C,J7*%
X101350000Y-130576190D02*
X101350000Y-130933333D01*
X101321428Y-131004761D01*
X101264285Y-131052380D01*
X101178571Y-131076190D01*
X101121428Y-131076190D01*
X101578571Y-130576190D02*
X101978571Y-130576190D01*
X101721428Y-131076190D01*
%TO.C,Y1*%
X121139285Y-120113095D02*
X121139285Y-120351190D01*
X120939285Y-119851190D02*
X121139285Y-120113095D01*
X121339285Y-119851190D01*
X121853571Y-120351190D02*
X121510714Y-120351190D01*
X121682142Y-120351190D02*
X121682142Y-119851190D01*
X121625000Y-119922619D01*
X121567857Y-119970238D01*
X121510714Y-119994047D01*
%TO.C,U7*%
X106992857Y-113951190D02*
X106992857Y-114355952D01*
X107021428Y-114403571D01*
X107050000Y-114427380D01*
X107107142Y-114451190D01*
X107221428Y-114451190D01*
X107278571Y-114427380D01*
X107307142Y-114403571D01*
X107335714Y-114355952D01*
X107335714Y-113951190D01*
X107564285Y-113951190D02*
X107964285Y-113951190D01*
X107707142Y-114451190D01*
%TO.C,U6*%
X106992857Y-111151190D02*
X106992857Y-111555952D01*
X107021428Y-111603571D01*
X107050000Y-111627380D01*
X107107142Y-111651190D01*
X107221428Y-111651190D01*
X107278571Y-111627380D01*
X107307142Y-111603571D01*
X107335714Y-111555952D01*
X107335714Y-111151190D01*
X107878571Y-111151190D02*
X107764285Y-111151190D01*
X107707142Y-111175000D01*
X107678571Y-111198809D01*
X107621428Y-111270238D01*
X107592857Y-111365476D01*
X107592857Y-111555952D01*
X107621428Y-111603571D01*
X107650000Y-111627380D01*
X107707142Y-111651190D01*
X107821428Y-111651190D01*
X107878571Y-111627380D01*
X107907142Y-111603571D01*
X107935714Y-111555952D01*
X107935714Y-111436904D01*
X107907142Y-111389285D01*
X107878571Y-111365476D01*
X107821428Y-111341666D01*
X107707142Y-111341666D01*
X107650000Y-111365476D01*
X107621428Y-111389285D01*
X107592857Y-111436904D01*
%TO.C,U5*%
X107042857Y-127001190D02*
X107042857Y-127405952D01*
X107071428Y-127453571D01*
X107100000Y-127477380D01*
X107157142Y-127501190D01*
X107271428Y-127501190D01*
X107328571Y-127477380D01*
X107357142Y-127453571D01*
X107385714Y-127405952D01*
X107385714Y-127001190D01*
X107957142Y-127001190D02*
X107671428Y-127001190D01*
X107642857Y-127239285D01*
X107671428Y-127215476D01*
X107728571Y-127191666D01*
X107871428Y-127191666D01*
X107928571Y-127215476D01*
X107957142Y-127239285D01*
X107985714Y-127286904D01*
X107985714Y-127405952D01*
X107957142Y-127453571D01*
X107928571Y-127477380D01*
X107871428Y-127501190D01*
X107728571Y-127501190D01*
X107671428Y-127477380D01*
X107642857Y-127453571D01*
%TO.C,U4*%
X125576190Y-128107142D02*
X125980952Y-128107142D01*
X126028571Y-128078571D01*
X126052380Y-128050000D01*
X126076190Y-127992857D01*
X126076190Y-127878571D01*
X126052380Y-127821428D01*
X126028571Y-127792857D01*
X125980952Y-127764285D01*
X125576190Y-127764285D01*
X125742857Y-127221428D02*
X126076190Y-127221428D01*
X125552380Y-127364285D02*
X125909523Y-127507142D01*
X125909523Y-127135714D01*
%TO.C,U3*%
X132042857Y-124676190D02*
X132042857Y-125080952D01*
X132071428Y-125128571D01*
X132100000Y-125152380D01*
X132157142Y-125176190D01*
X132271428Y-125176190D01*
X132328571Y-125152380D01*
X132357142Y-125128571D01*
X132385714Y-125080952D01*
X132385714Y-124676190D01*
X132614285Y-124676190D02*
X132985714Y-124676190D01*
X132785714Y-124866666D01*
X132871428Y-124866666D01*
X132928571Y-124890476D01*
X132957142Y-124914285D01*
X132985714Y-124961904D01*
X132985714Y-125080952D01*
X132957142Y-125128571D01*
X132928571Y-125152380D01*
X132871428Y-125176190D01*
X132700000Y-125176190D01*
X132642857Y-125152380D01*
X132614285Y-125128571D01*
%TO.C,U2*%
X132117857Y-131326190D02*
X132117857Y-131730952D01*
X132146428Y-131778571D01*
X132175000Y-131802380D01*
X132232142Y-131826190D01*
X132346428Y-131826190D01*
X132403571Y-131802380D01*
X132432142Y-131778571D01*
X132460714Y-131730952D01*
X132460714Y-131326190D01*
X132717857Y-131373809D02*
X132746428Y-131350000D01*
X132803571Y-131326190D01*
X132946428Y-131326190D01*
X133003571Y-131350000D01*
X133032142Y-131373809D01*
X133060714Y-131421428D01*
X133060714Y-131469047D01*
X133032142Y-131540476D01*
X132689285Y-131826190D01*
X133060714Y-131826190D01*
%TO.C,U1*%
X107242857Y-121376190D02*
X107242857Y-121780952D01*
X107271428Y-121828571D01*
X107300000Y-121852380D01*
X107357142Y-121876190D01*
X107471428Y-121876190D01*
X107528571Y-121852380D01*
X107557142Y-121828571D01*
X107585714Y-121780952D01*
X107585714Y-121376190D01*
X108185714Y-121876190D02*
X107842857Y-121876190D01*
X108014285Y-121876190D02*
X108014285Y-121376190D01*
X107957142Y-121447619D01*
X107900000Y-121495238D01*
X107842857Y-121519047D01*
%TO.C,SW1*%
X108700000Y-142902380D02*
X108785714Y-142926190D01*
X108928571Y-142926190D01*
X108985714Y-142902380D01*
X109014285Y-142878571D01*
X109042857Y-142830952D01*
X109042857Y-142783333D01*
X109014285Y-142735714D01*
X108985714Y-142711904D01*
X108928571Y-142688095D01*
X108814285Y-142664285D01*
X108757142Y-142640476D01*
X108728571Y-142616666D01*
X108700000Y-142569047D01*
X108700000Y-142521428D01*
X108728571Y-142473809D01*
X108757142Y-142450000D01*
X108814285Y-142426190D01*
X108957142Y-142426190D01*
X109042857Y-142450000D01*
X109242857Y-142426190D02*
X109385714Y-142926190D01*
X109500000Y-142569047D01*
X109614285Y-142926190D01*
X109757142Y-142426190D01*
X110300000Y-142926190D02*
X109957142Y-142926190D01*
X110128571Y-142926190D02*
X110128571Y-142426190D01*
X110071428Y-142497619D01*
X110014285Y-142545238D01*
X109957142Y-142569047D01*
%TO.C,R16*%
X121989285Y-134926190D02*
X121789285Y-134688095D01*
X121646428Y-134926190D02*
X121646428Y-134426190D01*
X121875000Y-134426190D01*
X121932142Y-134450000D01*
X121960714Y-134473809D01*
X121989285Y-134521428D01*
X121989285Y-134592857D01*
X121960714Y-134640476D01*
X121932142Y-134664285D01*
X121875000Y-134688095D01*
X121646428Y-134688095D01*
X122560714Y-134926190D02*
X122217857Y-134926190D01*
X122389285Y-134926190D02*
X122389285Y-134426190D01*
X122332142Y-134497619D01*
X122275000Y-134545238D01*
X122217857Y-134569047D01*
X123075000Y-134426190D02*
X122960714Y-134426190D01*
X122903571Y-134450000D01*
X122875000Y-134473809D01*
X122817857Y-134545238D01*
X122789285Y-134640476D01*
X122789285Y-134830952D01*
X122817857Y-134878571D01*
X122846428Y-134902380D01*
X122903571Y-134926190D01*
X123017857Y-134926190D01*
X123075000Y-134902380D01*
X123103571Y-134878571D01*
X123132142Y-134830952D01*
X123132142Y-134711904D01*
X123103571Y-134664285D01*
X123075000Y-134640476D01*
X123017857Y-134616666D01*
X122903571Y-134616666D01*
X122846428Y-134640476D01*
X122817857Y-134664285D01*
X122789285Y-134711904D01*
%TO.C,R15*%
X117539285Y-134951190D02*
X117339285Y-134713095D01*
X117196428Y-134951190D02*
X117196428Y-134451190D01*
X117425000Y-134451190D01*
X117482142Y-134475000D01*
X117510714Y-134498809D01*
X117539285Y-134546428D01*
X117539285Y-134617857D01*
X117510714Y-134665476D01*
X117482142Y-134689285D01*
X117425000Y-134713095D01*
X117196428Y-134713095D01*
X118110714Y-134951190D02*
X117767857Y-134951190D01*
X117939285Y-134951190D02*
X117939285Y-134451190D01*
X117882142Y-134522619D01*
X117825000Y-134570238D01*
X117767857Y-134594047D01*
X118653571Y-134451190D02*
X118367857Y-134451190D01*
X118339285Y-134689285D01*
X118367857Y-134665476D01*
X118425000Y-134641666D01*
X118567857Y-134641666D01*
X118625000Y-134665476D01*
X118653571Y-134689285D01*
X118682142Y-134736904D01*
X118682142Y-134855952D01*
X118653571Y-134903571D01*
X118625000Y-134927380D01*
X118567857Y-134951190D01*
X118425000Y-134951190D01*
X118367857Y-134927380D01*
X118339285Y-134903571D01*
%TO.C,R10*%
X104614285Y-132501190D02*
X104414285Y-132263095D01*
X104271428Y-132501190D02*
X104271428Y-132001190D01*
X104500000Y-132001190D01*
X104557142Y-132025000D01*
X104585714Y-132048809D01*
X104614285Y-132096428D01*
X104614285Y-132167857D01*
X104585714Y-132215476D01*
X104557142Y-132239285D01*
X104500000Y-132263095D01*
X104271428Y-132263095D01*
X105185714Y-132501190D02*
X104842857Y-132501190D01*
X105014285Y-132501190D02*
X105014285Y-132001190D01*
X104957142Y-132072619D01*
X104900000Y-132120238D01*
X104842857Y-132144047D01*
X105557142Y-132001190D02*
X105614285Y-132001190D01*
X105671428Y-132025000D01*
X105700000Y-132048809D01*
X105728571Y-132096428D01*
X105757142Y-132191666D01*
X105757142Y-132310714D01*
X105728571Y-132405952D01*
X105700000Y-132453571D01*
X105671428Y-132477380D01*
X105614285Y-132501190D01*
X105557142Y-132501190D01*
X105500000Y-132477380D01*
X105471428Y-132453571D01*
X105442857Y-132405952D01*
X105414285Y-132310714D01*
X105414285Y-132191666D01*
X105442857Y-132096428D01*
X105471428Y-132048809D01*
X105500000Y-132025000D01*
X105557142Y-132001190D01*
%TO.C,R9*%
X104875000Y-134451190D02*
X104675000Y-134213095D01*
X104532142Y-134451190D02*
X104532142Y-133951190D01*
X104760714Y-133951190D01*
X104817857Y-133975000D01*
X104846428Y-133998809D01*
X104875000Y-134046428D01*
X104875000Y-134117857D01*
X104846428Y-134165476D01*
X104817857Y-134189285D01*
X104760714Y-134213095D01*
X104532142Y-134213095D01*
X105160714Y-134451190D02*
X105275000Y-134451190D01*
X105332142Y-134427380D01*
X105360714Y-134403571D01*
X105417857Y-134332142D01*
X105446428Y-134236904D01*
X105446428Y-134046428D01*
X105417857Y-133998809D01*
X105389285Y-133975000D01*
X105332142Y-133951190D01*
X105217857Y-133951190D01*
X105160714Y-133975000D01*
X105132142Y-133998809D01*
X105103571Y-134046428D01*
X105103571Y-134165476D01*
X105132142Y-134213095D01*
X105160714Y-134236904D01*
X105217857Y-134260714D01*
X105332142Y-134260714D01*
X105389285Y-134236904D01*
X105417857Y-134213095D01*
X105446428Y-134165476D01*
%TO.C,R8*%
X112425000Y-117651190D02*
X112225000Y-117413095D01*
X112082142Y-117651190D02*
X112082142Y-117151190D01*
X112310714Y-117151190D01*
X112367857Y-117175000D01*
X112396428Y-117198809D01*
X112425000Y-117246428D01*
X112425000Y-117317857D01*
X112396428Y-117365476D01*
X112367857Y-117389285D01*
X112310714Y-117413095D01*
X112082142Y-117413095D01*
X112767857Y-117365476D02*
X112710714Y-117341666D01*
X112682142Y-117317857D01*
X112653571Y-117270238D01*
X112653571Y-117246428D01*
X112682142Y-117198809D01*
X112710714Y-117175000D01*
X112767857Y-117151190D01*
X112882142Y-117151190D01*
X112939285Y-117175000D01*
X112967857Y-117198809D01*
X112996428Y-117246428D01*
X112996428Y-117270238D01*
X112967857Y-117317857D01*
X112939285Y-117341666D01*
X112882142Y-117365476D01*
X112767857Y-117365476D01*
X112710714Y-117389285D01*
X112682142Y-117413095D01*
X112653571Y-117460714D01*
X112653571Y-117555952D01*
X112682142Y-117603571D01*
X112710714Y-117627380D01*
X112767857Y-117651190D01*
X112882142Y-117651190D01*
X112939285Y-117627380D01*
X112967857Y-117603571D01*
X112996428Y-117555952D01*
X112996428Y-117460714D01*
X112967857Y-117413095D01*
X112939285Y-117389285D01*
X112882142Y-117365476D01*
%TO.C,R7*%
X112375000Y-113401190D02*
X112175000Y-113163095D01*
X112032142Y-113401190D02*
X112032142Y-112901190D01*
X112260714Y-112901190D01*
X112317857Y-112925000D01*
X112346428Y-112948809D01*
X112375000Y-112996428D01*
X112375000Y-113067857D01*
X112346428Y-113115476D01*
X112317857Y-113139285D01*
X112260714Y-113163095D01*
X112032142Y-113163095D01*
X112575000Y-112901190D02*
X112975000Y-112901190D01*
X112717857Y-113401190D01*
%TO.C,R6*%
X125075000Y-118351190D02*
X124875000Y-118113095D01*
X124732142Y-118351190D02*
X124732142Y-117851190D01*
X124960714Y-117851190D01*
X125017857Y-117875000D01*
X125046428Y-117898809D01*
X125075000Y-117946428D01*
X125075000Y-118017857D01*
X125046428Y-118065476D01*
X125017857Y-118089285D01*
X124960714Y-118113095D01*
X124732142Y-118113095D01*
X125589285Y-117851190D02*
X125475000Y-117851190D01*
X125417857Y-117875000D01*
X125389285Y-117898809D01*
X125332142Y-117970238D01*
X125303571Y-118065476D01*
X125303571Y-118255952D01*
X125332142Y-118303571D01*
X125360714Y-118327380D01*
X125417857Y-118351190D01*
X125532142Y-118351190D01*
X125589285Y-118327380D01*
X125617857Y-118303571D01*
X125646428Y-118255952D01*
X125646428Y-118136904D01*
X125617857Y-118089285D01*
X125589285Y-118065476D01*
X125532142Y-118041666D01*
X125417857Y-118041666D01*
X125360714Y-118065476D01*
X125332142Y-118089285D01*
X125303571Y-118136904D01*
%TO.C,R5*%
X126400000Y-139201190D02*
X126200000Y-138963095D01*
X126057142Y-139201190D02*
X126057142Y-138701190D01*
X126285714Y-138701190D01*
X126342857Y-138725000D01*
X126371428Y-138748809D01*
X126400000Y-138796428D01*
X126400000Y-138867857D01*
X126371428Y-138915476D01*
X126342857Y-138939285D01*
X126285714Y-138963095D01*
X126057142Y-138963095D01*
X126942857Y-138701190D02*
X126657142Y-138701190D01*
X126628571Y-138939285D01*
X126657142Y-138915476D01*
X126714285Y-138891666D01*
X126857142Y-138891666D01*
X126914285Y-138915476D01*
X126942857Y-138939285D01*
X126971428Y-138986904D01*
X126971428Y-139105952D01*
X126942857Y-139153571D01*
X126914285Y-139177380D01*
X126857142Y-139201190D01*
X126714285Y-139201190D01*
X126657142Y-139177380D01*
X126628571Y-139153571D01*
%TO.C,R4*%
X115300000Y-121651190D02*
X115100000Y-121413095D01*
X114957142Y-121651190D02*
X114957142Y-121151190D01*
X115185714Y-121151190D01*
X115242857Y-121175000D01*
X115271428Y-121198809D01*
X115300000Y-121246428D01*
X115300000Y-121317857D01*
X115271428Y-121365476D01*
X115242857Y-121389285D01*
X115185714Y-121413095D01*
X114957142Y-121413095D01*
X115814285Y-121317857D02*
X115814285Y-121651190D01*
X115671428Y-121127380D02*
X115528571Y-121484523D01*
X115900000Y-121484523D01*
%TO.C,R3*%
X114175000Y-142926190D02*
X113975000Y-142688095D01*
X113832142Y-142926190D02*
X113832142Y-142426190D01*
X114060714Y-142426190D01*
X114117857Y-142450000D01*
X114146428Y-142473809D01*
X114175000Y-142521428D01*
X114175000Y-142592857D01*
X114146428Y-142640476D01*
X114117857Y-142664285D01*
X114060714Y-142688095D01*
X113832142Y-142688095D01*
X114375000Y-142426190D02*
X114746428Y-142426190D01*
X114546428Y-142616666D01*
X114632142Y-142616666D01*
X114689285Y-142640476D01*
X114717857Y-142664285D01*
X114746428Y-142711904D01*
X114746428Y-142830952D01*
X114717857Y-142878571D01*
X114689285Y-142902380D01*
X114632142Y-142926190D01*
X114460714Y-142926190D01*
X114403571Y-142902380D01*
X114375000Y-142878571D01*
%TO.C,R2*%
X128456190Y-126250000D02*
X128218095Y-126450000D01*
X128456190Y-126592857D02*
X127956190Y-126592857D01*
X127956190Y-126364285D01*
X127980000Y-126307142D01*
X128003809Y-126278571D01*
X128051428Y-126250000D01*
X128122857Y-126250000D01*
X128170476Y-126278571D01*
X128194285Y-126307142D01*
X128218095Y-126364285D01*
X128218095Y-126592857D01*
X128003809Y-126021428D02*
X127980000Y-125992857D01*
X127956190Y-125935714D01*
X127956190Y-125792857D01*
X127980000Y-125735714D01*
X128003809Y-125707142D01*
X128051428Y-125678571D01*
X128099047Y-125678571D01*
X128170476Y-125707142D01*
X128456190Y-126050000D01*
X128456190Y-125678571D01*
%TO.C,R1*%
X111350000Y-136876190D02*
X111150000Y-136638095D01*
X111007142Y-136876190D02*
X111007142Y-136376190D01*
X111235714Y-136376190D01*
X111292857Y-136400000D01*
X111321428Y-136423809D01*
X111350000Y-136471428D01*
X111350000Y-136542857D01*
X111321428Y-136590476D01*
X111292857Y-136614285D01*
X111235714Y-136638095D01*
X111007142Y-136638095D01*
X111921428Y-136876190D02*
X111578571Y-136876190D01*
X111750000Y-136876190D02*
X111750000Y-136376190D01*
X111692857Y-136447619D01*
X111635714Y-136495238D01*
X111578571Y-136519047D01*
%TO.C,L2*%
X132650000Y-141276190D02*
X132364285Y-141276190D01*
X132364285Y-140776190D01*
X132821428Y-140823809D02*
X132850000Y-140800000D01*
X132907142Y-140776190D01*
X133050000Y-140776190D01*
X133107142Y-140800000D01*
X133135714Y-140823809D01*
X133164285Y-140871428D01*
X133164285Y-140919047D01*
X133135714Y-140990476D01*
X132792857Y-141276190D01*
X133164285Y-141276190D01*
%TO.C,J8*%
X101350000Y-111276190D02*
X101350000Y-111633333D01*
X101321428Y-111704761D01*
X101264285Y-111752380D01*
X101178571Y-111776190D01*
X101121428Y-111776190D01*
X101721428Y-111490476D02*
X101664285Y-111466666D01*
X101635714Y-111442857D01*
X101607142Y-111395238D01*
X101607142Y-111371428D01*
X101635714Y-111323809D01*
X101664285Y-111300000D01*
X101721428Y-111276190D01*
X101835714Y-111276190D01*
X101892857Y-111300000D01*
X101921428Y-111323809D01*
X101950000Y-111371428D01*
X101950000Y-111395238D01*
X101921428Y-111442857D01*
X101892857Y-111466666D01*
X101835714Y-111490476D01*
X101721428Y-111490476D01*
X101664285Y-111514285D01*
X101635714Y-111538095D01*
X101607142Y-111585714D01*
X101607142Y-111680952D01*
X101635714Y-111728571D01*
X101664285Y-111752380D01*
X101721428Y-111776190D01*
X101835714Y-111776190D01*
X101892857Y-111752380D01*
X101921428Y-111728571D01*
X101950000Y-111680952D01*
X101950000Y-111585714D01*
X101921428Y-111538095D01*
X101892857Y-111514285D01*
X101835714Y-111490476D01*
%TO.C,J6*%
X138275000Y-120226190D02*
X138275000Y-120583333D01*
X138246428Y-120654761D01*
X138189285Y-120702380D01*
X138103571Y-120726190D01*
X138046428Y-120726190D01*
X138817857Y-120226190D02*
X138703571Y-120226190D01*
X138646428Y-120250000D01*
X138617857Y-120273809D01*
X138560714Y-120345238D01*
X138532142Y-120440476D01*
X138532142Y-120630952D01*
X138560714Y-120678571D01*
X138589285Y-120702380D01*
X138646428Y-120726190D01*
X138760714Y-120726190D01*
X138817857Y-120702380D01*
X138846428Y-120678571D01*
X138875000Y-120630952D01*
X138875000Y-120511904D01*
X138846428Y-120464285D01*
X138817857Y-120440476D01*
X138760714Y-120416666D01*
X138646428Y-120416666D01*
X138589285Y-120440476D01*
X138560714Y-120464285D01*
X138532142Y-120511904D01*
%TO.C,J5*%
X138350000Y-125576190D02*
X138350000Y-125933333D01*
X138321428Y-126004761D01*
X138264285Y-126052380D01*
X138178571Y-126076190D01*
X138121428Y-126076190D01*
X138921428Y-125576190D02*
X138635714Y-125576190D01*
X138607142Y-125814285D01*
X138635714Y-125790476D01*
X138692857Y-125766666D01*
X138835714Y-125766666D01*
X138892857Y-125790476D01*
X138921428Y-125814285D01*
X138950000Y-125861904D01*
X138950000Y-125980952D01*
X138921428Y-126028571D01*
X138892857Y-126052380D01*
X138835714Y-126076190D01*
X138692857Y-126076190D01*
X138635714Y-126052380D01*
X138607142Y-126028571D01*
%TO.C,J4*%
X138275000Y-130426190D02*
X138275000Y-130783333D01*
X138246428Y-130854761D01*
X138189285Y-130902380D01*
X138103571Y-130926190D01*
X138046428Y-130926190D01*
X138817857Y-130592857D02*
X138817857Y-130926190D01*
X138675000Y-130402380D02*
X138532142Y-130759523D01*
X138903571Y-130759523D01*
%TO.C,J1*%
X119800000Y-135161190D02*
X119800000Y-135518333D01*
X119771428Y-135589761D01*
X119714285Y-135637380D01*
X119628571Y-135661190D01*
X119571428Y-135661190D01*
X120400000Y-135661190D02*
X120057142Y-135661190D01*
X120228571Y-135661190D02*
X120228571Y-135161190D01*
X120171428Y-135232619D01*
X120114285Y-135280238D01*
X120057142Y-135304047D01*
%TO.C,D2*%
X135482142Y-137551190D02*
X135482142Y-137051190D01*
X135625000Y-137051190D01*
X135710714Y-137075000D01*
X135767857Y-137122619D01*
X135796428Y-137170238D01*
X135825000Y-137265476D01*
X135825000Y-137336904D01*
X135796428Y-137432142D01*
X135767857Y-137479761D01*
X135710714Y-137527380D01*
X135625000Y-137551190D01*
X135482142Y-137551190D01*
X136053571Y-137098809D02*
X136082142Y-137075000D01*
X136139285Y-137051190D01*
X136282142Y-137051190D01*
X136339285Y-137075000D01*
X136367857Y-137098809D01*
X136396428Y-137146428D01*
X136396428Y-137194047D01*
X136367857Y-137265476D01*
X136025000Y-137551190D01*
X136396428Y-137551190D01*
%TO.C,D1*%
X133582142Y-137576190D02*
X133582142Y-137076190D01*
X133725000Y-137076190D01*
X133810714Y-137100000D01*
X133867857Y-137147619D01*
X133896428Y-137195238D01*
X133925000Y-137290476D01*
X133925000Y-137361904D01*
X133896428Y-137457142D01*
X133867857Y-137504761D01*
X133810714Y-137552380D01*
X133725000Y-137576190D01*
X133582142Y-137576190D01*
X134496428Y-137576190D02*
X134153571Y-137576190D01*
X134325000Y-137576190D02*
X134325000Y-137076190D01*
X134267857Y-137147619D01*
X134210714Y-137195238D01*
X134153571Y-137219047D01*
%TO.C,C25*%
X105764285Y-117853571D02*
X105735714Y-117877380D01*
X105650000Y-117901190D01*
X105592857Y-117901190D01*
X105507142Y-117877380D01*
X105450000Y-117829761D01*
X105421428Y-117782142D01*
X105392857Y-117686904D01*
X105392857Y-117615476D01*
X105421428Y-117520238D01*
X105450000Y-117472619D01*
X105507142Y-117425000D01*
X105592857Y-117401190D01*
X105650000Y-117401190D01*
X105735714Y-117425000D01*
X105764285Y-117448809D01*
X105992857Y-117448809D02*
X106021428Y-117425000D01*
X106078571Y-117401190D01*
X106221428Y-117401190D01*
X106278571Y-117425000D01*
X106307142Y-117448809D01*
X106335714Y-117496428D01*
X106335714Y-117544047D01*
X106307142Y-117615476D01*
X105964285Y-117901190D01*
X106335714Y-117901190D01*
X106878571Y-117401190D02*
X106592857Y-117401190D01*
X106564285Y-117639285D01*
X106592857Y-117615476D01*
X106650000Y-117591666D01*
X106792857Y-117591666D01*
X106850000Y-117615476D01*
X106878571Y-117639285D01*
X106907142Y-117686904D01*
X106907142Y-117805952D01*
X106878571Y-117853571D01*
X106850000Y-117877380D01*
X106792857Y-117901190D01*
X106650000Y-117901190D01*
X106592857Y-117877380D01*
X106564285Y-117853571D01*
%TO.C,C24*%
X103464285Y-112753571D02*
X103435714Y-112777380D01*
X103350000Y-112801190D01*
X103292857Y-112801190D01*
X103207142Y-112777380D01*
X103150000Y-112729761D01*
X103121428Y-112682142D01*
X103092857Y-112586904D01*
X103092857Y-112515476D01*
X103121428Y-112420238D01*
X103150000Y-112372619D01*
X103207142Y-112325000D01*
X103292857Y-112301190D01*
X103350000Y-112301190D01*
X103435714Y-112325000D01*
X103464285Y-112348809D01*
X103692857Y-112348809D02*
X103721428Y-112325000D01*
X103778571Y-112301190D01*
X103921428Y-112301190D01*
X103978571Y-112325000D01*
X104007142Y-112348809D01*
X104035714Y-112396428D01*
X104035714Y-112444047D01*
X104007142Y-112515476D01*
X103664285Y-112801190D01*
X104035714Y-112801190D01*
X104550000Y-112467857D02*
X104550000Y-112801190D01*
X104407142Y-112277380D02*
X104264285Y-112634523D01*
X104635714Y-112634523D01*
%TO.C,C23*%
X106839285Y-136503571D02*
X106810714Y-136527380D01*
X106725000Y-136551190D01*
X106667857Y-136551190D01*
X106582142Y-136527380D01*
X106525000Y-136479761D01*
X106496428Y-136432142D01*
X106467857Y-136336904D01*
X106467857Y-136265476D01*
X106496428Y-136170238D01*
X106525000Y-136122619D01*
X106582142Y-136075000D01*
X106667857Y-136051190D01*
X106725000Y-136051190D01*
X106810714Y-136075000D01*
X106839285Y-136098809D01*
X107067857Y-136098809D02*
X107096428Y-136075000D01*
X107153571Y-136051190D01*
X107296428Y-136051190D01*
X107353571Y-136075000D01*
X107382142Y-136098809D01*
X107410714Y-136146428D01*
X107410714Y-136194047D01*
X107382142Y-136265476D01*
X107039285Y-136551190D01*
X107410714Y-136551190D01*
X107610714Y-136051190D02*
X107982142Y-136051190D01*
X107782142Y-136241666D01*
X107867857Y-136241666D01*
X107925000Y-136265476D01*
X107953571Y-136289285D01*
X107982142Y-136336904D01*
X107982142Y-136455952D01*
X107953571Y-136503571D01*
X107925000Y-136527380D01*
X107867857Y-136551190D01*
X107696428Y-136551190D01*
X107639285Y-136527380D01*
X107610714Y-136503571D01*
%TO.C,C22*%
X114039285Y-132453571D02*
X114010714Y-132477380D01*
X113925000Y-132501190D01*
X113867857Y-132501190D01*
X113782142Y-132477380D01*
X113725000Y-132429761D01*
X113696428Y-132382142D01*
X113667857Y-132286904D01*
X113667857Y-132215476D01*
X113696428Y-132120238D01*
X113725000Y-132072619D01*
X113782142Y-132025000D01*
X113867857Y-132001190D01*
X113925000Y-132001190D01*
X114010714Y-132025000D01*
X114039285Y-132048809D01*
X114267857Y-132048809D02*
X114296428Y-132025000D01*
X114353571Y-132001190D01*
X114496428Y-132001190D01*
X114553571Y-132025000D01*
X114582142Y-132048809D01*
X114610714Y-132096428D01*
X114610714Y-132144047D01*
X114582142Y-132215476D01*
X114239285Y-132501190D01*
X114610714Y-132501190D01*
X114839285Y-132048809D02*
X114867857Y-132025000D01*
X114925000Y-132001190D01*
X115067857Y-132001190D01*
X115125000Y-132025000D01*
X115153571Y-132048809D01*
X115182142Y-132096428D01*
X115182142Y-132144047D01*
X115153571Y-132215476D01*
X114810714Y-132501190D01*
X115182142Y-132501190D01*
%TO.C,C21*%
X117314285Y-119978571D02*
X117285714Y-120002380D01*
X117200000Y-120026190D01*
X117142857Y-120026190D01*
X117057142Y-120002380D01*
X117000000Y-119954761D01*
X116971428Y-119907142D01*
X116942857Y-119811904D01*
X116942857Y-119740476D01*
X116971428Y-119645238D01*
X117000000Y-119597619D01*
X117057142Y-119550000D01*
X117142857Y-119526190D01*
X117200000Y-119526190D01*
X117285714Y-119550000D01*
X117314285Y-119573809D01*
X117542857Y-119573809D02*
X117571428Y-119550000D01*
X117628571Y-119526190D01*
X117771428Y-119526190D01*
X117828571Y-119550000D01*
X117857142Y-119573809D01*
X117885714Y-119621428D01*
X117885714Y-119669047D01*
X117857142Y-119740476D01*
X117514285Y-120026190D01*
X117885714Y-120026190D01*
X118457142Y-120026190D02*
X118114285Y-120026190D01*
X118285714Y-120026190D02*
X118285714Y-119526190D01*
X118228571Y-119597619D01*
X118171428Y-119645238D01*
X118114285Y-119669047D01*
%TO.C,C20*%
X126389285Y-118303571D02*
X126360714Y-118327380D01*
X126275000Y-118351190D01*
X126217857Y-118351190D01*
X126132142Y-118327380D01*
X126075000Y-118279761D01*
X126046428Y-118232142D01*
X126017857Y-118136904D01*
X126017857Y-118065476D01*
X126046428Y-117970238D01*
X126075000Y-117922619D01*
X126132142Y-117875000D01*
X126217857Y-117851190D01*
X126275000Y-117851190D01*
X126360714Y-117875000D01*
X126389285Y-117898809D01*
X126617857Y-117898809D02*
X126646428Y-117875000D01*
X126703571Y-117851190D01*
X126846428Y-117851190D01*
X126903571Y-117875000D01*
X126932142Y-117898809D01*
X126960714Y-117946428D01*
X126960714Y-117994047D01*
X126932142Y-118065476D01*
X126589285Y-118351190D01*
X126960714Y-118351190D01*
X127332142Y-117851190D02*
X127389285Y-117851190D01*
X127446428Y-117875000D01*
X127475000Y-117898809D01*
X127503571Y-117946428D01*
X127532142Y-118041666D01*
X127532142Y-118160714D01*
X127503571Y-118255952D01*
X127475000Y-118303571D01*
X127446428Y-118327380D01*
X127389285Y-118351190D01*
X127332142Y-118351190D01*
X127275000Y-118327380D01*
X127246428Y-118303571D01*
X127217857Y-118255952D01*
X127189285Y-118160714D01*
X127189285Y-118041666D01*
X127217857Y-117946428D01*
X127246428Y-117898809D01*
X127275000Y-117875000D01*
X127332142Y-117851190D01*
%TO.C,C19*%
X131939285Y-133878571D02*
X131910714Y-133902380D01*
X131825000Y-133926190D01*
X131767857Y-133926190D01*
X131682142Y-133902380D01*
X131625000Y-133854761D01*
X131596428Y-133807142D01*
X131567857Y-133711904D01*
X131567857Y-133640476D01*
X131596428Y-133545238D01*
X131625000Y-133497619D01*
X131682142Y-133450000D01*
X131767857Y-133426190D01*
X131825000Y-133426190D01*
X131910714Y-133450000D01*
X131939285Y-133473809D01*
X132510714Y-133926190D02*
X132167857Y-133926190D01*
X132339285Y-133926190D02*
X132339285Y-133426190D01*
X132282142Y-133497619D01*
X132225000Y-133545238D01*
X132167857Y-133569047D01*
X132796428Y-133926190D02*
X132910714Y-133926190D01*
X132967857Y-133902380D01*
X132996428Y-133878571D01*
X133053571Y-133807142D01*
X133082142Y-133711904D01*
X133082142Y-133521428D01*
X133053571Y-133473809D01*
X133025000Y-133450000D01*
X132967857Y-133426190D01*
X132853571Y-133426190D01*
X132796428Y-133450000D01*
X132767857Y-133473809D01*
X132739285Y-133521428D01*
X132739285Y-133640476D01*
X132767857Y-133688095D01*
X132796428Y-133711904D01*
X132853571Y-133735714D01*
X132967857Y-133735714D01*
X133025000Y-133711904D01*
X133053571Y-133688095D01*
X133082142Y-133640476D01*
%TO.C,C18*%
X134314285Y-127108571D02*
X134285714Y-127132380D01*
X134200000Y-127156190D01*
X134142857Y-127156190D01*
X134057142Y-127132380D01*
X134000000Y-127084761D01*
X133971428Y-127037142D01*
X133942857Y-126941904D01*
X133942857Y-126870476D01*
X133971428Y-126775238D01*
X134000000Y-126727619D01*
X134057142Y-126680000D01*
X134142857Y-126656190D01*
X134200000Y-126656190D01*
X134285714Y-126680000D01*
X134314285Y-126703809D01*
X134885714Y-127156190D02*
X134542857Y-127156190D01*
X134714285Y-127156190D02*
X134714285Y-126656190D01*
X134657142Y-126727619D01*
X134600000Y-126775238D01*
X134542857Y-126799047D01*
X135228571Y-126870476D02*
X135171428Y-126846666D01*
X135142857Y-126822857D01*
X135114285Y-126775238D01*
X135114285Y-126751428D01*
X135142857Y-126703809D01*
X135171428Y-126680000D01*
X135228571Y-126656190D01*
X135342857Y-126656190D01*
X135400000Y-126680000D01*
X135428571Y-126703809D01*
X135457142Y-126751428D01*
X135457142Y-126775238D01*
X135428571Y-126822857D01*
X135400000Y-126846666D01*
X135342857Y-126870476D01*
X135228571Y-126870476D01*
X135171428Y-126894285D01*
X135142857Y-126918095D01*
X135114285Y-126965714D01*
X135114285Y-127060952D01*
X135142857Y-127108571D01*
X135171428Y-127132380D01*
X135228571Y-127156190D01*
X135342857Y-127156190D01*
X135400000Y-127132380D01*
X135428571Y-127108571D01*
X135457142Y-127060952D01*
X135457142Y-126965714D01*
X135428571Y-126918095D01*
X135400000Y-126894285D01*
X135342857Y-126870476D01*
%TO.C,C17*%
X126089285Y-142703571D02*
X126060714Y-142727380D01*
X125975000Y-142751190D01*
X125917857Y-142751190D01*
X125832142Y-142727380D01*
X125775000Y-142679761D01*
X125746428Y-142632142D01*
X125717857Y-142536904D01*
X125717857Y-142465476D01*
X125746428Y-142370238D01*
X125775000Y-142322619D01*
X125832142Y-142275000D01*
X125917857Y-142251190D01*
X125975000Y-142251190D01*
X126060714Y-142275000D01*
X126089285Y-142298809D01*
X126660714Y-142751190D02*
X126317857Y-142751190D01*
X126489285Y-142751190D02*
X126489285Y-142251190D01*
X126432142Y-142322619D01*
X126375000Y-142370238D01*
X126317857Y-142394047D01*
X126860714Y-142251190D02*
X127260714Y-142251190D01*
X127003571Y-142751190D01*
%TO.C,C16*%
X113739285Y-117928571D02*
X113710714Y-117952380D01*
X113625000Y-117976190D01*
X113567857Y-117976190D01*
X113482142Y-117952380D01*
X113425000Y-117904761D01*
X113396428Y-117857142D01*
X113367857Y-117761904D01*
X113367857Y-117690476D01*
X113396428Y-117595238D01*
X113425000Y-117547619D01*
X113482142Y-117500000D01*
X113567857Y-117476190D01*
X113625000Y-117476190D01*
X113710714Y-117500000D01*
X113739285Y-117523809D01*
X114310714Y-117976190D02*
X113967857Y-117976190D01*
X114139285Y-117976190D02*
X114139285Y-117476190D01*
X114082142Y-117547619D01*
X114025000Y-117595238D01*
X113967857Y-117619047D01*
X114825000Y-117476190D02*
X114710714Y-117476190D01*
X114653571Y-117500000D01*
X114625000Y-117523809D01*
X114567857Y-117595238D01*
X114539285Y-117690476D01*
X114539285Y-117880952D01*
X114567857Y-117928571D01*
X114596428Y-117952380D01*
X114653571Y-117976190D01*
X114767857Y-117976190D01*
X114825000Y-117952380D01*
X114853571Y-117928571D01*
X114882142Y-117880952D01*
X114882142Y-117761904D01*
X114853571Y-117714285D01*
X114825000Y-117690476D01*
X114767857Y-117666666D01*
X114653571Y-117666666D01*
X114596428Y-117690476D01*
X114567857Y-117714285D01*
X114539285Y-117761904D01*
%TO.C,C15*%
X126964285Y-135628571D02*
X126935714Y-135652380D01*
X126850000Y-135676190D01*
X126792857Y-135676190D01*
X126707142Y-135652380D01*
X126650000Y-135604761D01*
X126621428Y-135557142D01*
X126592857Y-135461904D01*
X126592857Y-135390476D01*
X126621428Y-135295238D01*
X126650000Y-135247619D01*
X126707142Y-135200000D01*
X126792857Y-135176190D01*
X126850000Y-135176190D01*
X126935714Y-135200000D01*
X126964285Y-135223809D01*
X127535714Y-135676190D02*
X127192857Y-135676190D01*
X127364285Y-135676190D02*
X127364285Y-135176190D01*
X127307142Y-135247619D01*
X127250000Y-135295238D01*
X127192857Y-135319047D01*
X128078571Y-135176190D02*
X127792857Y-135176190D01*
X127764285Y-135414285D01*
X127792857Y-135390476D01*
X127850000Y-135366666D01*
X127992857Y-135366666D01*
X128050000Y-135390476D01*
X128078571Y-135414285D01*
X128107142Y-135461904D01*
X128107142Y-135580952D01*
X128078571Y-135628571D01*
X128050000Y-135652380D01*
X127992857Y-135676190D01*
X127850000Y-135676190D01*
X127792857Y-135652380D01*
X127764285Y-135628571D01*
%TO.C,C14*%
X129889285Y-127108571D02*
X129860714Y-127132380D01*
X129775000Y-127156190D01*
X129717857Y-127156190D01*
X129632142Y-127132380D01*
X129575000Y-127084761D01*
X129546428Y-127037142D01*
X129517857Y-126941904D01*
X129517857Y-126870476D01*
X129546428Y-126775238D01*
X129575000Y-126727619D01*
X129632142Y-126680000D01*
X129717857Y-126656190D01*
X129775000Y-126656190D01*
X129860714Y-126680000D01*
X129889285Y-126703809D01*
X130460714Y-127156190D02*
X130117857Y-127156190D01*
X130289285Y-127156190D02*
X130289285Y-126656190D01*
X130232142Y-126727619D01*
X130175000Y-126775238D01*
X130117857Y-126799047D01*
X130975000Y-126822857D02*
X130975000Y-127156190D01*
X130832142Y-126632380D02*
X130689285Y-126989523D01*
X131060714Y-126989523D01*
%TO.C,C13*%
X106539285Y-139528571D02*
X106510714Y-139552380D01*
X106425000Y-139576190D01*
X106367857Y-139576190D01*
X106282142Y-139552380D01*
X106225000Y-139504761D01*
X106196428Y-139457142D01*
X106167857Y-139361904D01*
X106167857Y-139290476D01*
X106196428Y-139195238D01*
X106225000Y-139147619D01*
X106282142Y-139100000D01*
X106367857Y-139076190D01*
X106425000Y-139076190D01*
X106510714Y-139100000D01*
X106539285Y-139123809D01*
X107110714Y-139576190D02*
X106767857Y-139576190D01*
X106939285Y-139576190D02*
X106939285Y-139076190D01*
X106882142Y-139147619D01*
X106825000Y-139195238D01*
X106767857Y-139219047D01*
X107310714Y-139076190D02*
X107682142Y-139076190D01*
X107482142Y-139266666D01*
X107567857Y-139266666D01*
X107625000Y-139290476D01*
X107653571Y-139314285D01*
X107682142Y-139361904D01*
X107682142Y-139480952D01*
X107653571Y-139528571D01*
X107625000Y-139552380D01*
X107567857Y-139576190D01*
X107396428Y-139576190D01*
X107339285Y-139552380D01*
X107310714Y-139528571D01*
%TO.C,C12*%
X130339285Y-133853571D02*
X130310714Y-133877380D01*
X130225000Y-133901190D01*
X130167857Y-133901190D01*
X130082142Y-133877380D01*
X130025000Y-133829761D01*
X129996428Y-133782142D01*
X129967857Y-133686904D01*
X129967857Y-133615476D01*
X129996428Y-133520238D01*
X130025000Y-133472619D01*
X130082142Y-133425000D01*
X130167857Y-133401190D01*
X130225000Y-133401190D01*
X130310714Y-133425000D01*
X130339285Y-133448809D01*
X130910714Y-133901190D02*
X130567857Y-133901190D01*
X130739285Y-133901190D02*
X130739285Y-133401190D01*
X130682142Y-133472619D01*
X130625000Y-133520238D01*
X130567857Y-133544047D01*
X131139285Y-133448809D02*
X131167857Y-133425000D01*
X131225000Y-133401190D01*
X131367857Y-133401190D01*
X131425000Y-133425000D01*
X131453571Y-133448809D01*
X131482142Y-133496428D01*
X131482142Y-133544047D01*
X131453571Y-133615476D01*
X131110714Y-133901190D01*
X131482142Y-133901190D01*
%TO.C,C11*%
X106389285Y-142903571D02*
X106360714Y-142927380D01*
X106275000Y-142951190D01*
X106217857Y-142951190D01*
X106132142Y-142927380D01*
X106075000Y-142879761D01*
X106046428Y-142832142D01*
X106017857Y-142736904D01*
X106017857Y-142665476D01*
X106046428Y-142570238D01*
X106075000Y-142522619D01*
X106132142Y-142475000D01*
X106217857Y-142451190D01*
X106275000Y-142451190D01*
X106360714Y-142475000D01*
X106389285Y-142498809D01*
X106960714Y-142951190D02*
X106617857Y-142951190D01*
X106789285Y-142951190D02*
X106789285Y-142451190D01*
X106732142Y-142522619D01*
X106675000Y-142570238D01*
X106617857Y-142594047D01*
X107532142Y-142951190D02*
X107189285Y-142951190D01*
X107360714Y-142951190D02*
X107360714Y-142451190D01*
X107303571Y-142522619D01*
X107246428Y-142570238D01*
X107189285Y-142594047D01*
%TO.C,C10*%
X104939285Y-126653571D02*
X104910714Y-126677380D01*
X104825000Y-126701190D01*
X104767857Y-126701190D01*
X104682142Y-126677380D01*
X104625000Y-126629761D01*
X104596428Y-126582142D01*
X104567857Y-126486904D01*
X104567857Y-126415476D01*
X104596428Y-126320238D01*
X104625000Y-126272619D01*
X104682142Y-126225000D01*
X104767857Y-126201190D01*
X104825000Y-126201190D01*
X104910714Y-126225000D01*
X104939285Y-126248809D01*
X105510714Y-126701190D02*
X105167857Y-126701190D01*
X105339285Y-126701190D02*
X105339285Y-126201190D01*
X105282142Y-126272619D01*
X105225000Y-126320238D01*
X105167857Y-126344047D01*
X105882142Y-126201190D02*
X105939285Y-126201190D01*
X105996428Y-126225000D01*
X106025000Y-126248809D01*
X106053571Y-126296428D01*
X106082142Y-126391666D01*
X106082142Y-126510714D01*
X106053571Y-126605952D01*
X106025000Y-126653571D01*
X105996428Y-126677380D01*
X105939285Y-126701190D01*
X105882142Y-126701190D01*
X105825000Y-126677380D01*
X105796428Y-126653571D01*
X105767857Y-126605952D01*
X105739285Y-126510714D01*
X105739285Y-126391666D01*
X105767857Y-126296428D01*
X105796428Y-126248809D01*
X105825000Y-126225000D01*
X105882142Y-126201190D01*
%TO.C,C9*%
X108225000Y-132028571D02*
X108196428Y-132052380D01*
X108110714Y-132076190D01*
X108053571Y-132076190D01*
X107967857Y-132052380D01*
X107910714Y-132004761D01*
X107882142Y-131957142D01*
X107853571Y-131861904D01*
X107853571Y-131790476D01*
X107882142Y-131695238D01*
X107910714Y-131647619D01*
X107967857Y-131600000D01*
X108053571Y-131576190D01*
X108110714Y-131576190D01*
X108196428Y-131600000D01*
X108225000Y-131623809D01*
X108510714Y-132076190D02*
X108625000Y-132076190D01*
X108682142Y-132052380D01*
X108710714Y-132028571D01*
X108767857Y-131957142D01*
X108796428Y-131861904D01*
X108796428Y-131671428D01*
X108767857Y-131623809D01*
X108739285Y-131600000D01*
X108682142Y-131576190D01*
X108567857Y-131576190D01*
X108510714Y-131600000D01*
X108482142Y-131623809D01*
X108453571Y-131671428D01*
X108453571Y-131790476D01*
X108482142Y-131838095D01*
X108510714Y-131861904D01*
X108567857Y-131885714D01*
X108682142Y-131885714D01*
X108739285Y-131861904D01*
X108767857Y-131838095D01*
X108796428Y-131790476D01*
%TO.C,C8*%
X113025000Y-136828571D02*
X112996428Y-136852380D01*
X112910714Y-136876190D01*
X112853571Y-136876190D01*
X112767857Y-136852380D01*
X112710714Y-136804761D01*
X112682142Y-136757142D01*
X112653571Y-136661904D01*
X112653571Y-136590476D01*
X112682142Y-136495238D01*
X112710714Y-136447619D01*
X112767857Y-136400000D01*
X112853571Y-136376190D01*
X112910714Y-136376190D01*
X112996428Y-136400000D01*
X113025000Y-136423809D01*
X113367857Y-136590476D02*
X113310714Y-136566666D01*
X113282142Y-136542857D01*
X113253571Y-136495238D01*
X113253571Y-136471428D01*
X113282142Y-136423809D01*
X113310714Y-136400000D01*
X113367857Y-136376190D01*
X113482142Y-136376190D01*
X113539285Y-136400000D01*
X113567857Y-136423809D01*
X113596428Y-136471428D01*
X113596428Y-136495238D01*
X113567857Y-136542857D01*
X113539285Y-136566666D01*
X113482142Y-136590476D01*
X113367857Y-136590476D01*
X113310714Y-136614285D01*
X113282142Y-136638095D01*
X113253571Y-136685714D01*
X113253571Y-136780952D01*
X113282142Y-136828571D01*
X113310714Y-136852380D01*
X113367857Y-136876190D01*
X113482142Y-136876190D01*
X113539285Y-136852380D01*
X113567857Y-136828571D01*
X113596428Y-136780952D01*
X113596428Y-136685714D01*
X113567857Y-136638095D01*
X113539285Y-136614285D01*
X113482142Y-136590476D01*
%TO.C,C7*%
X109400000Y-132503571D02*
X109371428Y-132527380D01*
X109285714Y-132551190D01*
X109228571Y-132551190D01*
X109142857Y-132527380D01*
X109085714Y-132479761D01*
X109057142Y-132432142D01*
X109028571Y-132336904D01*
X109028571Y-132265476D01*
X109057142Y-132170238D01*
X109085714Y-132122619D01*
X109142857Y-132075000D01*
X109228571Y-132051190D01*
X109285714Y-132051190D01*
X109371428Y-132075000D01*
X109400000Y-132098809D01*
X109600000Y-132051190D02*
X110000000Y-132051190D01*
X109742857Y-132551190D01*
%TO.C,C6*%
X109650000Y-136853571D02*
X109621428Y-136877380D01*
X109535714Y-136901190D01*
X109478571Y-136901190D01*
X109392857Y-136877380D01*
X109335714Y-136829761D01*
X109307142Y-136782142D01*
X109278571Y-136686904D01*
X109278571Y-136615476D01*
X109307142Y-136520238D01*
X109335714Y-136472619D01*
X109392857Y-136425000D01*
X109478571Y-136401190D01*
X109535714Y-136401190D01*
X109621428Y-136425000D01*
X109650000Y-136448809D01*
X110164285Y-136401190D02*
X110050000Y-136401190D01*
X109992857Y-136425000D01*
X109964285Y-136448809D01*
X109907142Y-136520238D01*
X109878571Y-136615476D01*
X109878571Y-136805952D01*
X109907142Y-136853571D01*
X109935714Y-136877380D01*
X109992857Y-136901190D01*
X110107142Y-136901190D01*
X110164285Y-136877380D01*
X110192857Y-136853571D01*
X110221428Y-136805952D01*
X110221428Y-136686904D01*
X110192857Y-136639285D01*
X110164285Y-136615476D01*
X110107142Y-136591666D01*
X109992857Y-136591666D01*
X109935714Y-136615476D01*
X109907142Y-136639285D01*
X109878571Y-136686904D01*
%TO.C,C5*%
X106725000Y-137828571D02*
X106696428Y-137852380D01*
X106610714Y-137876190D01*
X106553571Y-137876190D01*
X106467857Y-137852380D01*
X106410714Y-137804761D01*
X106382142Y-137757142D01*
X106353571Y-137661904D01*
X106353571Y-137590476D01*
X106382142Y-137495238D01*
X106410714Y-137447619D01*
X106467857Y-137400000D01*
X106553571Y-137376190D01*
X106610714Y-137376190D01*
X106696428Y-137400000D01*
X106725000Y-137423809D01*
X107267857Y-137376190D02*
X106982142Y-137376190D01*
X106953571Y-137614285D01*
X106982142Y-137590476D01*
X107039285Y-137566666D01*
X107182142Y-137566666D01*
X107239285Y-137590476D01*
X107267857Y-137614285D01*
X107296428Y-137661904D01*
X107296428Y-137780952D01*
X107267857Y-137828571D01*
X107239285Y-137852380D01*
X107182142Y-137876190D01*
X107039285Y-137876190D01*
X106982142Y-137852380D01*
X106953571Y-137828571D01*
%TO.C,C4*%
X112650000Y-132478571D02*
X112621428Y-132502380D01*
X112535714Y-132526190D01*
X112478571Y-132526190D01*
X112392857Y-132502380D01*
X112335714Y-132454761D01*
X112307142Y-132407142D01*
X112278571Y-132311904D01*
X112278571Y-132240476D01*
X112307142Y-132145238D01*
X112335714Y-132097619D01*
X112392857Y-132050000D01*
X112478571Y-132026190D01*
X112535714Y-132026190D01*
X112621428Y-132050000D01*
X112650000Y-132073809D01*
X113164285Y-132192857D02*
X113164285Y-132526190D01*
X113021428Y-132002380D02*
X112878571Y-132359523D01*
X113250000Y-132359523D01*
%TO.C,C3*%
X111000000Y-132478571D02*
X110971428Y-132502380D01*
X110885714Y-132526190D01*
X110828571Y-132526190D01*
X110742857Y-132502380D01*
X110685714Y-132454761D01*
X110657142Y-132407142D01*
X110628571Y-132311904D01*
X110628571Y-132240476D01*
X110657142Y-132145238D01*
X110685714Y-132097619D01*
X110742857Y-132050000D01*
X110828571Y-132026190D01*
X110885714Y-132026190D01*
X110971428Y-132050000D01*
X111000000Y-132073809D01*
X111200000Y-132026190D02*
X111571428Y-132026190D01*
X111371428Y-132216666D01*
X111457142Y-132216666D01*
X111514285Y-132240476D01*
X111542857Y-132264285D01*
X111571428Y-132311904D01*
X111571428Y-132430952D01*
X111542857Y-132478571D01*
X111514285Y-132502380D01*
X111457142Y-132526190D01*
X111285714Y-132526190D01*
X111228571Y-132502380D01*
X111200000Y-132478571D01*
%TO.C,C2*%
X106825000Y-141428571D02*
X106796428Y-141452380D01*
X106710714Y-141476190D01*
X106653571Y-141476190D01*
X106567857Y-141452380D01*
X106510714Y-141404761D01*
X106482142Y-141357142D01*
X106453571Y-141261904D01*
X106453571Y-141190476D01*
X106482142Y-141095238D01*
X106510714Y-141047619D01*
X106567857Y-141000000D01*
X106653571Y-140976190D01*
X106710714Y-140976190D01*
X106796428Y-141000000D01*
X106825000Y-141023809D01*
X107053571Y-141023809D02*
X107082142Y-141000000D01*
X107139285Y-140976190D01*
X107282142Y-140976190D01*
X107339285Y-141000000D01*
X107367857Y-141023809D01*
X107396428Y-141071428D01*
X107396428Y-141119047D01*
X107367857Y-141190476D01*
X107025000Y-141476190D01*
X107396428Y-141476190D01*
%TO.C,C1*%
X109650000Y-126578571D02*
X109621428Y-126602380D01*
X109535714Y-126626190D01*
X109478571Y-126626190D01*
X109392857Y-126602380D01*
X109335714Y-126554761D01*
X109307142Y-126507142D01*
X109278571Y-126411904D01*
X109278571Y-126340476D01*
X109307142Y-126245238D01*
X109335714Y-126197619D01*
X109392857Y-126150000D01*
X109478571Y-126126190D01*
X109535714Y-126126190D01*
X109621428Y-126150000D01*
X109650000Y-126173809D01*
X110221428Y-126626190D02*
X109878571Y-126626190D01*
X110050000Y-126626190D02*
X110050000Y-126126190D01*
X109992857Y-126197619D01*
X109935714Y-126245238D01*
X109878571Y-126269047D01*
%TD*%
M02*
